%TF.GenerationSoftware,KiCad,Pcbnew,8.0.6*%
%TF.CreationDate,2024-11-07T16:30:56+01:00*%
%TF.ProjectId,SQUIM_v02,53515549-4d5f-4763-9032-2e6b69636164,rev?*%
%TF.SameCoordinates,Original*%
%TF.FileFunction,Legend,Top*%
%TF.FilePolarity,Positive*%
%FSLAX46Y46*%
G04 Gerber Fmt 4.6, Leading zero omitted, Abs format (unit mm)*
G04 Created by KiCad (PCBNEW 8.0.6) date 2024-11-07 16:30:56*
%MOMM*%
%LPD*%
G01*
G04 APERTURE LIST*
%ADD10C,0.300000*%
%ADD11C,0.400000*%
%ADD12C,5.000000*%
%ADD13C,3.000000*%
%ADD14C,2.000000*%
%ADD15C,0.100000*%
%ADD16C,0.250000*%
%ADD17C,0.375000*%
%ADD18C,0.150000*%
%ADD19C,0.120000*%
%ADD20C,0.010000*%
G04 APERTURE END LIST*
D10*
X125510228Y-59419994D02*
X134610228Y-77119994D01*
X115760228Y-65919994D02*
X127510228Y-81669994D01*
X125510228Y-59419994D02*
X115760228Y-65919994D01*
D11*
X164236510Y-99721260D02*
X164074886Y-99775135D01*
X164074886Y-99775135D02*
X163913262Y-99936760D01*
X163913262Y-99936760D02*
X163805512Y-100152259D01*
X163805512Y-100152259D02*
X163805512Y-100367758D01*
X163805512Y-100367758D02*
X163859387Y-100529382D01*
X163859387Y-100529382D02*
X164021011Y-100798756D01*
X164021011Y-100798756D02*
X164182636Y-100960381D01*
X164182636Y-100960381D02*
X164452010Y-101122005D01*
X164452010Y-101122005D02*
X164613634Y-101175880D01*
X164613634Y-101175880D02*
X164829133Y-101175880D01*
X164829133Y-101175880D02*
X165044632Y-101068131D01*
X165044632Y-101068131D02*
X165152382Y-100960381D01*
X165152382Y-100960381D02*
X165260132Y-100744882D01*
X165260132Y-100744882D02*
X165260132Y-100637132D01*
X165260132Y-100637132D02*
X164883008Y-100260008D01*
X164883008Y-100260008D02*
X164667509Y-100475508D01*
X166714752Y-99398011D02*
X165583381Y-98266641D01*
X165583381Y-98266641D02*
X165852755Y-97997267D01*
X165852755Y-97997267D02*
X166068254Y-97889517D01*
X166068254Y-97889517D02*
X166283753Y-97889517D01*
X166283753Y-97889517D02*
X166445377Y-97943392D01*
X166445377Y-97943392D02*
X166714752Y-98105016D01*
X166714752Y-98105016D02*
X166876376Y-98266641D01*
X166876376Y-98266641D02*
X167038000Y-98536015D01*
X167038000Y-98536015D02*
X167091875Y-98697639D01*
X167091875Y-98697639D02*
X167091875Y-98913138D01*
X167091875Y-98913138D02*
X166984126Y-99128637D01*
X166984126Y-99128637D02*
X166714752Y-99398011D01*
X169246867Y-96650396D02*
X169246867Y-96758146D01*
X169246867Y-96758146D02*
X169139118Y-96973645D01*
X169139118Y-96973645D02*
X169031368Y-97081395D01*
X169031368Y-97081395D02*
X168815869Y-97189144D01*
X168815869Y-97189144D02*
X168600370Y-97189144D01*
X168600370Y-97189144D02*
X168438745Y-97135269D01*
X168438745Y-97135269D02*
X168169371Y-96973645D01*
X168169371Y-96973645D02*
X168007747Y-96812021D01*
X168007747Y-96812021D02*
X167846123Y-96542647D01*
X167846123Y-96542647D02*
X167792248Y-96381022D01*
X167792248Y-96381022D02*
X167792248Y-96165523D01*
X167792248Y-96165523D02*
X167899997Y-95950024D01*
X167899997Y-95950024D02*
X168007747Y-95842274D01*
X168007747Y-95842274D02*
X168223246Y-95734525D01*
X168223246Y-95734525D02*
X168330996Y-95734525D01*
X170108865Y-93741157D02*
X169570117Y-94279905D01*
X169570117Y-94279905D02*
X170054990Y-94872527D01*
X170054990Y-94872527D02*
X170054990Y-94764778D01*
X170054990Y-94764778D02*
X170108865Y-94603153D01*
X170108865Y-94603153D02*
X170378239Y-94333779D01*
X170378239Y-94333779D02*
X170539863Y-94279905D01*
X170539863Y-94279905D02*
X170647613Y-94279905D01*
X170647613Y-94279905D02*
X170809237Y-94333779D01*
X170809237Y-94333779D02*
X171078611Y-94603153D01*
X171078611Y-94603153D02*
X171132486Y-94764778D01*
X171132486Y-94764778D02*
X171132486Y-94872527D01*
X171132486Y-94872527D02*
X171078611Y-95034152D01*
X171078611Y-95034152D02*
X170809237Y-95303526D01*
X170809237Y-95303526D02*
X170647613Y-95357401D01*
X170647613Y-95357401D02*
X170539863Y-95357401D01*
D10*
X129420003Y-132614679D02*
X129991432Y-132614679D01*
X129305717Y-132957536D02*
X129705717Y-131757536D01*
X129705717Y-131757536D02*
X130105717Y-132957536D01*
X130734288Y-131757536D02*
X130848574Y-131757536D01*
X130848574Y-131757536D02*
X130962860Y-131814679D01*
X130962860Y-131814679D02*
X131020003Y-131871822D01*
X131020003Y-131871822D02*
X131077145Y-131986108D01*
X131077145Y-131986108D02*
X131134288Y-132214679D01*
X131134288Y-132214679D02*
X131134288Y-132500394D01*
X131134288Y-132500394D02*
X131077145Y-132728965D01*
X131077145Y-132728965D02*
X131020003Y-132843251D01*
X131020003Y-132843251D02*
X130962860Y-132900394D01*
X130962860Y-132900394D02*
X130848574Y-132957536D01*
X130848574Y-132957536D02*
X130734288Y-132957536D01*
X130734288Y-132957536D02*
X130620003Y-132900394D01*
X130620003Y-132900394D02*
X130562860Y-132843251D01*
X130562860Y-132843251D02*
X130505717Y-132728965D01*
X130505717Y-132728965D02*
X130448574Y-132500394D01*
X130448574Y-132500394D02*
X130448574Y-132214679D01*
X130448574Y-132214679D02*
X130505717Y-131986108D01*
X130505717Y-131986108D02*
X130562860Y-131871822D01*
X130562860Y-131871822D02*
X130620003Y-131814679D01*
X130620003Y-131814679D02*
X130734288Y-131757536D01*
D12*
X145985601Y-93700000D02*
G75*
G02*
X134714399Y-93700000I-5635601J0D01*
G01*
X134714399Y-93700000D02*
G75*
G02*
X145985601Y-93700000I5635601J0D01*
G01*
D11*
X130900000Y-133700000D02*
X129450000Y-133700000D01*
D13*
X150501108Y-93700000D02*
G75*
G02*
X130198892Y-93700000I-10151108J0D01*
G01*
X130198892Y-93700000D02*
G75*
G02*
X150501108Y-93700000I10151108J0D01*
G01*
D14*
X118080228Y-143819994D02*
X118080228Y-100639994D01*
D15*
X164410228Y-120269994D02*
X167010228Y-128119994D01*
D14*
X115540228Y-143819994D02*
X115540228Y-100639994D01*
X120620228Y-143819994D02*
X120620228Y-100639994D01*
D13*
X141817530Y-91000000D02*
G75*
G02*
X135382470Y-91000000I-3217530J0D01*
G01*
X135382470Y-91000000D02*
G75*
G02*
X141817530Y-91000000I3217530J0D01*
G01*
D16*
X117539619Y-98221241D02*
X117539619Y-98697431D01*
X117539619Y-98697431D02*
X118015809Y-98745050D01*
X118015809Y-98745050D02*
X117968190Y-98697431D01*
X117968190Y-98697431D02*
X117920571Y-98602193D01*
X117920571Y-98602193D02*
X117920571Y-98364098D01*
X117920571Y-98364098D02*
X117968190Y-98268860D01*
X117968190Y-98268860D02*
X118015809Y-98221241D01*
X118015809Y-98221241D02*
X118111047Y-98173622D01*
X118111047Y-98173622D02*
X118349142Y-98173622D01*
X118349142Y-98173622D02*
X118444380Y-98221241D01*
X118444380Y-98221241D02*
X118492000Y-98268860D01*
X118492000Y-98268860D02*
X118539619Y-98364098D01*
X118539619Y-98364098D02*
X118539619Y-98602193D01*
X118539619Y-98602193D02*
X118492000Y-98697431D01*
X118492000Y-98697431D02*
X118444380Y-98745050D01*
X117539619Y-97887907D02*
X118539619Y-97554574D01*
X118539619Y-97554574D02*
X117539619Y-97221241D01*
D17*
X115255728Y-155734279D02*
X115255728Y-154591422D01*
X115827156Y-155162850D02*
X114684299Y-155162850D01*
X115255728Y-150448565D02*
X115255728Y-149305708D01*
D15*
X157729621Y-125722012D02*
X157880150Y-125717900D01*
X157880150Y-125717900D02*
X158103886Y-125636466D01*
X158103886Y-125636466D02*
X158177094Y-125559146D01*
X158177094Y-125559146D02*
X158205554Y-125498112D01*
X158205554Y-125498112D02*
X158217728Y-125392331D01*
X158217728Y-125392331D02*
X158185155Y-125302836D01*
X158185155Y-125302836D02*
X158107834Y-125229628D01*
X158107834Y-125229628D02*
X158046800Y-125201168D01*
X158046800Y-125201168D02*
X157941019Y-125188994D01*
X157941019Y-125188994D02*
X157745743Y-125209393D01*
X157745743Y-125209393D02*
X157639962Y-125197219D01*
X157639962Y-125197219D02*
X157578928Y-125168759D01*
X157578928Y-125168759D02*
X157501608Y-125095551D01*
X157501608Y-125095551D02*
X157469034Y-125006056D01*
X157469034Y-125006056D02*
X157481208Y-124900275D01*
X157481208Y-124900275D02*
X157509669Y-124839241D01*
X157509669Y-124839241D02*
X157582877Y-124761920D01*
X157582877Y-124761920D02*
X157806613Y-124680487D01*
X157806613Y-124680487D02*
X157957141Y-124676374D01*
X159344636Y-125286221D02*
X159238854Y-125274047D01*
X159238854Y-125274047D02*
X159116786Y-125217126D01*
X159116786Y-125217126D02*
X158933685Y-125131744D01*
X158933685Y-125131744D02*
X158827903Y-125119570D01*
X158827903Y-125119570D02*
X158738409Y-125152143D01*
X158864589Y-125359593D02*
X158758808Y-125347419D01*
X158758808Y-125347419D02*
X158636740Y-125290498D01*
X158636740Y-125290498D02*
X158526846Y-125127795D01*
X158526846Y-125127795D02*
X158412840Y-124814565D01*
X158412840Y-124814565D02*
X158392440Y-124619289D01*
X158392440Y-124619289D02*
X158449361Y-124497221D01*
X158449361Y-124497221D02*
X158522569Y-124419900D01*
X158522569Y-124419900D02*
X158701558Y-124354754D01*
X158701558Y-124354754D02*
X158807340Y-124366928D01*
X158807340Y-124366928D02*
X158929408Y-124423849D01*
X158929408Y-124423849D02*
X159039301Y-124586551D01*
X159039301Y-124586551D02*
X159153308Y-124899782D01*
X159153308Y-124899782D02*
X159173708Y-125095058D01*
X159173708Y-125095058D02*
X159116786Y-125217126D01*
X159116786Y-125217126D02*
X159043579Y-125294446D01*
X159043579Y-125294446D02*
X158864589Y-125359593D01*
X159328020Y-124126740D02*
X159604894Y-124887444D01*
X159604894Y-124887444D02*
X159682214Y-124960652D01*
X159682214Y-124960652D02*
X159743248Y-124989112D01*
X159743248Y-124989112D02*
X159849029Y-125001286D01*
X159849029Y-125001286D02*
X160028018Y-124936139D01*
X160028018Y-124936139D02*
X160101226Y-124858819D01*
X160101226Y-124858819D02*
X160129687Y-124797785D01*
X160129687Y-124797785D02*
X160141861Y-124692004D01*
X160141861Y-124692004D02*
X159864987Y-123931300D01*
X160654480Y-124708126D02*
X160312460Y-123768433D01*
X161101952Y-124545259D02*
X160759932Y-123605567D01*
X160759932Y-123605567D02*
X161317463Y-124162769D01*
X161317463Y-124162769D02*
X161386394Y-123377553D01*
X161386394Y-123377553D02*
X161728414Y-124317246D01*
X161984724Y-124325307D02*
X162700680Y-124064720D01*
X162574335Y-123299904D02*
X163026085Y-123844932D01*
X163026085Y-123844932D02*
X163021808Y-123137037D01*
X163444769Y-122628366D02*
X163534263Y-122595793D01*
X163534263Y-122595793D02*
X163640044Y-122607967D01*
X163640044Y-122607967D02*
X163701078Y-122636427D01*
X163701078Y-122636427D02*
X163778399Y-122709635D01*
X163778399Y-122709635D02*
X163888293Y-122872338D01*
X163888293Y-122872338D02*
X163969726Y-123096074D01*
X163969726Y-123096074D02*
X163990126Y-123291350D01*
X163990126Y-123291350D02*
X163977952Y-123397131D01*
X163977952Y-123397131D02*
X163949491Y-123458165D01*
X163949491Y-123458165D02*
X163876283Y-123535486D01*
X163876283Y-123535486D02*
X163786789Y-123568059D01*
X163786789Y-123568059D02*
X163681007Y-123555885D01*
X163681007Y-123555885D02*
X163619974Y-123527424D01*
X163619974Y-123527424D02*
X163542653Y-123454217D01*
X163542653Y-123454217D02*
X163432759Y-123291514D01*
X163432759Y-123291514D02*
X163351326Y-123067778D01*
X163351326Y-123067778D02*
X163330926Y-122872502D01*
X163330926Y-122872502D02*
X163343100Y-122766721D01*
X163343100Y-122766721D02*
X163371561Y-122705687D01*
X163371561Y-122705687D02*
X163444769Y-122628366D01*
X164148551Y-122473561D02*
X164177012Y-122412527D01*
X164177012Y-122412527D02*
X164250219Y-122335206D01*
X164250219Y-122335206D02*
X164473956Y-122253773D01*
X164473956Y-122253773D02*
X164579737Y-122265947D01*
X164579737Y-122265947D02*
X164640771Y-122294407D01*
X164640771Y-122294407D02*
X164718092Y-122367615D01*
X164718092Y-122367615D02*
X164750665Y-122457110D01*
X164750665Y-122457110D02*
X164754778Y-122607638D01*
X164754778Y-122607638D02*
X164413250Y-123340045D01*
X164413250Y-123340045D02*
X164994965Y-123128319D01*
X158280254Y-127234864D02*
X158386035Y-127247038D01*
X158386035Y-127247038D02*
X158565024Y-127181892D01*
X158565024Y-127181892D02*
X158638232Y-127104571D01*
X158638232Y-127104571D02*
X158650406Y-126998790D01*
X158650406Y-126998790D02*
X158634119Y-126954043D01*
X158634119Y-126954043D02*
X158556799Y-126880835D01*
X158556799Y-126880835D02*
X158451018Y-126868661D01*
X158451018Y-126868661D02*
X158316776Y-126917521D01*
X158316776Y-126917521D02*
X158210995Y-126905347D01*
X158210995Y-126905347D02*
X158133674Y-126832139D01*
X158133674Y-126832139D02*
X158117387Y-126787392D01*
X158117387Y-126787392D02*
X158129561Y-126681611D01*
X158129561Y-126681611D02*
X158202769Y-126604290D01*
X158202769Y-126604290D02*
X158337011Y-126555430D01*
X158337011Y-126555430D02*
X158442792Y-126567604D01*
X159276704Y-126213410D02*
X159618724Y-127153102D01*
X159488430Y-126795124D02*
X159415223Y-126872445D01*
X159415223Y-126872445D02*
X159236234Y-126937592D01*
X159236234Y-126937592D02*
X159130452Y-126925418D01*
X159130452Y-126925418D02*
X159069418Y-126896957D01*
X159069418Y-126896957D02*
X158992098Y-126823749D01*
X158992098Y-126823749D02*
X158894378Y-126555266D01*
X158894378Y-126555266D02*
X158906552Y-126449484D01*
X158906552Y-126449484D02*
X158935012Y-126388450D01*
X158935012Y-126388450D02*
X159008220Y-126311130D01*
X159008220Y-126311130D02*
X159187209Y-126245983D01*
X159187209Y-126245983D02*
X159292990Y-126258157D01*
X160126902Y-125903963D02*
X160354915Y-126530425D01*
X159724176Y-126050543D02*
X159903330Y-126542763D01*
X159903330Y-126542763D02*
X159980651Y-126615971D01*
X159980651Y-126615971D02*
X160086432Y-126628145D01*
X160086432Y-126628145D02*
X160220674Y-126579285D01*
X160220674Y-126579285D02*
X160293881Y-126501964D01*
X160293881Y-126501964D02*
X160322342Y-126440930D01*
X161205114Y-126220978D02*
X161025960Y-125728758D01*
X161025960Y-125728758D02*
X160948639Y-125655550D01*
X160948639Y-125655550D02*
X160842858Y-125643376D01*
X160842858Y-125643376D02*
X160663869Y-125708523D01*
X160663869Y-125708523D02*
X160590661Y-125785843D01*
X161188827Y-126176231D02*
X161115619Y-126253551D01*
X161115619Y-126253551D02*
X160891883Y-126334985D01*
X160891883Y-126334985D02*
X160786101Y-126322811D01*
X160786101Y-126322811D02*
X160708781Y-126249603D01*
X160708781Y-126249603D02*
X160676207Y-126160108D01*
X160676207Y-126160108D02*
X160688381Y-126054327D01*
X160688381Y-126054327D02*
X160761589Y-125977006D01*
X160761589Y-125977006D02*
X160985326Y-125895573D01*
X160985326Y-125895573D02*
X161058533Y-125818252D01*
X161652586Y-126058111D02*
X161424573Y-125431649D01*
X161489720Y-125610638D02*
X161501893Y-125504857D01*
X161501893Y-125504857D02*
X161530354Y-125443823D01*
X161530354Y-125443823D02*
X161603562Y-125366503D01*
X161603562Y-125366503D02*
X161693056Y-125333929D01*
X162575993Y-125671344D02*
X162502785Y-125748664D01*
X162502785Y-125748664D02*
X162323796Y-125813811D01*
X162323796Y-125813811D02*
X162218014Y-125801637D01*
X162218014Y-125801637D02*
X162140694Y-125728429D01*
X162140694Y-125728429D02*
X162010400Y-125370451D01*
X162010400Y-125370451D02*
X162022574Y-125264670D01*
X162022574Y-125264670D02*
X162095782Y-125187349D01*
X162095782Y-125187349D02*
X162274771Y-125122202D01*
X162274771Y-125122202D02*
X162380552Y-125134376D01*
X162380552Y-125134376D02*
X162457873Y-125207584D01*
X162457873Y-125207584D02*
X162490446Y-125297079D01*
X162490446Y-125297079D02*
X162075547Y-125549440D01*
X158891921Y-128776177D02*
X158663908Y-128149715D01*
X158549901Y-127836484D02*
X158521440Y-127897518D01*
X158521440Y-127897518D02*
X158582474Y-127925979D01*
X158582474Y-127925979D02*
X158610935Y-127864945D01*
X158610935Y-127864945D02*
X158549901Y-127836484D01*
X158549901Y-127836484D02*
X158582474Y-127925979D01*
X159339393Y-128613311D02*
X159111380Y-127986849D01*
X159143953Y-128076343D02*
X159172414Y-128015309D01*
X159172414Y-128015309D02*
X159245622Y-127937989D01*
X159245622Y-127937989D02*
X159379863Y-127889129D01*
X159379863Y-127889129D02*
X159485645Y-127901303D01*
X159485645Y-127901303D02*
X159562965Y-127974511D01*
X159562965Y-127974511D02*
X159742119Y-128466730D01*
X159562965Y-127974511D02*
X159575139Y-127868729D01*
X159575139Y-127868729D02*
X159648347Y-127791409D01*
X159648347Y-127791409D02*
X159782589Y-127742549D01*
X159782589Y-127742549D02*
X159888370Y-127754723D01*
X159888370Y-127754723D02*
X159965691Y-127827930D01*
X159965691Y-127827930D02*
X160144844Y-128320150D01*
X160592316Y-128157284D02*
X160364303Y-127530822D01*
X160396876Y-127620317D02*
X160425337Y-127559283D01*
X160425337Y-127559283D02*
X160498545Y-127481962D01*
X160498545Y-127481962D02*
X160632787Y-127433102D01*
X160632787Y-127433102D02*
X160738568Y-127445276D01*
X160738568Y-127445276D02*
X160815888Y-127518484D01*
X160815888Y-127518484D02*
X160995042Y-128010704D01*
X160815888Y-127518484D02*
X160828062Y-127412703D01*
X160828062Y-127412703D02*
X160901270Y-127335382D01*
X160901270Y-127335382D02*
X161035512Y-127286522D01*
X161035512Y-127286522D02*
X161141293Y-127298696D01*
X161141293Y-127298696D02*
X161218614Y-127371904D01*
X161218614Y-127371904D02*
X161397767Y-127864124D01*
X162186931Y-127526216D02*
X162113723Y-127603537D01*
X162113723Y-127603537D02*
X161934734Y-127668684D01*
X161934734Y-127668684D02*
X161828953Y-127656510D01*
X161828953Y-127656510D02*
X161751632Y-127583302D01*
X161751632Y-127583302D02*
X161621339Y-127225324D01*
X161621339Y-127225324D02*
X161633513Y-127119543D01*
X161633513Y-127119543D02*
X161706721Y-127042222D01*
X161706721Y-127042222D02*
X161885710Y-126977075D01*
X161885710Y-126977075D02*
X161991491Y-126989249D01*
X161991491Y-126989249D02*
X162068812Y-127062457D01*
X162068812Y-127062457D02*
X162101385Y-127151952D01*
X162101385Y-127151952D02*
X161686486Y-127404313D01*
X162650691Y-127408097D02*
X162422677Y-126781635D01*
X162487824Y-126960624D02*
X162499998Y-126854843D01*
X162499998Y-126854843D02*
X162528458Y-126793809D01*
X162528458Y-126793809D02*
X162601666Y-126716488D01*
X162601666Y-126716488D02*
X162691161Y-126683915D01*
X163171371Y-127167909D02*
X163277153Y-127180083D01*
X163277153Y-127180083D02*
X163456142Y-127114937D01*
X163456142Y-127114937D02*
X163529350Y-127037616D01*
X163529350Y-127037616D02*
X163541524Y-126931835D01*
X163541524Y-126931835D02*
X163525237Y-126887088D01*
X163525237Y-126887088D02*
X163447916Y-126813880D01*
X163447916Y-126813880D02*
X163342135Y-126801706D01*
X163342135Y-126801706D02*
X163207893Y-126850566D01*
X163207893Y-126850566D02*
X163102112Y-126838392D01*
X163102112Y-126838392D02*
X163024791Y-126765184D01*
X163024791Y-126765184D02*
X163008505Y-126720437D01*
X163008505Y-126720437D02*
X163020679Y-126614655D01*
X163020679Y-126614655D02*
X163093887Y-126537335D01*
X163093887Y-126537335D02*
X163228128Y-126488475D01*
X163228128Y-126488475D02*
X163333910Y-126500649D01*
X163993109Y-126919496D02*
X163765096Y-126293035D01*
X163651089Y-125979804D02*
X163622628Y-126040838D01*
X163622628Y-126040838D02*
X163683662Y-126069298D01*
X163683662Y-126069298D02*
X163712123Y-126008264D01*
X163712123Y-126008264D02*
X163651089Y-125979804D01*
X163651089Y-125979804D02*
X163683662Y-126069298D01*
X164574823Y-126707770D02*
X164469042Y-126695596D01*
X164469042Y-126695596D02*
X164408008Y-126667135D01*
X164408008Y-126667135D02*
X164330687Y-126593927D01*
X164330687Y-126593927D02*
X164232967Y-126325444D01*
X164232967Y-126325444D02*
X164245141Y-126219663D01*
X164245141Y-126219663D02*
X164273602Y-126158629D01*
X164273602Y-126158629D02*
X164346810Y-126081308D01*
X164346810Y-126081308D02*
X164481052Y-126032448D01*
X164481052Y-126032448D02*
X164586833Y-126044622D01*
X164586833Y-126044622D02*
X164647867Y-126073083D01*
X164647867Y-126073083D02*
X164725187Y-126146290D01*
X164725187Y-126146290D02*
X164822907Y-126414774D01*
X164822907Y-126414774D02*
X164810733Y-126520555D01*
X164810733Y-126520555D02*
X164782273Y-126581589D01*
X164782273Y-126581589D02*
X164709065Y-126658910D01*
X164709065Y-126658910D02*
X164574823Y-126707770D01*
X165062766Y-125820721D02*
X165290780Y-126447183D01*
X165095339Y-125910216D02*
X165123800Y-125849182D01*
X165123800Y-125849182D02*
X165197008Y-125771861D01*
X165197008Y-125771861D02*
X165331250Y-125723001D01*
X165331250Y-125723001D02*
X165437031Y-125735175D01*
X165437031Y-125735175D02*
X165514352Y-125808383D01*
X165514352Y-125808383D02*
X165693505Y-126300603D01*
X158095237Y-152079517D02*
X158133332Y-152155707D01*
X158133332Y-152155707D02*
X158133332Y-152269993D01*
X158133332Y-152269993D02*
X158095237Y-152384279D01*
X158095237Y-152384279D02*
X158019047Y-152460469D01*
X158019047Y-152460469D02*
X157942856Y-152498564D01*
X157942856Y-152498564D02*
X157790475Y-152536660D01*
X157790475Y-152536660D02*
X157676189Y-152536660D01*
X157676189Y-152536660D02*
X157523808Y-152498564D01*
X157523808Y-152498564D02*
X157447618Y-152460469D01*
X157447618Y-152460469D02*
X157371428Y-152384279D01*
X157371428Y-152384279D02*
X157333332Y-152269993D01*
X157333332Y-152269993D02*
X157333332Y-152193802D01*
X157333332Y-152193802D02*
X157371428Y-152079517D01*
X157371428Y-152079517D02*
X157409523Y-152041421D01*
X157409523Y-152041421D02*
X157676189Y-152041421D01*
X157676189Y-152041421D02*
X157676189Y-152193802D01*
X157333332Y-151698564D02*
X158133332Y-151698564D01*
X158133332Y-151698564D02*
X157333332Y-151241421D01*
X157333332Y-151241421D02*
X158133332Y-151241421D01*
X157333332Y-150860469D02*
X158133332Y-150860469D01*
X158133332Y-150860469D02*
X158133332Y-150669993D01*
X158133332Y-150669993D02*
X158095237Y-150555707D01*
X158095237Y-150555707D02*
X158019047Y-150479517D01*
X158019047Y-150479517D02*
X157942856Y-150441422D01*
X157942856Y-150441422D02*
X157790475Y-150403326D01*
X157790475Y-150403326D02*
X157676189Y-150403326D01*
X157676189Y-150403326D02*
X157523808Y-150441422D01*
X157523808Y-150441422D02*
X157447618Y-150479517D01*
X157447618Y-150479517D02*
X157371428Y-150555707D01*
X157371428Y-150555707D02*
X157333332Y-150669993D01*
X157333332Y-150669993D02*
X157333332Y-150860469D01*
D16*
X120069847Y-147873514D02*
X120069847Y-147254467D01*
X120069847Y-147254467D02*
X120450799Y-147587800D01*
X120450799Y-147587800D02*
X120450799Y-147444943D01*
X120450799Y-147444943D02*
X120498418Y-147349705D01*
X120498418Y-147349705D02*
X120546037Y-147302086D01*
X120546037Y-147302086D02*
X120641275Y-147254467D01*
X120641275Y-147254467D02*
X120879370Y-147254467D01*
X120879370Y-147254467D02*
X120974608Y-147302086D01*
X120974608Y-147302086D02*
X121022228Y-147349705D01*
X121022228Y-147349705D02*
X121069847Y-147444943D01*
X121069847Y-147444943D02*
X121069847Y-147730657D01*
X121069847Y-147730657D02*
X121022228Y-147825895D01*
X121022228Y-147825895D02*
X120974608Y-147873514D01*
X120069847Y-146968752D02*
X121069847Y-146635419D01*
X121069847Y-146635419D02*
X120069847Y-146302086D01*
X120069847Y-146063990D02*
X120069847Y-145444943D01*
X120069847Y-145444943D02*
X120450799Y-145778276D01*
X120450799Y-145778276D02*
X120450799Y-145635419D01*
X120450799Y-145635419D02*
X120498418Y-145540181D01*
X120498418Y-145540181D02*
X120546037Y-145492562D01*
X120546037Y-145492562D02*
X120641275Y-145444943D01*
X120641275Y-145444943D02*
X120879370Y-145444943D01*
X120879370Y-145444943D02*
X120974608Y-145492562D01*
X120974608Y-145492562D02*
X121022228Y-145540181D01*
X121022228Y-145540181D02*
X121069847Y-145635419D01*
X121069847Y-145635419D02*
X121069847Y-145921133D01*
X121069847Y-145921133D02*
X121022228Y-146016371D01*
X121022228Y-146016371D02*
X120974608Y-146063990D01*
D15*
X125975980Y-156876109D02*
X126975980Y-156876109D01*
X126023599Y-156876109D02*
X125975980Y-156780871D01*
X125975980Y-156780871D02*
X125975980Y-156590395D01*
X125975980Y-156590395D02*
X126023599Y-156495157D01*
X126023599Y-156495157D02*
X126071218Y-156447538D01*
X126071218Y-156447538D02*
X126166456Y-156399919D01*
X126166456Y-156399919D02*
X126452170Y-156399919D01*
X126452170Y-156399919D02*
X126547408Y-156447538D01*
X126547408Y-156447538D02*
X126595028Y-156495157D01*
X126595028Y-156495157D02*
X126642647Y-156590395D01*
X126642647Y-156590395D02*
X126642647Y-156780871D01*
X126642647Y-156780871D02*
X126595028Y-156876109D01*
X125975980Y-156066585D02*
X126642647Y-155876109D01*
X126642647Y-155876109D02*
X126166456Y-155685633D01*
X126166456Y-155685633D02*
X126642647Y-155495157D01*
X126642647Y-155495157D02*
X125975980Y-155304681D01*
X126642647Y-154923728D02*
X125975980Y-154923728D01*
X126166456Y-154923728D02*
X126071218Y-154876109D01*
X126071218Y-154876109D02*
X126023599Y-154828490D01*
X126023599Y-154828490D02*
X125975980Y-154733252D01*
X125975980Y-154733252D02*
X125975980Y-154638014D01*
X142652647Y-150644681D02*
X142176456Y-150978014D01*
X142652647Y-151216109D02*
X141652647Y-151216109D01*
X141652647Y-151216109D02*
X141652647Y-150835157D01*
X141652647Y-150835157D02*
X141700266Y-150739919D01*
X141700266Y-150739919D02*
X141747885Y-150692300D01*
X141747885Y-150692300D02*
X141843123Y-150644681D01*
X141843123Y-150644681D02*
X141985980Y-150644681D01*
X141985980Y-150644681D02*
X142081218Y-150692300D01*
X142081218Y-150692300D02*
X142128837Y-150739919D01*
X142128837Y-150739919D02*
X142176456Y-150835157D01*
X142176456Y-150835157D02*
X142176456Y-151216109D01*
X142652647Y-149787538D02*
X142128837Y-149787538D01*
X142128837Y-149787538D02*
X142033599Y-149835157D01*
X142033599Y-149835157D02*
X141985980Y-149930395D01*
X141985980Y-149930395D02*
X141985980Y-150120871D01*
X141985980Y-150120871D02*
X142033599Y-150216109D01*
X142605028Y-149787538D02*
X142652647Y-149882776D01*
X142652647Y-149882776D02*
X142652647Y-150120871D01*
X142652647Y-150120871D02*
X142605028Y-150216109D01*
X142605028Y-150216109D02*
X142509789Y-150263728D01*
X142509789Y-150263728D02*
X142414551Y-150263728D01*
X142414551Y-150263728D02*
X142319313Y-150216109D01*
X142319313Y-150216109D02*
X142271694Y-150120871D01*
X142271694Y-150120871D02*
X142271694Y-149882776D01*
X142271694Y-149882776D02*
X142224075Y-149787538D01*
X142605028Y-149358966D02*
X142652647Y-149263728D01*
X142652647Y-149263728D02*
X142652647Y-149073252D01*
X142652647Y-149073252D02*
X142605028Y-148978014D01*
X142605028Y-148978014D02*
X142509789Y-148930395D01*
X142509789Y-148930395D02*
X142462170Y-148930395D01*
X142462170Y-148930395D02*
X142366932Y-148978014D01*
X142366932Y-148978014D02*
X142319313Y-149073252D01*
X142319313Y-149073252D02*
X142319313Y-149216109D01*
X142319313Y-149216109D02*
X142271694Y-149311347D01*
X142271694Y-149311347D02*
X142176456Y-149358966D01*
X142176456Y-149358966D02*
X142128837Y-149358966D01*
X142128837Y-149358966D02*
X142033599Y-149311347D01*
X142033599Y-149311347D02*
X141985980Y-149216109D01*
X141985980Y-149216109D02*
X141985980Y-149073252D01*
X141985980Y-149073252D02*
X142033599Y-148978014D01*
X141985980Y-148501823D02*
X142985980Y-148501823D01*
X142033599Y-148501823D02*
X141985980Y-148406585D01*
X141985980Y-148406585D02*
X141985980Y-148216109D01*
X141985980Y-148216109D02*
X142033599Y-148120871D01*
X142033599Y-148120871D02*
X142081218Y-148073252D01*
X142081218Y-148073252D02*
X142176456Y-148025633D01*
X142176456Y-148025633D02*
X142462170Y-148025633D01*
X142462170Y-148025633D02*
X142557408Y-148073252D01*
X142557408Y-148073252D02*
X142605028Y-148120871D01*
X142605028Y-148120871D02*
X142652647Y-148216109D01*
X142652647Y-148216109D02*
X142652647Y-148406585D01*
X142652647Y-148406585D02*
X142605028Y-148501823D01*
X142652647Y-147597061D02*
X141652647Y-147597061D01*
X142033599Y-147597061D02*
X141985980Y-147501823D01*
X141985980Y-147501823D02*
X141985980Y-147311347D01*
X141985980Y-147311347D02*
X142033599Y-147216109D01*
X142033599Y-147216109D02*
X142081218Y-147168490D01*
X142081218Y-147168490D02*
X142176456Y-147120871D01*
X142176456Y-147120871D02*
X142462170Y-147120871D01*
X142462170Y-147120871D02*
X142557408Y-147168490D01*
X142557408Y-147168490D02*
X142605028Y-147216109D01*
X142605028Y-147216109D02*
X142652647Y-147311347D01*
X142652647Y-147311347D02*
X142652647Y-147501823D01*
X142652647Y-147501823D02*
X142605028Y-147597061D01*
X142605028Y-146311347D02*
X142652647Y-146406585D01*
X142652647Y-146406585D02*
X142652647Y-146597061D01*
X142652647Y-146597061D02*
X142605028Y-146692299D01*
X142605028Y-146692299D02*
X142509789Y-146739918D01*
X142509789Y-146739918D02*
X142128837Y-146739918D01*
X142128837Y-146739918D02*
X142033599Y-146692299D01*
X142033599Y-146692299D02*
X141985980Y-146597061D01*
X141985980Y-146597061D02*
X141985980Y-146406585D01*
X141985980Y-146406585D02*
X142033599Y-146311347D01*
X142033599Y-146311347D02*
X142128837Y-146263728D01*
X142128837Y-146263728D02*
X142224075Y-146263728D01*
X142224075Y-146263728D02*
X142319313Y-146739918D01*
X142652647Y-145835156D02*
X141985980Y-145835156D01*
X142176456Y-145835156D02*
X142081218Y-145787537D01*
X142081218Y-145787537D02*
X142033599Y-145739918D01*
X142033599Y-145739918D02*
X141985980Y-145644680D01*
X141985980Y-145644680D02*
X141985980Y-145549442D01*
X142652647Y-145216108D02*
X141985980Y-145216108D01*
X142176456Y-145216108D02*
X142081218Y-145168489D01*
X142081218Y-145168489D02*
X142033599Y-145120870D01*
X142033599Y-145120870D02*
X141985980Y-145025632D01*
X141985980Y-145025632D02*
X141985980Y-144930394D01*
X141985980Y-144692298D02*
X142652647Y-144454203D01*
X141985980Y-144216108D02*
X142652647Y-144454203D01*
X142652647Y-144454203D02*
X142890742Y-144549441D01*
X142890742Y-144549441D02*
X142938361Y-144597060D01*
X142938361Y-144597060D02*
X142985980Y-144692298D01*
X142652647Y-143073250D02*
X141652647Y-143073250D01*
X141652647Y-143073250D02*
X141652647Y-142692298D01*
X141652647Y-142692298D02*
X141700266Y-142597060D01*
X141700266Y-142597060D02*
X141747885Y-142549441D01*
X141747885Y-142549441D02*
X141843123Y-142501822D01*
X141843123Y-142501822D02*
X141985980Y-142501822D01*
X141985980Y-142501822D02*
X142081218Y-142549441D01*
X142081218Y-142549441D02*
X142128837Y-142597060D01*
X142128837Y-142597060D02*
X142176456Y-142692298D01*
X142176456Y-142692298D02*
X142176456Y-143073250D01*
X142652647Y-142073250D02*
X141985980Y-142073250D01*
X141652647Y-142073250D02*
X141700266Y-142120869D01*
X141700266Y-142120869D02*
X141747885Y-142073250D01*
X141747885Y-142073250D02*
X141700266Y-142025631D01*
X141700266Y-142025631D02*
X141652647Y-142073250D01*
X141652647Y-142073250D02*
X141747885Y-142073250D01*
X142652647Y-140835155D02*
X141652647Y-140835155D01*
X141652647Y-140835155D02*
X141652647Y-140454203D01*
X141652647Y-140454203D02*
X141700266Y-140358965D01*
X141700266Y-140358965D02*
X141747885Y-140311346D01*
X141747885Y-140311346D02*
X141843123Y-140263727D01*
X141843123Y-140263727D02*
X141985980Y-140263727D01*
X141985980Y-140263727D02*
X142081218Y-140311346D01*
X142081218Y-140311346D02*
X142128837Y-140358965D01*
X142128837Y-140358965D02*
X142176456Y-140454203D01*
X142176456Y-140454203D02*
X142176456Y-140835155D01*
X142652647Y-139835155D02*
X141985980Y-139835155D01*
X141652647Y-139835155D02*
X141700266Y-139882774D01*
X141700266Y-139882774D02*
X141747885Y-139835155D01*
X141747885Y-139835155D02*
X141700266Y-139787536D01*
X141700266Y-139787536D02*
X141652647Y-139835155D01*
X141652647Y-139835155D02*
X141747885Y-139835155D01*
X142605028Y-138930394D02*
X142652647Y-139025632D01*
X142652647Y-139025632D02*
X142652647Y-139216108D01*
X142652647Y-139216108D02*
X142605028Y-139311346D01*
X142605028Y-139311346D02*
X142557408Y-139358965D01*
X142557408Y-139358965D02*
X142462170Y-139406584D01*
X142462170Y-139406584D02*
X142176456Y-139406584D01*
X142176456Y-139406584D02*
X142081218Y-139358965D01*
X142081218Y-139358965D02*
X142033599Y-139311346D01*
X142033599Y-139311346D02*
X141985980Y-139216108D01*
X141985980Y-139216108D02*
X141985980Y-139025632D01*
X141985980Y-139025632D02*
X142033599Y-138930394D01*
X142652647Y-138358965D02*
X142605028Y-138454203D01*
X142605028Y-138454203D02*
X142557408Y-138501822D01*
X142557408Y-138501822D02*
X142462170Y-138549441D01*
X142462170Y-138549441D02*
X142176456Y-138549441D01*
X142176456Y-138549441D02*
X142081218Y-138501822D01*
X142081218Y-138501822D02*
X142033599Y-138454203D01*
X142033599Y-138454203D02*
X141985980Y-138358965D01*
X141985980Y-138358965D02*
X141985980Y-138216108D01*
X141985980Y-138216108D02*
X142033599Y-138120870D01*
X142033599Y-138120870D02*
X142081218Y-138073251D01*
X142081218Y-138073251D02*
X142176456Y-138025632D01*
X142176456Y-138025632D02*
X142462170Y-138025632D01*
X142462170Y-138025632D02*
X142557408Y-138073251D01*
X142557408Y-138073251D02*
X142605028Y-138120870D01*
X142605028Y-138120870D02*
X142652647Y-138216108D01*
X142652647Y-138216108D02*
X142652647Y-138358965D01*
X141652647Y-136930393D02*
X142652647Y-136692298D01*
X142652647Y-136692298D02*
X141938361Y-136501822D01*
X141938361Y-136501822D02*
X142652647Y-136311346D01*
X142652647Y-136311346D02*
X141652647Y-136073251D01*
D17*
X124255728Y-155734279D02*
X124255728Y-154591422D01*
X124827156Y-155162850D02*
X123684299Y-155162850D01*
X124255728Y-150448565D02*
X124255728Y-149305708D01*
D16*
X115047238Y-98173622D02*
X114999619Y-98268860D01*
X114999619Y-98268860D02*
X114999619Y-98411717D01*
X114999619Y-98411717D02*
X115047238Y-98554574D01*
X115047238Y-98554574D02*
X115142476Y-98649812D01*
X115142476Y-98649812D02*
X115237714Y-98697431D01*
X115237714Y-98697431D02*
X115428190Y-98745050D01*
X115428190Y-98745050D02*
X115571047Y-98745050D01*
X115571047Y-98745050D02*
X115761523Y-98697431D01*
X115761523Y-98697431D02*
X115856761Y-98649812D01*
X115856761Y-98649812D02*
X115952000Y-98554574D01*
X115952000Y-98554574D02*
X115999619Y-98411717D01*
X115999619Y-98411717D02*
X115999619Y-98316479D01*
X115999619Y-98316479D02*
X115952000Y-98173622D01*
X115952000Y-98173622D02*
X115904380Y-98126003D01*
X115904380Y-98126003D02*
X115571047Y-98126003D01*
X115571047Y-98126003D02*
X115571047Y-98316479D01*
X115999619Y-97697431D02*
X114999619Y-97697431D01*
X114999619Y-97697431D02*
X115999619Y-97126003D01*
X115999619Y-97126003D02*
X114999619Y-97126003D01*
X115999619Y-96649812D02*
X114999619Y-96649812D01*
X114999619Y-96649812D02*
X114999619Y-96411717D01*
X114999619Y-96411717D02*
X115047238Y-96268860D01*
X115047238Y-96268860D02*
X115142476Y-96173622D01*
X115142476Y-96173622D02*
X115237714Y-96126003D01*
X115237714Y-96126003D02*
X115428190Y-96078384D01*
X115428190Y-96078384D02*
X115571047Y-96078384D01*
X115571047Y-96078384D02*
X115761523Y-96126003D01*
X115761523Y-96126003D02*
X115856761Y-96173622D01*
X115856761Y-96173622D02*
X115952000Y-96268860D01*
X115952000Y-96268860D02*
X115999619Y-96411717D01*
X115999619Y-96411717D02*
X115999619Y-96649812D01*
X129152897Y-134667946D02*
X129152897Y-135667946D01*
X129152897Y-134715565D02*
X129248135Y-134667946D01*
X129248135Y-134667946D02*
X129438611Y-134667946D01*
X129438611Y-134667946D02*
X129533849Y-134715565D01*
X129533849Y-134715565D02*
X129581468Y-134763184D01*
X129581468Y-134763184D02*
X129629087Y-134858422D01*
X129629087Y-134858422D02*
X129629087Y-135144136D01*
X129629087Y-135144136D02*
X129581468Y-135239374D01*
X129581468Y-135239374D02*
X129533849Y-135286994D01*
X129533849Y-135286994D02*
X129438611Y-135334613D01*
X129438611Y-135334613D02*
X129248135Y-135334613D01*
X129248135Y-135334613D02*
X129152897Y-135286994D01*
X130200516Y-135334613D02*
X130105278Y-135286994D01*
X130105278Y-135286994D02*
X130057659Y-135239374D01*
X130057659Y-135239374D02*
X130010040Y-135144136D01*
X130010040Y-135144136D02*
X130010040Y-134858422D01*
X130010040Y-134858422D02*
X130057659Y-134763184D01*
X130057659Y-134763184D02*
X130105278Y-134715565D01*
X130105278Y-134715565D02*
X130200516Y-134667946D01*
X130200516Y-134667946D02*
X130343373Y-134667946D01*
X130343373Y-134667946D02*
X130438611Y-134715565D01*
X130438611Y-134715565D02*
X130486230Y-134763184D01*
X130486230Y-134763184D02*
X130533849Y-134858422D01*
X130533849Y-134858422D02*
X130533849Y-135144136D01*
X130533849Y-135144136D02*
X130486230Y-135239374D01*
X130486230Y-135239374D02*
X130438611Y-135286994D01*
X130438611Y-135286994D02*
X130343373Y-135334613D01*
X130343373Y-135334613D02*
X130200516Y-135334613D01*
X130819564Y-134667946D02*
X131200516Y-134667946D01*
X130962421Y-134334613D02*
X130962421Y-135191755D01*
X130962421Y-135191755D02*
X131010040Y-135286994D01*
X131010040Y-135286994D02*
X131105278Y-135334613D01*
X131105278Y-135334613D02*
X131200516Y-135334613D01*
D15*
X158402647Y-154446184D02*
X157735980Y-154446184D01*
X157926456Y-154446184D02*
X157831218Y-154398565D01*
X157831218Y-154398565D02*
X157783599Y-154350946D01*
X157783599Y-154350946D02*
X157735980Y-154255708D01*
X157735980Y-154255708D02*
X157735980Y-154160470D01*
X158402647Y-153922374D02*
X157735980Y-153398565D01*
X157735980Y-153922374D02*
X158402647Y-153398565D01*
D16*
X117529847Y-146349705D02*
X117529847Y-146825895D01*
X117529847Y-146825895D02*
X118006037Y-146873514D01*
X118006037Y-146873514D02*
X117958418Y-146825895D01*
X117958418Y-146825895D02*
X117910799Y-146730657D01*
X117910799Y-146730657D02*
X117910799Y-146492562D01*
X117910799Y-146492562D02*
X117958418Y-146397324D01*
X117958418Y-146397324D02*
X118006037Y-146349705D01*
X118006037Y-146349705D02*
X118101275Y-146302086D01*
X118101275Y-146302086D02*
X118339370Y-146302086D01*
X118339370Y-146302086D02*
X118434608Y-146349705D01*
X118434608Y-146349705D02*
X118482228Y-146397324D01*
X118482228Y-146397324D02*
X118529847Y-146492562D01*
X118529847Y-146492562D02*
X118529847Y-146730657D01*
X118529847Y-146730657D02*
X118482228Y-146825895D01*
X118482228Y-146825895D02*
X118434608Y-146873514D01*
X117529847Y-146016371D02*
X118529847Y-145683038D01*
X118529847Y-145683038D02*
X117529847Y-145349705D01*
D17*
X122177156Y-152705707D02*
X122177156Y-153419993D01*
X122177156Y-153419993D02*
X122891442Y-153491421D01*
X122891442Y-153491421D02*
X122820013Y-153419993D01*
X122820013Y-153419993D02*
X122748585Y-153277136D01*
X122748585Y-153277136D02*
X122748585Y-152919993D01*
X122748585Y-152919993D02*
X122820013Y-152777136D01*
X122820013Y-152777136D02*
X122891442Y-152705707D01*
X122891442Y-152705707D02*
X123034299Y-152634278D01*
X123034299Y-152634278D02*
X123391442Y-152634278D01*
X123391442Y-152634278D02*
X123534299Y-152705707D01*
X123534299Y-152705707D02*
X123605728Y-152777136D01*
X123605728Y-152777136D02*
X123677156Y-152919993D01*
X123677156Y-152919993D02*
X123677156Y-153277136D01*
X123677156Y-153277136D02*
X123605728Y-153419993D01*
X123605728Y-153419993D02*
X123534299Y-153491421D01*
X122177156Y-152205707D02*
X123677156Y-151705707D01*
X123677156Y-151705707D02*
X122177156Y-151205707D01*
D16*
X115037466Y-147540181D02*
X114989847Y-147635419D01*
X114989847Y-147635419D02*
X114989847Y-147778276D01*
X114989847Y-147778276D02*
X115037466Y-147921133D01*
X115037466Y-147921133D02*
X115132704Y-148016371D01*
X115132704Y-148016371D02*
X115227942Y-148063990D01*
X115227942Y-148063990D02*
X115418418Y-148111609D01*
X115418418Y-148111609D02*
X115561275Y-148111609D01*
X115561275Y-148111609D02*
X115751751Y-148063990D01*
X115751751Y-148063990D02*
X115846989Y-148016371D01*
X115846989Y-148016371D02*
X115942228Y-147921133D01*
X115942228Y-147921133D02*
X115989847Y-147778276D01*
X115989847Y-147778276D02*
X115989847Y-147683038D01*
X115989847Y-147683038D02*
X115942228Y-147540181D01*
X115942228Y-147540181D02*
X115894608Y-147492562D01*
X115894608Y-147492562D02*
X115561275Y-147492562D01*
X115561275Y-147492562D02*
X115561275Y-147683038D01*
X115989847Y-147063990D02*
X114989847Y-147063990D01*
X114989847Y-147063990D02*
X115989847Y-146492562D01*
X115989847Y-146492562D02*
X114989847Y-146492562D01*
X115989847Y-146016371D02*
X114989847Y-146016371D01*
X114989847Y-146016371D02*
X114989847Y-145778276D01*
X114989847Y-145778276D02*
X115037466Y-145635419D01*
X115037466Y-145635419D02*
X115132704Y-145540181D01*
X115132704Y-145540181D02*
X115227942Y-145492562D01*
X115227942Y-145492562D02*
X115418418Y-145444943D01*
X115418418Y-145444943D02*
X115561275Y-145444943D01*
X115561275Y-145444943D02*
X115751751Y-145492562D01*
X115751751Y-145492562D02*
X115846989Y-145540181D01*
X115846989Y-145540181D02*
X115942228Y-145635419D01*
X115942228Y-145635419D02*
X115989847Y-145778276D01*
X115989847Y-145778276D02*
X115989847Y-146016371D01*
D18*
X153119761Y-103755833D02*
X153119761Y-103146310D01*
X153424523Y-103451071D02*
X152814999Y-103451071D01*
X152624523Y-102422500D02*
X152624523Y-102574881D01*
X152624523Y-102574881D02*
X152662618Y-102651072D01*
X152662618Y-102651072D02*
X152700713Y-102689167D01*
X152700713Y-102689167D02*
X152814999Y-102765357D01*
X152814999Y-102765357D02*
X152967380Y-102803453D01*
X152967380Y-102803453D02*
X153272142Y-102803453D01*
X153272142Y-102803453D02*
X153348332Y-102765357D01*
X153348332Y-102765357D02*
X153386428Y-102727262D01*
X153386428Y-102727262D02*
X153424523Y-102651072D01*
X153424523Y-102651072D02*
X153424523Y-102498691D01*
X153424523Y-102498691D02*
X153386428Y-102422500D01*
X153386428Y-102422500D02*
X153348332Y-102384405D01*
X153348332Y-102384405D02*
X153272142Y-102346310D01*
X153272142Y-102346310D02*
X153081666Y-102346310D01*
X153081666Y-102346310D02*
X153005475Y-102384405D01*
X153005475Y-102384405D02*
X152967380Y-102422500D01*
X152967380Y-102422500D02*
X152929285Y-102498691D01*
X152929285Y-102498691D02*
X152929285Y-102651072D01*
X152929285Y-102651072D02*
X152967380Y-102727262D01*
X152967380Y-102727262D02*
X153005475Y-102765357D01*
X153005475Y-102765357D02*
X153081666Y-102803453D01*
X153424523Y-101660595D02*
X152624523Y-101660595D01*
X153386428Y-101660595D02*
X153424523Y-101736786D01*
X153424523Y-101736786D02*
X153424523Y-101889167D01*
X153424523Y-101889167D02*
X153386428Y-101965357D01*
X153386428Y-101965357D02*
X153348332Y-102003452D01*
X153348332Y-102003452D02*
X153272142Y-102041548D01*
X153272142Y-102041548D02*
X153043570Y-102041548D01*
X153043570Y-102041548D02*
X152967380Y-102003452D01*
X152967380Y-102003452D02*
X152929285Y-101965357D01*
X152929285Y-101965357D02*
X152891189Y-101889167D01*
X152891189Y-101889167D02*
X152891189Y-101736786D01*
X152891189Y-101736786D02*
X152929285Y-101660595D01*
X153005475Y-101012976D02*
X153043570Y-100898690D01*
X153043570Y-100898690D02*
X153081666Y-100860595D01*
X153081666Y-100860595D02*
X153157856Y-100822499D01*
X153157856Y-100822499D02*
X153272142Y-100822499D01*
X153272142Y-100822499D02*
X153348332Y-100860595D01*
X153348332Y-100860595D02*
X153386428Y-100898690D01*
X153386428Y-100898690D02*
X153424523Y-100974880D01*
X153424523Y-100974880D02*
X153424523Y-101279642D01*
X153424523Y-101279642D02*
X152624523Y-101279642D01*
X152624523Y-101279642D02*
X152624523Y-101012976D01*
X152624523Y-101012976D02*
X152662618Y-100936785D01*
X152662618Y-100936785D02*
X152700713Y-100898690D01*
X152700713Y-100898690D02*
X152776904Y-100860595D01*
X152776904Y-100860595D02*
X152853094Y-100860595D01*
X152853094Y-100860595D02*
X152929285Y-100898690D01*
X152929285Y-100898690D02*
X152967380Y-100936785D01*
X152967380Y-100936785D02*
X153005475Y-101012976D01*
X153005475Y-101012976D02*
X153005475Y-101279642D01*
D15*
X128032647Y-148116109D02*
X127032647Y-148116109D01*
X127032647Y-148116109D02*
X127746932Y-147782776D01*
X127746932Y-147782776D02*
X127032647Y-147449443D01*
X127032647Y-147449443D02*
X128032647Y-147449443D01*
X128032647Y-146973252D02*
X127032647Y-146973252D01*
X128032647Y-146497062D02*
X127032647Y-146497062D01*
X127032647Y-146497062D02*
X127032647Y-146258967D01*
X127032647Y-146258967D02*
X127080266Y-146116110D01*
X127080266Y-146116110D02*
X127175504Y-146020872D01*
X127175504Y-146020872D02*
X127270742Y-145973253D01*
X127270742Y-145973253D02*
X127461218Y-145925634D01*
X127461218Y-145925634D02*
X127604075Y-145925634D01*
X127604075Y-145925634D02*
X127794551Y-145973253D01*
X127794551Y-145973253D02*
X127889789Y-146020872D01*
X127889789Y-146020872D02*
X127985028Y-146116110D01*
X127985028Y-146116110D02*
X128032647Y-146258967D01*
X128032647Y-146258967D02*
X128032647Y-146497062D01*
X128032647Y-145497062D02*
X127032647Y-145497062D01*
X158035980Y-157115231D02*
X158035980Y-156734279D01*
X157702647Y-156972374D02*
X158559789Y-156972374D01*
X158559789Y-156972374D02*
X158655028Y-156924755D01*
X158655028Y-156924755D02*
X158702647Y-156829517D01*
X158702647Y-156829517D02*
X158702647Y-156734279D01*
X158702647Y-156496183D02*
X158035980Y-155972374D01*
X158035980Y-156496183D02*
X158702647Y-155972374D01*
D16*
X120079619Y-98792669D02*
X120079619Y-98173622D01*
X120079619Y-98173622D02*
X120460571Y-98506955D01*
X120460571Y-98506955D02*
X120460571Y-98364098D01*
X120460571Y-98364098D02*
X120508190Y-98268860D01*
X120508190Y-98268860D02*
X120555809Y-98221241D01*
X120555809Y-98221241D02*
X120651047Y-98173622D01*
X120651047Y-98173622D02*
X120889142Y-98173622D01*
X120889142Y-98173622D02*
X120984380Y-98221241D01*
X120984380Y-98221241D02*
X121032000Y-98268860D01*
X121032000Y-98268860D02*
X121079619Y-98364098D01*
X121079619Y-98364098D02*
X121079619Y-98649812D01*
X121079619Y-98649812D02*
X121032000Y-98745050D01*
X121032000Y-98745050D02*
X120984380Y-98792669D01*
X120079619Y-97887907D02*
X121079619Y-97554574D01*
X121079619Y-97554574D02*
X120079619Y-97221241D01*
X120079619Y-96983145D02*
X120079619Y-96364098D01*
X120079619Y-96364098D02*
X120460571Y-96697431D01*
X120460571Y-96697431D02*
X120460571Y-96554574D01*
X120460571Y-96554574D02*
X120508190Y-96459336D01*
X120508190Y-96459336D02*
X120555809Y-96411717D01*
X120555809Y-96411717D02*
X120651047Y-96364098D01*
X120651047Y-96364098D02*
X120889142Y-96364098D01*
X120889142Y-96364098D02*
X120984380Y-96411717D01*
X120984380Y-96411717D02*
X121032000Y-96459336D01*
X121032000Y-96459336D02*
X121079619Y-96554574D01*
X121079619Y-96554574D02*
X121079619Y-96840288D01*
X121079619Y-96840288D02*
X121032000Y-96935526D01*
X121032000Y-96935526D02*
X120984380Y-96983145D01*
D15*
X120698146Y-64334778D02*
X120041022Y-65158974D01*
X120041022Y-65158974D02*
X121061239Y-64893892D01*
X120677468Y-66051583D02*
X120585661Y-65997645D01*
X120585661Y-65997645D02*
X120481920Y-65837898D01*
X120481920Y-65837898D02*
X120469986Y-65732090D01*
X120469986Y-65732090D02*
X120483988Y-65666218D01*
X120483988Y-65666218D02*
X120537926Y-65574411D01*
X120537926Y-65574411D02*
X120777546Y-65418800D01*
X120777546Y-65418800D02*
X120883355Y-65406866D01*
X120883355Y-65406866D02*
X120949227Y-65420867D01*
X120949227Y-65420867D02*
X121041034Y-65474806D01*
X121041034Y-65474806D02*
X121144774Y-65634552D01*
X121144774Y-65634552D02*
X121156708Y-65740361D01*
X121144301Y-66770444D02*
X121052494Y-66716506D01*
X121052494Y-66716506D02*
X120948753Y-66556759D01*
X120948753Y-66556759D02*
X120936820Y-66450950D01*
X120936820Y-66450950D02*
X120950821Y-66385078D01*
X120950821Y-66385078D02*
X121004759Y-66293271D01*
X121004759Y-66293271D02*
X121244380Y-66137660D01*
X121244380Y-66137660D02*
X121350188Y-66125726D01*
X121350188Y-66125726D02*
X121416060Y-66139728D01*
X121416060Y-66139728D02*
X121507867Y-66193666D01*
X121507867Y-66193666D02*
X121611608Y-66353413D01*
X121611608Y-66353413D02*
X121623542Y-66459221D01*
X124211728Y-62166589D02*
X124249597Y-62312334D01*
X124249597Y-62312334D02*
X124379273Y-62512017D01*
X124379273Y-62512017D02*
X124471080Y-62565956D01*
X124471080Y-62565956D02*
X124536952Y-62579957D01*
X124536952Y-62579957D02*
X124642761Y-62568023D01*
X124642761Y-62568023D02*
X124722634Y-62516153D01*
X124722634Y-62516153D02*
X124776572Y-62424346D01*
X124776572Y-62424346D02*
X124790574Y-62358474D01*
X124790574Y-62358474D02*
X124778640Y-62252665D01*
X124778640Y-62252665D02*
X124714836Y-62066984D01*
X124714836Y-62066984D02*
X124702902Y-61961175D01*
X124702902Y-61961175D02*
X124716904Y-61895303D01*
X124716904Y-61895303D02*
X124770842Y-61803496D01*
X124770842Y-61803496D02*
X124850715Y-61751626D01*
X124850715Y-61751626D02*
X124956524Y-61739692D01*
X124956524Y-61739692D02*
X125022396Y-61753693D01*
X125022396Y-61753693D02*
X125114203Y-61807632D01*
X125114203Y-61807632D02*
X125243879Y-62007315D01*
X125243879Y-62007315D02*
X125281748Y-62153060D01*
X124716431Y-63031194D02*
X125555101Y-62486555D01*
X125555101Y-62486555D02*
X125684777Y-62686239D01*
X125684777Y-62686239D02*
X125722646Y-62831984D01*
X125722646Y-62831984D02*
X125694643Y-62963728D01*
X125694643Y-62963728D02*
X125640705Y-63055535D01*
X125640705Y-63055535D02*
X125506893Y-63199212D01*
X125506893Y-63199212D02*
X125387083Y-63277018D01*
X125387083Y-63277018D02*
X125201401Y-63340822D01*
X125201401Y-63340822D02*
X125095593Y-63352756D01*
X125095593Y-63352756D02*
X124963849Y-63324753D01*
X124963849Y-63324753D02*
X124846107Y-63230878D01*
X124846107Y-63230878D02*
X124716431Y-63031194D01*
X125474755Y-63674317D02*
X125734107Y-64073684D01*
X125183264Y-63750055D02*
X126203481Y-63484973D01*
X126203481Y-63484973D02*
X125546357Y-64309169D01*
X122081505Y-63549972D02*
X122119374Y-63695717D01*
X122119374Y-63695717D02*
X122249050Y-63895400D01*
X122249050Y-63895400D02*
X122340857Y-63949339D01*
X122340857Y-63949339D02*
X122406729Y-63963340D01*
X122406729Y-63963340D02*
X122512538Y-63951406D01*
X122512538Y-63951406D02*
X122592411Y-63899536D01*
X122592411Y-63899536D02*
X122646349Y-63807729D01*
X122646349Y-63807729D02*
X122660351Y-63741857D01*
X122660351Y-63741857D02*
X122648417Y-63636048D01*
X122648417Y-63636048D02*
X122584613Y-63450367D01*
X122584613Y-63450367D02*
X122572679Y-63344558D01*
X122572679Y-63344558D02*
X122586681Y-63278686D01*
X122586681Y-63278686D02*
X122640619Y-63186879D01*
X122640619Y-63186879D02*
X122720492Y-63135009D01*
X122720492Y-63135009D02*
X122826301Y-63123075D01*
X122826301Y-63123075D02*
X122892173Y-63137076D01*
X122892173Y-63137076D02*
X122983980Y-63191015D01*
X122983980Y-63191015D02*
X123113656Y-63390698D01*
X123113656Y-63390698D02*
X123151525Y-63536443D01*
X122977303Y-64841947D02*
X122911432Y-64827946D01*
X122911432Y-64827946D02*
X122793689Y-64734071D01*
X122793689Y-64734071D02*
X122741819Y-64654198D01*
X122741819Y-64654198D02*
X122703950Y-64508452D01*
X122703950Y-64508452D02*
X122731953Y-64376709D01*
X122731953Y-64376709D02*
X122785891Y-64284901D01*
X122785891Y-64284901D02*
X122919703Y-64141224D01*
X122919703Y-64141224D02*
X123039513Y-64063418D01*
X123039513Y-64063418D02*
X123225195Y-63999614D01*
X123225195Y-63999614D02*
X123331003Y-63987681D01*
X123331003Y-63987681D02*
X123462747Y-64015684D01*
X123462747Y-64015684D02*
X123580489Y-64109559D01*
X123580489Y-64109559D02*
X123632360Y-64189432D01*
X123632360Y-64189432D02*
X123670229Y-64335177D01*
X123670229Y-64335177D02*
X123656227Y-64401049D01*
X123130847Y-65253248D02*
X123969517Y-64708609D01*
X123442069Y-65732488D02*
X123687893Y-65061836D01*
X124280740Y-65187849D02*
X123490277Y-65019831D01*
X118891079Y-66303210D02*
X118879145Y-66197402D01*
X118879145Y-66197402D02*
X118801340Y-66077592D01*
X118801340Y-66077592D02*
X118683597Y-65983717D01*
X118683597Y-65983717D02*
X118551854Y-65955714D01*
X118551854Y-65955714D02*
X118446045Y-65967647D01*
X118446045Y-65967647D02*
X118260363Y-66031452D01*
X118260363Y-66031452D02*
X118140553Y-66109257D01*
X118140553Y-66109257D02*
X118006741Y-66252935D01*
X118006741Y-66252935D02*
X117952803Y-66344742D01*
X117952803Y-66344742D02*
X117924800Y-66476485D01*
X117924800Y-66476485D02*
X117962669Y-66622231D01*
X117962669Y-66622231D02*
X118014539Y-66702104D01*
X118014539Y-66702104D02*
X118132282Y-66795979D01*
X118132282Y-66795979D02*
X118198154Y-66809980D01*
X118198154Y-66809980D02*
X118477710Y-66628434D01*
X118477710Y-66628434D02*
X118373970Y-66468687D01*
X118351697Y-67221281D02*
X119190367Y-66676642D01*
X119190367Y-66676642D02*
X118662919Y-67700521D01*
X118662919Y-67700521D02*
X119501590Y-67155882D01*
X118922271Y-68099888D02*
X119760942Y-67555249D01*
X119760942Y-67555249D02*
X119890618Y-67754933D01*
X119890618Y-67754933D02*
X119928486Y-67900678D01*
X119928486Y-67900678D02*
X119900483Y-68032422D01*
X119900483Y-68032422D02*
X119846545Y-68124229D01*
X119846545Y-68124229D02*
X119712734Y-68267906D01*
X119712734Y-68267906D02*
X119592924Y-68345712D01*
X119592924Y-68345712D02*
X119407242Y-68409516D01*
X119407242Y-68409516D02*
X119301433Y-68421450D01*
X119301433Y-68421450D02*
X119169689Y-68393447D01*
X119169689Y-68393447D02*
X119051947Y-68299572D01*
X119051947Y-68299572D02*
X118922271Y-68099888D01*
D19*
%TO.C,R3*%
X155497486Y-101792494D02*
X155022970Y-101792494D01*
X155497486Y-100747494D02*
X155022970Y-100747494D01*
%TO.C,J7*%
X125320228Y-149359994D02*
X124070228Y-149359994D01*
X125020228Y-149659994D02*
X120300228Y-149659994D01*
X123710228Y-149659994D02*
X123710228Y-150269994D01*
X122410228Y-149659994D02*
X122410228Y-150269994D01*
X120300228Y-149659994D02*
X120300228Y-155779994D01*
X124410228Y-150269994D02*
X120910228Y-150269994D01*
X120910228Y-150269994D02*
X120910228Y-155169994D01*
X125320228Y-150609994D02*
X125320228Y-149359994D01*
X125220228Y-151119994D02*
X125020228Y-151119994D01*
X125220228Y-151419994D02*
X125220228Y-151119994D01*
X125120228Y-151419994D02*
X125120228Y-151119994D01*
X125020228Y-151419994D02*
X125220228Y-151419994D01*
X125020228Y-152219994D02*
X124410228Y-152219994D01*
X124410228Y-152219994D02*
X124410228Y-150269994D01*
X121410228Y-152619994D02*
X121410228Y-152819994D01*
X120910228Y-152619994D02*
X121410228Y-152619994D01*
X120910228Y-152719994D02*
X121410228Y-152719994D01*
X121410228Y-152819994D02*
X120910228Y-152819994D01*
X124410228Y-153219994D02*
X125020228Y-153219994D01*
X124410228Y-155169994D02*
X124410228Y-153219994D01*
X120910228Y-155169994D02*
X124410228Y-155169994D01*
X125020228Y-155779994D02*
X125020228Y-149659994D01*
X123710228Y-155779994D02*
X123710228Y-155169994D01*
X122410228Y-155779994D02*
X122410228Y-155169994D01*
X120300228Y-155779994D02*
X125020228Y-155779994D01*
%TO.C,C11*%
X166289970Y-95688781D02*
X166488781Y-95489970D01*
X167011219Y-96410030D02*
X167210030Y-96211219D01*
%TO.C,R1*%
X128482728Y-155932252D02*
X128482728Y-155457736D01*
X129527728Y-155932252D02*
X129527728Y-155457736D01*
%TO.C,C12*%
X164189970Y-97788781D02*
X164388781Y-97589970D01*
X164911219Y-98510030D02*
X165110030Y-98311219D01*
D15*
%TO.C,J2*%
X114054725Y-89665143D02*
X115513370Y-97937528D01*
X115513370Y-97937528D02*
X121717658Y-96843544D01*
X120033271Y-87290909D02*
X120259014Y-88571160D01*
X120259014Y-88571160D02*
X114054725Y-89665143D01*
X121717658Y-96843544D02*
X121943401Y-98123795D01*
X121943401Y-98123795D02*
X128541612Y-96960352D01*
X126631484Y-86127467D02*
X120033271Y-87290909D01*
X128541612Y-96960352D02*
X126631484Y-86127467D01*
D19*
%TO.C,R2*%
X128507728Y-149482736D02*
X128507728Y-149957252D01*
X129552728Y-149482736D02*
X129552728Y-149957252D01*
%TO.C,C9*%
X152820228Y-98179414D02*
X152820228Y-98460574D01*
X153840228Y-98179414D02*
X153840228Y-98460574D01*
%TO.C,C7*%
X123074253Y-83614010D02*
X122973495Y-83351525D01*
X124026505Y-83248475D02*
X123925747Y-82985990D01*
%TO.C,J6*%
X164419096Y-102000000D02*
X165359548Y-101059548D01*
X165359548Y-102940452D02*
X164419096Y-102000000D01*
X166257574Y-100161522D02*
X171688154Y-94730942D01*
X168138478Y-102042426D02*
X166257574Y-100161522D01*
X168138478Y-102042426D02*
X173569058Y-96611846D01*
X173569058Y-96611846D02*
X171688154Y-94730942D01*
%TO.C,U3*%
X168474979Y-123140550D02*
X168068242Y-122227004D01*
X169772214Y-122562984D02*
X169365477Y-121649438D01*
X169419031Y-121253418D02*
X169163238Y-121367304D01*
X169049352Y-121111512D01*
X169419031Y-121253418D01*
G36*
X169419031Y-121253418D02*
G01*
X169163238Y-121367304D01*
X169049352Y-121111512D01*
X169419031Y-121253418D01*
G37*
%TO.C,C8*%
X158290000Y-152860574D02*
X158290000Y-152579414D01*
X159310000Y-152860574D02*
X159310000Y-152579414D01*
%TO.C,SW1*%
X127198228Y-126354994D02*
X127198228Y-130754994D01*
X128798228Y-126354994D02*
X128698228Y-126354994D01*
X128798228Y-130754994D02*
X128698228Y-130754994D01*
X130298228Y-130754994D02*
X130298228Y-126354994D01*
%TO.C,C2*%
X150570228Y-95460574D02*
X150570228Y-95179414D01*
X151590228Y-95460574D02*
X151590228Y-95179414D01*
%TO.C,RV1*%
X151640671Y-89804847D02*
X158669313Y-82776205D01*
X154373639Y-92537814D02*
X151640671Y-89804847D01*
X160295658Y-98459834D02*
X157562691Y-95726866D01*
X160295658Y-98459834D02*
X161426322Y-97329170D01*
X161402280Y-85509173D02*
X158669313Y-82776205D01*
X162658102Y-96097390D02*
X163194796Y-95560696D01*
X164425869Y-94329623D02*
X164962563Y-93792929D01*
X166192929Y-92562563D02*
X167324300Y-91431192D01*
X167324300Y-91431192D02*
X164591332Y-88698225D01*
%TO.C,C3*%
X128495228Y-152860574D02*
X128495228Y-152579414D01*
X129515228Y-152860574D02*
X129515228Y-152579414D01*
%TO.C,J3*%
X134050000Y-106237500D02*
X134350000Y-105637500D01*
X134350000Y-105637500D02*
X134650000Y-106237500D01*
X134650000Y-106237500D02*
X134050000Y-106237500D01*
%TO.C,C10*%
X124446518Y-83090485D02*
X124345760Y-82828000D01*
X125398770Y-82724950D02*
X125298012Y-82462465D01*
%TO.C,C5*%
X173439970Y-91138781D02*
X173638781Y-90939970D01*
X174161219Y-91860030D02*
X174360030Y-91661219D01*
%TO.C,D10*%
X126795228Y-148919994D02*
X126795228Y-151204994D01*
X126795228Y-151204994D02*
X128265228Y-151204994D01*
X128265228Y-151204994D02*
X128265228Y-148919994D01*
%TO.C,D9*%
X126770228Y-154894994D02*
X126770228Y-157179994D01*
X126770228Y-157179994D02*
X128240228Y-157179994D01*
X128240228Y-157179994D02*
X128240228Y-154894994D01*
%TO.C,U1*%
X131600228Y-109739994D02*
X131600228Y-109319994D01*
X131600228Y-112279994D02*
X131600228Y-111859994D01*
X131600228Y-114819994D02*
X131600228Y-114399994D01*
X131600228Y-117359994D02*
X131600228Y-116939994D01*
X131600228Y-119899994D02*
X131600228Y-119479994D01*
X131600228Y-122439994D02*
X131600228Y-122019994D01*
X131600228Y-124979994D02*
X131600228Y-124559994D01*
X131600228Y-127519994D02*
X131600228Y-127099994D01*
X131600228Y-130059994D02*
X131600228Y-129639994D01*
X131600228Y-132599994D02*
X131600228Y-132179994D01*
X131600228Y-135139994D02*
X131600228Y-134719994D01*
X131600228Y-137679994D02*
X131600228Y-137259994D01*
X131600228Y-140219994D02*
X131600228Y-139799994D01*
X131600228Y-142759994D02*
X131600228Y-142339994D01*
X131600228Y-145299994D02*
X131600228Y-144879994D01*
X131600228Y-147839994D02*
X131600228Y-147419994D01*
X131600228Y-150379994D02*
X131600228Y-149959994D01*
X131600228Y-152919994D02*
X131600228Y-152499994D01*
X131600228Y-155459994D02*
X131600228Y-155039994D01*
X131940228Y-107200057D02*
X131940228Y-106842994D01*
X131940228Y-109739994D02*
X131940228Y-109319994D01*
X131940228Y-112279994D02*
X131940228Y-111859994D01*
X131940228Y-114819994D02*
X131940228Y-114399994D01*
X131940228Y-117359994D02*
X131940228Y-116939994D01*
X131940228Y-119899994D02*
X131940228Y-119479994D01*
X131940228Y-122439994D02*
X131940228Y-122019994D01*
X131940228Y-124979994D02*
X131940228Y-124559994D01*
X131940228Y-127519994D02*
X131940228Y-127099994D01*
X131940228Y-130059994D02*
X131940228Y-129639994D01*
X131940228Y-132599994D02*
X131940228Y-132179994D01*
X131940228Y-135139994D02*
X131940228Y-134719994D01*
X131940228Y-137679994D02*
X131940228Y-137259994D01*
X131940228Y-140219994D02*
X131940228Y-139799994D01*
X131940228Y-142759994D02*
X131940228Y-142339994D01*
X131940228Y-145299994D02*
X131940228Y-144879994D01*
X131940228Y-147839994D02*
X131940228Y-147419994D01*
X131940228Y-150379994D02*
X131940228Y-149959994D01*
X131940228Y-152919994D02*
X131940228Y-152499994D01*
X131940228Y-155459994D02*
X131940228Y-155039994D01*
X131940228Y-157579931D02*
X131940228Y-157936994D01*
X132210228Y-157999994D02*
X134700228Y-157999994D01*
X134700228Y-107693514D02*
X134700228Y-106779994D01*
X134700228Y-110086474D02*
X134700228Y-107693514D01*
X134700228Y-154693514D02*
X134700228Y-110086474D01*
X134700228Y-157086474D02*
X134700228Y-154693514D01*
X134700228Y-157999994D02*
X134700228Y-157086474D01*
X137975228Y-157999994D02*
X134700228Y-157999994D01*
X138310228Y-155705194D02*
X138310228Y-153479994D01*
X138310228Y-157999994D02*
X138310228Y-157083994D01*
X138606318Y-153479994D02*
X138310228Y-153479994D01*
X138610228Y-106779994D02*
X132210228Y-106779994D01*
X138610228Y-106779994D02*
X145810228Y-106779994D01*
X143456318Y-153479994D02*
X140964138Y-153479994D01*
X146110228Y-153479994D02*
X145814138Y-153479994D01*
X146110228Y-155705194D02*
X146110228Y-153479994D01*
X146110228Y-157999994D02*
X146110228Y-157083994D01*
X146445228Y-157999994D02*
X137975228Y-157999994D01*
X149720228Y-107693514D02*
X149720228Y-106779994D01*
X149720228Y-110086474D02*
X149720228Y-107693514D01*
X149720228Y-154693514D02*
X149720228Y-110086474D01*
X149720228Y-157086474D02*
X149720228Y-154693514D01*
X149720228Y-157999994D02*
X146445228Y-157999994D01*
X149720228Y-157999994D02*
X149720228Y-157086474D01*
X152210228Y-106779994D02*
X145810228Y-106779994D01*
X152210228Y-157999994D02*
X149720228Y-157999994D01*
X152480228Y-107200057D02*
X152480228Y-106842994D01*
X152480228Y-109739994D02*
X152480228Y-109319994D01*
X152480228Y-112279994D02*
X152480228Y-111859994D01*
X152480228Y-114819994D02*
X152480228Y-114399994D01*
X152480228Y-117359994D02*
X152480228Y-116939994D01*
X152480228Y-119899994D02*
X152480228Y-119479994D01*
X152480228Y-122439994D02*
X152480228Y-122019994D01*
X152480228Y-124979994D02*
X152480228Y-124559994D01*
X152480228Y-127519994D02*
X152480228Y-127099994D01*
X152480228Y-130059994D02*
X152480228Y-129639994D01*
X152480228Y-132599994D02*
X152480228Y-132179994D01*
X152480228Y-135139994D02*
X152480228Y-134719994D01*
X152480228Y-137679994D02*
X152480228Y-137259994D01*
X152480228Y-140219994D02*
X152480228Y-139799994D01*
X152480228Y-142759994D02*
X152480228Y-142339994D01*
X152480228Y-145299994D02*
X152480228Y-144879994D01*
X152480228Y-147839994D02*
X152480228Y-147419994D01*
X152480228Y-150379994D02*
X152480228Y-149959994D01*
X152480228Y-152919994D02*
X152480228Y-152499994D01*
X152480228Y-155459994D02*
X152480228Y-155039994D01*
X152480228Y-157579931D02*
X152480228Y-157936994D01*
X152789904Y-157579931D02*
X153300228Y-157579994D01*
X152820228Y-109739994D02*
X152820228Y-109319994D01*
X152820228Y-112279994D02*
X152820228Y-111859994D01*
X152820228Y-114819994D02*
X152820228Y-114399994D01*
X152820228Y-117359994D02*
X152820228Y-116939994D01*
X152820228Y-119899994D02*
X152820228Y-119479994D01*
X152820228Y-122439994D02*
X152820228Y-122019994D01*
X152820228Y-124979994D02*
X152820228Y-124559994D01*
X152820228Y-127519994D02*
X152820228Y-127099994D01*
X152820228Y-130059994D02*
X152820228Y-129639994D01*
X152820228Y-132599994D02*
X152820228Y-132179994D01*
X152820228Y-135139994D02*
X152820228Y-134719994D01*
X152820228Y-137679994D02*
X152820228Y-137259994D01*
X152820228Y-140219994D02*
X152820228Y-139799994D01*
X152820228Y-142759994D02*
X152820228Y-142339994D01*
X152820228Y-145299994D02*
X152820228Y-144879994D01*
X152820228Y-147839994D02*
X152820228Y-147419994D01*
X152820228Y-150379994D02*
X152820228Y-149959994D01*
X152820228Y-152919994D02*
X152820228Y-152499994D01*
X152820228Y-155459994D02*
X152820228Y-155039994D01*
X152820228Y-155459994D02*
X153300228Y-155459994D01*
X131630552Y-107200057D02*
G75*
G02*
X132210228Y-106779925I579676J-189837D01*
G01*
X132210228Y-157999994D02*
G75*
G02*
X131630552Y-157579931I0J610000D01*
G01*
X152210228Y-106779994D02*
G75*
G02*
X152789904Y-107200057I-1J-610002D01*
G01*
X152789904Y-157579931D02*
G75*
G02*
X152210228Y-157999994I-579676J189937D01*
G01*
X137450228Y-108889994D02*
G75*
G02*
X135570228Y-108889994I-940000J0D01*
G01*
X135570228Y-108889994D02*
G75*
G02*
X137450228Y-108889994I940000J0D01*
G01*
X137450228Y-155889994D02*
G75*
G02*
X135570228Y-155889994I-940000J0D01*
G01*
X135570228Y-155889994D02*
G75*
G02*
X137450228Y-155889994I940000J0D01*
G01*
X148850228Y-108889994D02*
G75*
G02*
X146970228Y-108889994I-940000J0D01*
G01*
X146970228Y-108889994D02*
G75*
G02*
X148850228Y-108889994I940000J0D01*
G01*
X148850228Y-155889994D02*
G75*
G02*
X146970228Y-155889994I-940000J0D01*
G01*
X146970228Y-155889994D02*
G75*
G02*
X148850228Y-155889994I940000J0D01*
G01*
D14*
%TO.C,J4*%
X138395025Y-85586344D02*
X133602022Y-88698956D01*
X121497420Y-70059502D01*
X126290422Y-66946890D01*
X138395025Y-85586344D01*
D19*
%TO.C,JP2*%
X149655228Y-102344994D02*
X149655228Y-101744994D01*
X150355228Y-101044994D02*
X151755228Y-101044994D01*
X151755228Y-103044994D02*
X150355228Y-103044994D01*
X152455228Y-101744994D02*
X152455228Y-102344994D01*
X149655228Y-101744994D02*
G75*
G02*
X150355228Y-101044994I700000J0D01*
G01*
X150355228Y-103044994D02*
G75*
G02*
X149655228Y-102344994I0J700000D01*
G01*
X151755228Y-101044994D02*
G75*
G02*
X152455228Y-101744994I1J-699999D01*
G01*
X152455228Y-102344994D02*
G75*
G02*
X151755228Y-103044994I-699999J-1D01*
G01*
%TO.C,J1*%
X154850228Y-150109994D02*
X156180228Y-150109994D01*
X154850228Y-151439994D02*
X154850228Y-150109994D01*
X154850228Y-152709994D02*
X154850228Y-157849994D01*
X154850228Y-152709994D02*
X157510228Y-152709994D01*
X154850228Y-157849994D02*
X157510228Y-157849994D01*
X157510228Y-152709994D02*
X157510228Y-157849994D01*
%TO.C,U2*%
X146640228Y-96179994D02*
X147115228Y-96179994D01*
X146640228Y-96654994D02*
X146640228Y-96179994D01*
X146640228Y-98924994D02*
X146640228Y-99099994D01*
X147115228Y-99399994D02*
X146880228Y-99399994D01*
X149860228Y-96179994D02*
X149385228Y-96179994D01*
X149860228Y-96654994D02*
X149860228Y-96179994D01*
X149860228Y-98924994D02*
X149860228Y-99399994D01*
X149860228Y-99399994D02*
X149385228Y-99399994D01*
X146640228Y-99399994D02*
X146310228Y-99639994D01*
X146310228Y-99159994D01*
X146640228Y-99399994D01*
G36*
X146640228Y-99399994D02*
G01*
X146310228Y-99639994D01*
X146310228Y-99159994D01*
X146640228Y-99399994D01*
G37*
%TO.C,C4*%
X126995228Y-152860574D02*
X126995228Y-152579414D01*
X128015228Y-152860574D02*
X128015228Y-152579414D01*
D20*
%TO.C,REF\u002A\u002A*%
X169695917Y-119061090D02*
X169746685Y-119076459D01*
X169820037Y-119101160D01*
X169910068Y-119132969D01*
X170010864Y-119169674D01*
X170116518Y-119209048D01*
X170221124Y-119248873D01*
X170318767Y-119286931D01*
X170403542Y-119320999D01*
X170469539Y-119348865D01*
X170510847Y-119368301D01*
X170522055Y-119375966D01*
X170520566Y-119397236D01*
X170513184Y-119449805D01*
X170500747Y-119528513D01*
X170484085Y-119628193D01*
X170464040Y-119743688D01*
X170448470Y-119831007D01*
X170368893Y-120272591D01*
X170853441Y-120733967D01*
X171293718Y-120629696D01*
X171733994Y-120525425D01*
X172110408Y-121370865D01*
X171738316Y-121628283D01*
X171366224Y-121885703D01*
X171375547Y-122220107D01*
X171384870Y-122554511D01*
X171766276Y-122790851D01*
X171872719Y-122857205D01*
X171968225Y-122917503D01*
X172048397Y-122968902D01*
X172108835Y-123008565D01*
X172145143Y-123033655D01*
X172153840Y-123041019D01*
X172149728Y-123063089D01*
X172133635Y-123113502D01*
X172107871Y-123186383D01*
X172074745Y-123275860D01*
X172036560Y-123376051D01*
X171995624Y-123481086D01*
X171954245Y-123585092D01*
X171914735Y-123682190D01*
X171879394Y-123766506D01*
X171850532Y-123832165D01*
X171830455Y-123873295D01*
X171822592Y-123884490D01*
X171798711Y-123884050D01*
X171743871Y-123877417D01*
X171663519Y-123865433D01*
X171563106Y-123848936D01*
X171448079Y-123828766D01*
X171382231Y-123816723D01*
X171262041Y-123794837D01*
X171153969Y-123775962D01*
X171063360Y-123760954D01*
X170995566Y-123750692D01*
X170955933Y-123746040D01*
X170948100Y-123746177D01*
X170932201Y-123760851D01*
X170896258Y-123797557D01*
X170845250Y-123850960D01*
X170784148Y-123915713D01*
X170717927Y-123986483D01*
X170651563Y-124057932D01*
X170590025Y-124124718D01*
X170538294Y-124181505D01*
X170501342Y-124222951D01*
X170484142Y-124243721D01*
X170483560Y-124244754D01*
X170486995Y-124263812D01*
X170497964Y-124313754D01*
X170515283Y-124389430D01*
X170537760Y-124485680D01*
X170564211Y-124597353D01*
X170579774Y-124662449D01*
X170607828Y-124781871D01*
X170632156Y-124890188D01*
X170651607Y-124981884D01*
X170665032Y-125051441D01*
X170671286Y-125093343D01*
X170671340Y-125102303D01*
X170652381Y-125119543D01*
X170604816Y-125147817D01*
X170534518Y-125184522D01*
X170447360Y-125227041D01*
X170349211Y-125272768D01*
X170245949Y-125319095D01*
X170143440Y-125363408D01*
X170047562Y-125403099D01*
X169964184Y-125435561D01*
X169899179Y-125458180D01*
X169858419Y-125468349D01*
X169848774Y-125467859D01*
X169828714Y-125448186D01*
X169792712Y-125403605D01*
X169745325Y-125340102D01*
X169691121Y-125263664D01*
X169672631Y-125236790D01*
X169583859Y-125107045D01*
X169513338Y-125004733D01*
X169458597Y-124926536D01*
X169417165Y-124869136D01*
X169386573Y-124829215D01*
X169364349Y-124803452D01*
X169348028Y-124788533D01*
X169335138Y-124781134D01*
X169332872Y-124780306D01*
X169300552Y-124776345D01*
X169240525Y-124775082D01*
X169159902Y-124776139D01*
X169065802Y-124779145D01*
X168965337Y-124783726D01*
X168865626Y-124789512D01*
X168773779Y-124796125D01*
X168696918Y-124803196D01*
X168642156Y-124810350D01*
X168616605Y-124817213D01*
X168615909Y-124817899D01*
X168602074Y-124839344D01*
X168572027Y-124887404D01*
X168528879Y-124957043D01*
X168475746Y-125043232D01*
X168415741Y-125140940D01*
X168398704Y-125168744D01*
X168336491Y-125268530D01*
X168278859Y-125357626D01*
X168229188Y-125431066D01*
X168190852Y-125483895D01*
X168167235Y-125511149D01*
X168163872Y-125513459D01*
X168139378Y-125510300D01*
X168086768Y-125494859D01*
X168012001Y-125469479D01*
X167921036Y-125436507D01*
X167819828Y-125398282D01*
X167714339Y-125357149D01*
X167610527Y-125315451D01*
X167514351Y-125275531D01*
X167431766Y-125239733D01*
X167368734Y-125210397D01*
X167331212Y-125189871D01*
X167323517Y-125182996D01*
X167323719Y-125158931D01*
X167330044Y-125107028D01*
X167341334Y-125035799D01*
X167351293Y-124980429D01*
X167370003Y-124879806D01*
X167391799Y-124760803D01*
X167413371Y-124641568D01*
X167424817Y-124577530D01*
X167463305Y-124360890D01*
X167325510Y-124254773D01*
X167264055Y-124205838D01*
X167214216Y-124163151D01*
X167183227Y-124133049D01*
X167177036Y-124124633D01*
X167187121Y-124106707D01*
X167219879Y-124065615D01*
X167272114Y-124004758D01*
X167340632Y-123927537D01*
X167422239Y-123837353D01*
X167513740Y-123737609D01*
X167611938Y-123631708D01*
X167713639Y-123523047D01*
X167815648Y-123415028D01*
X167914771Y-123311052D01*
X168007813Y-123214523D01*
X168091576Y-123128842D01*
X168162871Y-123057408D01*
X168218499Y-123003622D01*
X168255266Y-122970884D01*
X168269004Y-122962138D01*
X168295525Y-122971189D01*
X168342967Y-122995741D01*
X168401449Y-123030642D01*
X168406184Y-123033648D01*
X168569926Y-123118248D01*
X168739868Y-123169584D01*
X168911677Y-123188482D01*
X169081023Y-123175775D01*
X169243564Y-123132290D01*
X169394969Y-123058858D01*
X169530908Y-122956307D01*
X169647043Y-122825463D01*
X169670233Y-122791855D01*
X169753816Y-122633543D01*
X169803911Y-122468177D01*
X169821819Y-122300127D01*
X169808840Y-122133767D01*
X169766280Y-121973468D01*
X169695444Y-121823599D01*
X169597632Y-121688535D01*
X169474147Y-121572645D01*
X169326292Y-121480301D01*
X169271955Y-121455564D01*
X169112507Y-121402033D01*
X168959647Y-121379353D01*
X168802965Y-121386869D01*
X168657830Y-121416822D01*
X168505948Y-121475885D01*
X168367113Y-121566234D01*
X168245299Y-121683200D01*
X168144479Y-121822115D01*
X168068621Y-121978316D01*
X168021707Y-122147131D01*
X168018193Y-122168135D01*
X168005911Y-122235196D01*
X167992835Y-122287838D01*
X167981696Y-122315180D01*
X167981203Y-122315726D01*
X167958372Y-122321085D01*
X167903527Y-122326453D01*
X167821336Y-122331734D01*
X167716462Y-122336826D01*
X167593571Y-122341635D01*
X167457326Y-122346064D01*
X167312394Y-122350014D01*
X167163436Y-122353386D01*
X167015122Y-122356088D01*
X166872115Y-122358018D01*
X166739078Y-122359081D01*
X166620678Y-122359179D01*
X166521577Y-122358216D01*
X166446443Y-122356091D01*
X166399941Y-122352709D01*
X166386475Y-122349007D01*
X166383142Y-122320850D01*
X166383133Y-122265397D01*
X166386322Y-122192264D01*
X166389112Y-122151588D01*
X166402453Y-121978178D01*
X166215706Y-121861819D01*
X166120170Y-121802513D01*
X166015250Y-121737727D01*
X165916644Y-121677142D01*
X165867093Y-121646867D01*
X165798492Y-121603801D01*
X165742643Y-121566338D01*
X165706705Y-121539417D01*
X165697300Y-121529665D01*
X165701160Y-121507655D01*
X165716295Y-121456010D01*
X165741022Y-121379832D01*
X165773653Y-121284229D01*
X165812503Y-121174301D01*
X165837777Y-121104463D01*
X165883738Y-120981504D01*
X165925997Y-120874109D01*
X165962669Y-120786701D01*
X165991868Y-120723696D01*
X166011710Y-120689519D01*
X166016745Y-120684845D01*
X166043523Y-120684208D01*
X166100776Y-120689898D01*
X166182593Y-120701087D01*
X166283072Y-120716952D01*
X166396294Y-120736661D01*
X166428006Y-120742483D01*
X166543331Y-120763794D01*
X166647077Y-120782789D01*
X166733419Y-120798414D01*
X166796535Y-120809620D01*
X166830602Y-120815354D01*
X166834072Y-120815828D01*
X166853910Y-120803975D01*
X166894040Y-120770080D01*
X166949419Y-120719180D01*
X167015014Y-120656313D01*
X167085783Y-120586515D01*
X167156688Y-120514829D01*
X167222693Y-120446289D01*
X167278756Y-120385935D01*
X167319842Y-120338806D01*
X167340908Y-120309936D01*
X167341753Y-120308176D01*
X167345414Y-120294628D01*
X167345937Y-120274268D01*
X167342504Y-120243040D01*
X167334304Y-120196888D01*
X167320523Y-120131757D01*
X167300348Y-120043589D01*
X167272966Y-119928329D01*
X167237562Y-119781924D01*
X167229861Y-119750240D01*
X167207972Y-119655921D01*
X167190677Y-119572898D01*
X167179372Y-119508570D01*
X167175449Y-119470332D01*
X167176006Y-119464723D01*
X167195323Y-119447288D01*
X167243156Y-119418810D01*
X167313640Y-119381904D01*
X167400906Y-119339191D01*
X167499080Y-119293290D01*
X167602299Y-119246813D01*
X167704693Y-119202385D01*
X167800391Y-119162618D01*
X167883524Y-119130130D01*
X167948228Y-119107546D01*
X167988631Y-119097472D01*
X167998071Y-119098041D01*
X168015679Y-119116774D01*
X168050741Y-119161665D01*
X168099931Y-119228172D01*
X168159912Y-119311750D01*
X168227358Y-119407855D01*
X168263676Y-119460408D01*
X168332468Y-119560167D01*
X168394099Y-119649001D01*
X168445538Y-119722579D01*
X168483746Y-119776566D01*
X168505686Y-119806634D01*
X168509707Y-119811402D01*
X168531666Y-119812705D01*
X168583349Y-119813118D01*
X168657454Y-119812769D01*
X168746682Y-119811787D01*
X168843727Y-119810298D01*
X168941297Y-119808431D01*
X169032084Y-119806315D01*
X169108796Y-119804073D01*
X169164121Y-119801841D01*
X169190769Y-119799740D01*
X169191842Y-119799446D01*
X169205887Y-119782123D01*
X169236145Y-119737621D01*
X169279670Y-119670508D01*
X169333527Y-119585359D01*
X169394767Y-119486744D01*
X169429762Y-119429685D01*
X169494100Y-119325459D01*
X169553068Y-119232077D01*
X169603634Y-119154160D01*
X169642773Y-119096332D01*
X169667456Y-119063222D01*
X169673646Y-119057270D01*
X169695917Y-119061090D01*
G36*
X169695917Y-119061090D02*
G01*
X169746685Y-119076459D01*
X169820037Y-119101160D01*
X169910068Y-119132969D01*
X170010864Y-119169674D01*
X170116518Y-119209048D01*
X170221124Y-119248873D01*
X170318767Y-119286931D01*
X170403542Y-119320999D01*
X170469539Y-119348865D01*
X170510847Y-119368301D01*
X170522055Y-119375966D01*
X170520566Y-119397236D01*
X170513184Y-119449805D01*
X170500747Y-119528513D01*
X170484085Y-119628193D01*
X170464040Y-119743688D01*
X170448470Y-119831007D01*
X170368893Y-120272591D01*
X170853441Y-120733967D01*
X171293718Y-120629696D01*
X171733994Y-120525425D01*
X172110408Y-121370865D01*
X171738316Y-121628283D01*
X171366224Y-121885703D01*
X171375547Y-122220107D01*
X171384870Y-122554511D01*
X171766276Y-122790851D01*
X171872719Y-122857205D01*
X171968225Y-122917503D01*
X172048397Y-122968902D01*
X172108835Y-123008565D01*
X172145143Y-123033655D01*
X172153840Y-123041019D01*
X172149728Y-123063089D01*
X172133635Y-123113502D01*
X172107871Y-123186383D01*
X172074745Y-123275860D01*
X172036560Y-123376051D01*
X171995624Y-123481086D01*
X171954245Y-123585092D01*
X171914735Y-123682190D01*
X171879394Y-123766506D01*
X171850532Y-123832165D01*
X171830455Y-123873295D01*
X171822592Y-123884490D01*
X171798711Y-123884050D01*
X171743871Y-123877417D01*
X171663519Y-123865433D01*
X171563106Y-123848936D01*
X171448079Y-123828766D01*
X171382231Y-123816723D01*
X171262041Y-123794837D01*
X171153969Y-123775962D01*
X171063360Y-123760954D01*
X170995566Y-123750692D01*
X170955933Y-123746040D01*
X170948100Y-123746177D01*
X170932201Y-123760851D01*
X170896258Y-123797557D01*
X170845250Y-123850960D01*
X170784148Y-123915713D01*
X170717927Y-123986483D01*
X170651563Y-124057932D01*
X170590025Y-124124718D01*
X170538294Y-124181505D01*
X170501342Y-124222951D01*
X170484142Y-124243721D01*
X170483560Y-124244754D01*
X170486995Y-124263812D01*
X170497964Y-124313754D01*
X170515283Y-124389430D01*
X170537760Y-124485680D01*
X170564211Y-124597353D01*
X170579774Y-124662449D01*
X170607828Y-124781871D01*
X170632156Y-124890188D01*
X170651607Y-124981884D01*
X170665032Y-125051441D01*
X170671286Y-125093343D01*
X170671340Y-125102303D01*
X170652381Y-125119543D01*
X170604816Y-125147817D01*
X170534518Y-125184522D01*
X170447360Y-125227041D01*
X170349211Y-125272768D01*
X170245949Y-125319095D01*
X170143440Y-125363408D01*
X170047562Y-125403099D01*
X169964184Y-125435561D01*
X169899179Y-125458180D01*
X169858419Y-125468349D01*
X169848774Y-125467859D01*
X169828714Y-125448186D01*
X169792712Y-125403605D01*
X169745325Y-125340102D01*
X169691121Y-125263664D01*
X169672631Y-125236790D01*
X169583859Y-125107045D01*
X169513338Y-125004733D01*
X169458597Y-124926536D01*
X169417165Y-124869136D01*
X169386573Y-124829215D01*
X169364349Y-124803452D01*
X169348028Y-124788533D01*
X169335138Y-124781134D01*
X169332872Y-124780306D01*
X169300552Y-124776345D01*
X169240525Y-124775082D01*
X169159902Y-124776139D01*
X169065802Y-124779145D01*
X168965337Y-124783726D01*
X168865626Y-124789512D01*
X168773779Y-124796125D01*
X168696918Y-124803196D01*
X168642156Y-124810350D01*
X168616605Y-124817213D01*
X168615909Y-124817899D01*
X168602074Y-124839344D01*
X168572027Y-124887404D01*
X168528879Y-124957043D01*
X168475746Y-125043232D01*
X168415741Y-125140940D01*
X168398704Y-125168744D01*
X168336491Y-125268530D01*
X168278859Y-125357626D01*
X168229188Y-125431066D01*
X168190852Y-125483895D01*
X168167235Y-125511149D01*
X168163872Y-125513459D01*
X168139378Y-125510300D01*
X168086768Y-125494859D01*
X168012001Y-125469479D01*
X167921036Y-125436507D01*
X167819828Y-125398282D01*
X167714339Y-125357149D01*
X167610527Y-125315451D01*
X167514351Y-125275531D01*
X167431766Y-125239733D01*
X167368734Y-125210397D01*
X167331212Y-125189871D01*
X167323517Y-125182996D01*
X167323719Y-125158931D01*
X167330044Y-125107028D01*
X167341334Y-125035799D01*
X167351293Y-124980429D01*
X167370003Y-124879806D01*
X167391799Y-124760803D01*
X167413371Y-124641568D01*
X167424817Y-124577530D01*
X167463305Y-124360890D01*
X167325510Y-124254773D01*
X167264055Y-124205838D01*
X167214216Y-124163151D01*
X167183227Y-124133049D01*
X167177036Y-124124633D01*
X167187121Y-124106707D01*
X167219879Y-124065615D01*
X167272114Y-124004758D01*
X167340632Y-123927537D01*
X167422239Y-123837353D01*
X167513740Y-123737609D01*
X167611938Y-123631708D01*
X167713639Y-123523047D01*
X167815648Y-123415028D01*
X167914771Y-123311052D01*
X168007813Y-123214523D01*
X168091576Y-123128842D01*
X168162871Y-123057408D01*
X168218499Y-123003622D01*
X168255266Y-122970884D01*
X168269004Y-122962138D01*
X168295525Y-122971189D01*
X168342967Y-122995741D01*
X168401449Y-123030642D01*
X168406184Y-123033648D01*
X168569926Y-123118248D01*
X168739868Y-123169584D01*
X168911677Y-123188482D01*
X169081023Y-123175775D01*
X169243564Y-123132290D01*
X169394969Y-123058858D01*
X169530908Y-122956307D01*
X169647043Y-122825463D01*
X169670233Y-122791855D01*
X169753816Y-122633543D01*
X169803911Y-122468177D01*
X169821819Y-122300127D01*
X169808840Y-122133767D01*
X169766280Y-121973468D01*
X169695444Y-121823599D01*
X169597632Y-121688535D01*
X169474147Y-121572645D01*
X169326292Y-121480301D01*
X169271955Y-121455564D01*
X169112507Y-121402033D01*
X168959647Y-121379353D01*
X168802965Y-121386869D01*
X168657830Y-121416822D01*
X168505948Y-121475885D01*
X168367113Y-121566234D01*
X168245299Y-121683200D01*
X168144479Y-121822115D01*
X168068621Y-121978316D01*
X168021707Y-122147131D01*
X168018193Y-122168135D01*
X168005911Y-122235196D01*
X167992835Y-122287838D01*
X167981696Y-122315180D01*
X167981203Y-122315726D01*
X167958372Y-122321085D01*
X167903527Y-122326453D01*
X167821336Y-122331734D01*
X167716462Y-122336826D01*
X167593571Y-122341635D01*
X167457326Y-122346064D01*
X167312394Y-122350014D01*
X167163436Y-122353386D01*
X167015122Y-122356088D01*
X166872115Y-122358018D01*
X166739078Y-122359081D01*
X166620678Y-122359179D01*
X166521577Y-122358216D01*
X166446443Y-122356091D01*
X166399941Y-122352709D01*
X166386475Y-122349007D01*
X166383142Y-122320850D01*
X166383133Y-122265397D01*
X166386322Y-122192264D01*
X166389112Y-122151588D01*
X166402453Y-121978178D01*
X166215706Y-121861819D01*
X166120170Y-121802513D01*
X166015250Y-121737727D01*
X165916644Y-121677142D01*
X165867093Y-121646867D01*
X165798492Y-121603801D01*
X165742643Y-121566338D01*
X165706705Y-121539417D01*
X165697300Y-121529665D01*
X165701160Y-121507655D01*
X165716295Y-121456010D01*
X165741022Y-121379832D01*
X165773653Y-121284229D01*
X165812503Y-121174301D01*
X165837777Y-121104463D01*
X165883738Y-120981504D01*
X165925997Y-120874109D01*
X165962669Y-120786701D01*
X165991868Y-120723696D01*
X166011710Y-120689519D01*
X166016745Y-120684845D01*
X166043523Y-120684208D01*
X166100776Y-120689898D01*
X166182593Y-120701087D01*
X166283072Y-120716952D01*
X166396294Y-120736661D01*
X166428006Y-120742483D01*
X166543331Y-120763794D01*
X166647077Y-120782789D01*
X166733419Y-120798414D01*
X166796535Y-120809620D01*
X166830602Y-120815354D01*
X166834072Y-120815828D01*
X166853910Y-120803975D01*
X166894040Y-120770080D01*
X166949419Y-120719180D01*
X167015014Y-120656313D01*
X167085783Y-120586515D01*
X167156688Y-120514829D01*
X167222693Y-120446289D01*
X167278756Y-120385935D01*
X167319842Y-120338806D01*
X167340908Y-120309936D01*
X167341753Y-120308176D01*
X167345414Y-120294628D01*
X167345937Y-120274268D01*
X167342504Y-120243040D01*
X167334304Y-120196888D01*
X167320523Y-120131757D01*
X167300348Y-120043589D01*
X167272966Y-119928329D01*
X167237562Y-119781924D01*
X167229861Y-119750240D01*
X167207972Y-119655921D01*
X167190677Y-119572898D01*
X167179372Y-119508570D01*
X167175449Y-119470332D01*
X167176006Y-119464723D01*
X167195323Y-119447288D01*
X167243156Y-119418810D01*
X167313640Y-119381904D01*
X167400906Y-119339191D01*
X167499080Y-119293290D01*
X167602299Y-119246813D01*
X167704693Y-119202385D01*
X167800391Y-119162618D01*
X167883524Y-119130130D01*
X167948228Y-119107546D01*
X167988631Y-119097472D01*
X167998071Y-119098041D01*
X168015679Y-119116774D01*
X168050741Y-119161665D01*
X168099931Y-119228172D01*
X168159912Y-119311750D01*
X168227358Y-119407855D01*
X168263676Y-119460408D01*
X168332468Y-119560167D01*
X168394099Y-119649001D01*
X168445538Y-119722579D01*
X168483746Y-119776566D01*
X168505686Y-119806634D01*
X168509707Y-119811402D01*
X168531666Y-119812705D01*
X168583349Y-119813118D01*
X168657454Y-119812769D01*
X168746682Y-119811787D01*
X168843727Y-119810298D01*
X168941297Y-119808431D01*
X169032084Y-119806315D01*
X169108796Y-119804073D01*
X169164121Y-119801841D01*
X169190769Y-119799740D01*
X169191842Y-119799446D01*
X169205887Y-119782123D01*
X169236145Y-119737621D01*
X169279670Y-119670508D01*
X169333527Y-119585359D01*
X169394767Y-119486744D01*
X169429762Y-119429685D01*
X169494100Y-119325459D01*
X169553068Y-119232077D01*
X169603634Y-119154160D01*
X169642773Y-119096332D01*
X169667456Y-119063222D01*
X169673646Y-119057270D01*
X169695917Y-119061090D01*
G37*
D19*
%TO.C,C6*%
X158685472Y-139771323D02*
X158575614Y-140030132D01*
X159624386Y-140169868D02*
X159514528Y-140428677D01*
%TO.C,D1*%
X171845227Y-87136396D02*
X176158579Y-82823045D01*
X172623045Y-87914214D02*
X171845227Y-87136396D01*
X179976955Y-86641421D02*
X176441421Y-90176955D01*
%TO.C,C1*%
X150570228Y-98179414D02*
X150570228Y-98460574D01*
X151590228Y-98179414D02*
X151590228Y-98460574D01*
%TD*%
M02*
