%TF.GenerationSoftware,KiCad,Pcbnew,8.0.6*%
%TF.CreationDate,2024-11-07T16:31:00+01:00*%
%TF.ProjectId,SQUIM_v02,53515549-4d5f-4763-9032-2e6b69636164,rev?*%
%TF.SameCoordinates,Original*%
%TF.FileFunction,Drillmap*%
%TF.FilePolarity,Positive*%
%FSLAX45Y45*%
G04 Gerber Fmt 4.5, Leading zero omitted, Abs format (unit mm)*
G04 Created by KiCad (PCBNEW 8.0.6) date 2024-11-07 16:31:00*
%MOMM*%
%LPD*%
G01*
G04 APERTURE LIST*
%ADD10C,0.050000*%
%ADD11C,0.200000*%
%ADD12C,0.185000*%
%ADD13C,0.220000*%
G04 APERTURE END LIST*
D10*
X12466023Y-14631999D02*
X12466023Y-15141999D01*
X12636023Y-14631999D02*
X12466023Y-14631999D01*
X12636023Y-15141999D02*
X12636023Y-14631999D01*
X12466023Y-15141999D02*
X12636023Y-15141999D01*
X13851023Y-6596999D02*
X13645000Y-7115000D01*
X14375000Y-6635000D02*
X14215000Y-7005000D01*
X17165000Y-8525000D02*
X17080000Y-8575000D01*
X18010000Y-8900000D02*
X18115000Y-8725000D01*
X10050000Y-14975000D02*
X10145000Y-15035000D01*
X11965000Y-7135000D02*
X12460000Y-7930000D01*
X11490000Y-6505000D02*
X11505000Y-6590000D01*
X12975000Y-6570000D02*
X12765000Y-6125000D01*
X16130000Y-13010000D02*
X16590000Y-12890000D01*
X17080000Y-8575000D02*
X16790000Y-8530000D01*
X11320000Y-8325000D02*
X11745000Y-8345000D01*
X10320000Y-14850000D02*
X10850000Y-14535000D01*
X10910000Y-11880000D02*
X10830000Y-12035000D01*
X15940000Y-15875000D02*
X16030000Y-15820000D01*
X17015000Y-7085000D02*
X17055000Y-6980000D01*
X10470000Y-15360000D02*
X10455000Y-15660000D01*
X10640000Y-14105000D02*
X10185000Y-14445000D01*
X16830000Y-11850000D02*
X16370000Y-12050000D01*
X16055000Y-6145000D02*
X15590000Y-6230000D01*
X10910000Y-10980000D02*
X10170000Y-11620000D01*
X11820000Y-6180000D02*
X11530000Y-6385000D01*
X11195000Y-15345000D02*
X10935000Y-15450000D01*
X18060000Y-8370000D02*
X17950000Y-8230000D01*
X14480000Y-6455000D02*
X14375000Y-6635000D01*
X16040000Y-12120000D02*
X15930000Y-11790000D01*
X10885000Y-10930000D02*
X10910000Y-10980000D01*
X16790000Y-8530000D02*
X16750000Y-8520000D01*
X12192500Y-7832500D02*
X12205000Y-7865000D01*
X17060000Y-6880000D02*
X16640000Y-6800000D01*
X10460000Y-9880000D02*
X10520000Y-9915000D01*
X11505000Y-6410000D02*
X11495000Y-6440000D01*
X16190000Y-10720000D02*
X16570000Y-10570000D01*
X16570000Y-10570000D02*
X17000000Y-10260000D01*
X11495000Y-6440000D02*
X11490000Y-6505000D01*
X17265000Y-8375000D02*
X17165000Y-8525000D01*
X9740000Y-12195000D02*
X9700000Y-12335000D01*
X9965000Y-11150000D02*
X10847268Y-9980129D01*
X10847268Y-9980129D02*
X10925000Y-9705000D01*
X11775000Y-6940000D02*
X11965000Y-7135000D01*
X14005000Y-7500000D02*
X13980000Y-7390000D01*
X15960000Y-11060000D02*
X16190000Y-10720000D01*
X16590000Y-12890000D02*
X17110000Y-12560000D01*
X14525000Y-7085000D02*
X14570000Y-6930000D01*
X10700000Y-11920000D02*
X10910000Y-11880000D01*
X17240000Y-11960000D02*
X17290000Y-12120000D01*
X10170000Y-11620000D02*
X9955000Y-11870000D01*
X10185000Y-14445000D02*
X10030000Y-14810000D01*
X16150000Y-6355000D02*
X16210000Y-6280000D01*
X16110000Y-15060000D02*
X15960000Y-14930000D01*
X10910000Y-14650000D02*
X10635000Y-14995000D01*
X10645000Y-13930000D02*
X10640000Y-14105000D01*
X10250000Y-13125000D02*
X10490000Y-13040000D01*
X17720000Y-8160000D02*
X17465000Y-8200000D01*
X11530000Y-6385000D02*
X11505000Y-6410000D01*
X15500000Y-7020000D02*
X15875000Y-6440000D01*
X17465000Y-8200000D02*
X17365000Y-8260000D01*
X11605000Y-6735000D02*
X11775000Y-6940000D01*
X10560000Y-15875000D02*
X10655000Y-15875000D01*
X9965000Y-11150000D02*
X9975000Y-11270000D01*
X14655000Y-6340000D02*
X14480000Y-6455000D01*
X10030000Y-14810000D02*
X10020000Y-14925000D01*
X15875000Y-6960000D02*
X15545000Y-7345000D01*
X10630000Y-13120000D02*
X10355000Y-13440000D01*
X17290000Y-12120000D02*
X17230000Y-12350000D01*
X17160000Y-12500000D02*
X17110000Y-12560000D01*
X16210000Y-6280000D02*
X16185000Y-6195000D01*
X10455000Y-9805000D02*
X10869880Y-9150000D01*
X10869880Y-9150000D02*
X11358023Y-8571999D01*
X11505000Y-6590000D02*
X11545000Y-6660000D01*
X10890000Y-14545000D02*
X10910000Y-14650000D01*
X10145000Y-15035000D02*
X10320000Y-14850000D01*
X15990000Y-6390000D02*
X16150000Y-6355000D01*
X15960000Y-14930000D02*
X15770000Y-14890000D01*
X16150000Y-15470000D02*
X16160000Y-15240000D01*
X14825000Y-6400000D02*
X14755000Y-6330000D01*
X9970000Y-13350000D02*
X10250000Y-13125000D01*
X11560000Y-15875000D02*
X15940000Y-15875000D01*
X10855000Y-9620000D02*
X10915000Y-9615000D01*
X12335000Y-5875000D02*
X12270000Y-5900000D01*
X17780000Y-9090000D02*
X18010000Y-8900000D01*
X9770000Y-12395000D02*
X9905000Y-12310000D01*
X11605000Y-7940000D02*
X11210000Y-8115000D01*
X13980000Y-7390000D02*
X13965000Y-7077500D01*
X10455000Y-15660000D02*
X10560000Y-15875000D01*
X10580000Y-9890000D02*
X10855000Y-9620000D01*
X13965000Y-7077500D02*
X13985000Y-6880000D01*
X15545000Y-7345000D02*
X15356023Y-7541999D01*
X15356023Y-7541999D02*
X15295000Y-7550000D01*
X16750000Y-8520000D02*
X15940000Y-8210000D01*
X15295000Y-7550000D02*
X15500000Y-7020000D01*
X10020000Y-14925000D02*
X10050000Y-14975000D01*
X10825000Y-8470000D02*
X10895000Y-8500000D01*
X16830000Y-11850000D02*
X17000000Y-11820000D01*
X9835000Y-13555000D02*
X9970000Y-13350000D01*
X17720000Y-9160000D02*
X17780000Y-9090000D01*
X12187500Y-7787500D02*
X12192500Y-7832500D01*
X15770000Y-14890000D02*
X15580000Y-14880000D01*
X14650000Y-6665000D02*
X14760000Y-6485000D01*
X9880000Y-12865000D02*
X9705000Y-13335000D01*
X15875000Y-6440000D02*
X15990000Y-6390000D01*
X10355000Y-13440000D02*
X9935000Y-14110000D01*
X9950000Y-14255000D02*
X10005000Y-14285000D01*
X13620000Y-7745000D02*
X12975000Y-6570000D01*
X11425000Y-15255000D02*
X11195000Y-15345000D01*
X12310000Y-7970000D02*
X11605000Y-7940000D01*
X16640000Y-6800000D02*
X15875000Y-6960000D01*
X15580000Y-14880000D02*
X15630000Y-14740000D01*
X18130000Y-8520000D02*
X18060000Y-8370000D01*
X14810000Y-6795000D02*
X14655000Y-7100000D01*
X16030000Y-15820000D02*
X16070000Y-15760000D01*
X14570000Y-6930000D02*
X14650000Y-6665000D01*
X11360000Y-15675000D02*
X11425000Y-15255000D01*
X11745000Y-8345000D02*
X11358023Y-8571999D01*
X9720000Y-13725000D02*
X9770000Y-13725000D01*
X12205000Y-5935000D02*
X12090000Y-6000000D01*
X15940000Y-8210000D02*
X16035000Y-8030000D01*
X16160000Y-15240000D02*
X16110000Y-15060000D01*
X18115000Y-8725000D02*
X18130000Y-8520000D01*
X10915000Y-9615000D02*
X10925000Y-9705000D01*
X15930000Y-11790000D02*
X15960000Y-11060000D01*
X10490000Y-13040000D02*
X10630000Y-13120000D01*
X10830000Y-12035000D02*
X10225000Y-12525000D01*
X16070000Y-15760000D02*
X16150000Y-15470000D01*
X10635000Y-14995000D02*
X10470000Y-15360000D01*
X9770000Y-13725000D02*
X9835000Y-13555000D01*
X10225000Y-12525000D02*
X9880000Y-12865000D01*
X12475000Y-5875000D02*
X12335000Y-5875000D01*
X10005000Y-14285000D02*
X10275000Y-14110000D01*
X17365000Y-8260000D02*
X17265000Y-8375000D01*
X14655000Y-7100000D02*
X14550000Y-7295000D01*
X9935000Y-14110000D02*
X9950000Y-14255000D01*
X13985000Y-6880000D02*
X13980000Y-6560000D01*
X10850000Y-14535000D02*
X10890000Y-14545000D01*
X17055000Y-6980000D02*
X17060000Y-6880000D01*
X16050000Y-14030000D02*
X16140000Y-13320000D01*
X9700000Y-12335000D02*
X9725000Y-12385000D01*
X15590000Y-6230000D02*
X15005000Y-6550000D01*
X16140000Y-13320000D02*
X16130000Y-13010000D01*
X12535000Y-5885000D02*
X12475000Y-5875000D01*
X13980000Y-6560000D02*
X13851023Y-6596999D01*
X11545000Y-6660000D02*
X11605000Y-6735000D01*
X16370000Y-12050000D02*
X16040000Y-12120000D01*
X16765000Y-7145000D02*
X17015000Y-7085000D01*
X17230000Y-12350000D02*
X17160000Y-12500000D01*
X17700000Y-9500000D02*
X17720000Y-9160000D01*
X9955000Y-11870000D02*
X9740000Y-12195000D01*
X11560000Y-15875000D02*
G75*
G02*
X11360000Y-15675000I0J200000D01*
G01*
X17600000Y-9640000D02*
X17700000Y-9500000D01*
X9905000Y-12310000D02*
X10190000Y-12120000D01*
X17000000Y-11820000D02*
X17140000Y-11860000D01*
X10895000Y-8500000D02*
X11320000Y-8325000D01*
X17000000Y-10260000D02*
X17600000Y-9640000D01*
X10655000Y-15875000D02*
X10755000Y-15650000D01*
X16515000Y-7340000D02*
X16765000Y-7145000D01*
X12590000Y-5905000D02*
X12535000Y-5885000D01*
X12090000Y-6000000D02*
X11820000Y-6180000D01*
X14065000Y-7490000D02*
X14005000Y-7500000D01*
X14755000Y-6330000D02*
X14655000Y-6340000D01*
X15630000Y-14740000D02*
X16050000Y-14030000D01*
X15005000Y-6550000D02*
X14810000Y-6795000D01*
X9725000Y-12385000D02*
X9770000Y-12395000D01*
X10190000Y-12120000D02*
X10700000Y-11920000D01*
X14760000Y-6485000D02*
X14825000Y-6400000D01*
X10755000Y-15650000D02*
X10935000Y-15450000D01*
X10275000Y-14110000D02*
X10645000Y-13930000D01*
X12765000Y-6125000D02*
X12680000Y-5985000D01*
X17950000Y-8230000D02*
X17720000Y-8160000D01*
X14215000Y-7005000D02*
X14065000Y-7490000D01*
X12270000Y-5900000D02*
X12205000Y-5935000D01*
X10885000Y-10930000D02*
X10090000Y-11310000D01*
X10090000Y-11310000D02*
X9975000Y-11270000D01*
X10520000Y-9915000D02*
X10580000Y-9890000D01*
X9705000Y-13335000D02*
X9675000Y-13630000D01*
X14550000Y-7295000D02*
X14525000Y-7085000D01*
X16330000Y-7530000D02*
X16515000Y-7340000D01*
X16035000Y-8030000D02*
X16330000Y-7530000D01*
X12680000Y-5985000D02*
X12590000Y-5905000D01*
X17140000Y-11860000D02*
X17240000Y-11960000D01*
X12205000Y-7865000D02*
X12310000Y-7970000D01*
X9675000Y-13630000D02*
X9720000Y-13725000D01*
X10455000Y-9805000D02*
X10460000Y-9880000D01*
X11210000Y-8115000D02*
X11040000Y-8250000D01*
X11040000Y-8250000D02*
X10825000Y-8470000D01*
X12460000Y-7930000D02*
X12205000Y-7765000D01*
X16185000Y-6195000D02*
X16055000Y-6145000D01*
X12187500Y-7787500D02*
X12205000Y-7765000D01*
X13645000Y-7115000D02*
X13620000Y-7745000D01*
D11*
D12*
X13886023Y-15243499D02*
X14071023Y-15428499D01*
X14071023Y-15243499D02*
X13886023Y-15428499D01*
X14371023Y-15243499D02*
X14556023Y-15428499D01*
X14556023Y-15243499D02*
X14371023Y-15428499D01*
D13*
X14058523Y-15638999D02*
G75*
G02*
X13838523Y-15638999I-110000J0D01*
G01*
X13838523Y-15638999D02*
G75*
G02*
X14058523Y-15638999I110000J0D01*
G01*
X14603523Y-15638999D02*
G75*
G02*
X14383523Y-15638999I-110000J0D01*
G01*
X14383523Y-15638999D02*
G75*
G02*
X14603523Y-15638999I110000J0D01*
G01*
X15747122Y-9372929D02*
G75*
G02*
X15527122Y-9372929I-110000J0D01*
G01*
X15527122Y-9372929D02*
G75*
G02*
X15747122Y-9372929I110000J0D01*
G01*
X16369375Y-8750675D02*
G75*
G02*
X16149375Y-8750675I-110000J0D01*
G01*
X16149375Y-8750675D02*
G75*
G02*
X16369375Y-8750675I110000J0D01*
G01*
D11*
X9933277Y-16188984D02*
X9933277Y-15988984D01*
X9933277Y-15988984D02*
X9980896Y-15988984D01*
X9980896Y-15988984D02*
X10009467Y-15998508D01*
X10009467Y-15998508D02*
X10028515Y-16017555D01*
X10028515Y-16017555D02*
X10038039Y-16036603D01*
X10038039Y-16036603D02*
X10047563Y-16074698D01*
X10047563Y-16074698D02*
X10047563Y-16103269D01*
X10047563Y-16103269D02*
X10038039Y-16141365D01*
X10038039Y-16141365D02*
X10028515Y-16160412D01*
X10028515Y-16160412D02*
X10009467Y-16179460D01*
X10009467Y-16179460D02*
X9980896Y-16188984D01*
X9980896Y-16188984D02*
X9933277Y-16188984D01*
X10133277Y-16188984D02*
X10133277Y-16055650D01*
X10133277Y-16093746D02*
X10142801Y-16074698D01*
X10142801Y-16074698D02*
X10152324Y-16065174D01*
X10152324Y-16065174D02*
X10171372Y-16055650D01*
X10171372Y-16055650D02*
X10190420Y-16055650D01*
X10257086Y-16188984D02*
X10257086Y-16055650D01*
X10257086Y-15988984D02*
X10247563Y-15998508D01*
X10247563Y-15998508D02*
X10257086Y-16008031D01*
X10257086Y-16008031D02*
X10266610Y-15998508D01*
X10266610Y-15998508D02*
X10257086Y-15988984D01*
X10257086Y-15988984D02*
X10257086Y-16008031D01*
X10380896Y-16188984D02*
X10361848Y-16179460D01*
X10361848Y-16179460D02*
X10352324Y-16160412D01*
X10352324Y-16160412D02*
X10352324Y-15988984D01*
X10485658Y-16188984D02*
X10466610Y-16179460D01*
X10466610Y-16179460D02*
X10457086Y-16160412D01*
X10457086Y-16160412D02*
X10457086Y-15988984D01*
X10714229Y-16188984D02*
X10714229Y-15988984D01*
X10714229Y-15988984D02*
X10780896Y-16131841D01*
X10780896Y-16131841D02*
X10847563Y-15988984D01*
X10847563Y-15988984D02*
X10847563Y-16188984D01*
X11028515Y-16188984D02*
X11028515Y-16084222D01*
X11028515Y-16084222D02*
X11018991Y-16065174D01*
X11018991Y-16065174D02*
X10999944Y-16055650D01*
X10999944Y-16055650D02*
X10961848Y-16055650D01*
X10961848Y-16055650D02*
X10942801Y-16065174D01*
X11028515Y-16179460D02*
X11009467Y-16188984D01*
X11009467Y-16188984D02*
X10961848Y-16188984D01*
X10961848Y-16188984D02*
X10942801Y-16179460D01*
X10942801Y-16179460D02*
X10933277Y-16160412D01*
X10933277Y-16160412D02*
X10933277Y-16141365D01*
X10933277Y-16141365D02*
X10942801Y-16122317D01*
X10942801Y-16122317D02*
X10961848Y-16112793D01*
X10961848Y-16112793D02*
X11009467Y-16112793D01*
X11009467Y-16112793D02*
X11028515Y-16103269D01*
X11123753Y-16055650D02*
X11123753Y-16255650D01*
X11123753Y-16065174D02*
X11142801Y-16055650D01*
X11142801Y-16055650D02*
X11180896Y-16055650D01*
X11180896Y-16055650D02*
X11199943Y-16065174D01*
X11199943Y-16065174D02*
X11209467Y-16074698D01*
X11209467Y-16074698D02*
X11218991Y-16093746D01*
X11218991Y-16093746D02*
X11218991Y-16150888D01*
X11218991Y-16150888D02*
X11209467Y-16169936D01*
X11209467Y-16169936D02*
X11199943Y-16179460D01*
X11199943Y-16179460D02*
X11180896Y-16188984D01*
X11180896Y-16188984D02*
X11142801Y-16188984D01*
X11142801Y-16188984D02*
X11123753Y-16179460D01*
X11304705Y-16169936D02*
X11314229Y-16179460D01*
X11314229Y-16179460D02*
X11304705Y-16188984D01*
X11304705Y-16188984D02*
X11295182Y-16179460D01*
X11295182Y-16179460D02*
X11304705Y-16169936D01*
X11304705Y-16169936D02*
X11304705Y-16188984D01*
X11304705Y-16065174D02*
X11314229Y-16074698D01*
X11314229Y-16074698D02*
X11304705Y-16084222D01*
X11304705Y-16084222D02*
X11295182Y-16074698D01*
X11295182Y-16074698D02*
X11304705Y-16065174D01*
X11304705Y-16065174D02*
X11304705Y-16084222D01*
D12*
X9487500Y-16425000D02*
X9672500Y-16610000D01*
X9672500Y-16425000D02*
X9487500Y-16610000D01*
D11*
X10038039Y-16608984D02*
X9923753Y-16608984D01*
X9980896Y-16608984D02*
X9980896Y-16408984D01*
X9980896Y-16408984D02*
X9961848Y-16437555D01*
X9961848Y-16437555D02*
X9942801Y-16456603D01*
X9942801Y-16456603D02*
X9923753Y-16466127D01*
X10123753Y-16589936D02*
X10133277Y-16599460D01*
X10133277Y-16599460D02*
X10123753Y-16608984D01*
X10123753Y-16608984D02*
X10114229Y-16599460D01*
X10114229Y-16599460D02*
X10123753Y-16589936D01*
X10123753Y-16589936D02*
X10123753Y-16608984D01*
X10247563Y-16494698D02*
X10228515Y-16485174D01*
X10228515Y-16485174D02*
X10218991Y-16475650D01*
X10218991Y-16475650D02*
X10209467Y-16456603D01*
X10209467Y-16456603D02*
X10209467Y-16447079D01*
X10209467Y-16447079D02*
X10218991Y-16428031D01*
X10218991Y-16428031D02*
X10228515Y-16418508D01*
X10228515Y-16418508D02*
X10247563Y-16408984D01*
X10247563Y-16408984D02*
X10285658Y-16408984D01*
X10285658Y-16408984D02*
X10304705Y-16418508D01*
X10304705Y-16418508D02*
X10314229Y-16428031D01*
X10314229Y-16428031D02*
X10323753Y-16447079D01*
X10323753Y-16447079D02*
X10323753Y-16456603D01*
X10323753Y-16456603D02*
X10314229Y-16475650D01*
X10314229Y-16475650D02*
X10304705Y-16485174D01*
X10304705Y-16485174D02*
X10285658Y-16494698D01*
X10285658Y-16494698D02*
X10247563Y-16494698D01*
X10247563Y-16494698D02*
X10228515Y-16504222D01*
X10228515Y-16504222D02*
X10218991Y-16513746D01*
X10218991Y-16513746D02*
X10209467Y-16532793D01*
X10209467Y-16532793D02*
X10209467Y-16570888D01*
X10209467Y-16570888D02*
X10218991Y-16589936D01*
X10218991Y-16589936D02*
X10228515Y-16599460D01*
X10228515Y-16599460D02*
X10247563Y-16608984D01*
X10247563Y-16608984D02*
X10285658Y-16608984D01*
X10285658Y-16608984D02*
X10304705Y-16599460D01*
X10304705Y-16599460D02*
X10314229Y-16589936D01*
X10314229Y-16589936D02*
X10323753Y-16570888D01*
X10323753Y-16570888D02*
X10323753Y-16532793D01*
X10323753Y-16532793D02*
X10314229Y-16513746D01*
X10314229Y-16513746D02*
X10304705Y-16504222D01*
X10304705Y-16504222D02*
X10285658Y-16494698D01*
X10504705Y-16408984D02*
X10409467Y-16408984D01*
X10409467Y-16408984D02*
X10399944Y-16504222D01*
X10399944Y-16504222D02*
X10409467Y-16494698D01*
X10409467Y-16494698D02*
X10428515Y-16485174D01*
X10428515Y-16485174D02*
X10476134Y-16485174D01*
X10476134Y-16485174D02*
X10495182Y-16494698D01*
X10495182Y-16494698D02*
X10504705Y-16504222D01*
X10504705Y-16504222D02*
X10514229Y-16523269D01*
X10514229Y-16523269D02*
X10514229Y-16570888D01*
X10514229Y-16570888D02*
X10504705Y-16589936D01*
X10504705Y-16589936D02*
X10495182Y-16599460D01*
X10495182Y-16599460D02*
X10476134Y-16608984D01*
X10476134Y-16608984D02*
X10428515Y-16608984D01*
X10428515Y-16608984D02*
X10409467Y-16599460D01*
X10409467Y-16599460D02*
X10399944Y-16589936D01*
X10638039Y-16408984D02*
X10657086Y-16408984D01*
X10657086Y-16408984D02*
X10676134Y-16418508D01*
X10676134Y-16418508D02*
X10685658Y-16428031D01*
X10685658Y-16428031D02*
X10695182Y-16447079D01*
X10695182Y-16447079D02*
X10704705Y-16485174D01*
X10704705Y-16485174D02*
X10704705Y-16532793D01*
X10704705Y-16532793D02*
X10695182Y-16570888D01*
X10695182Y-16570888D02*
X10685658Y-16589936D01*
X10685658Y-16589936D02*
X10676134Y-16599460D01*
X10676134Y-16599460D02*
X10657086Y-16608984D01*
X10657086Y-16608984D02*
X10638039Y-16608984D01*
X10638039Y-16608984D02*
X10618991Y-16599460D01*
X10618991Y-16599460D02*
X10609467Y-16589936D01*
X10609467Y-16589936D02*
X10599944Y-16570888D01*
X10599944Y-16570888D02*
X10590420Y-16532793D01*
X10590420Y-16532793D02*
X10590420Y-16485174D01*
X10590420Y-16485174D02*
X10599944Y-16447079D01*
X10599944Y-16447079D02*
X10609467Y-16428031D01*
X10609467Y-16428031D02*
X10618991Y-16418508D01*
X10618991Y-16418508D02*
X10638039Y-16408984D01*
X10790420Y-16608984D02*
X10790420Y-16475650D01*
X10790420Y-16494698D02*
X10799944Y-16485174D01*
X10799944Y-16485174D02*
X10818991Y-16475650D01*
X10818991Y-16475650D02*
X10847563Y-16475650D01*
X10847563Y-16475650D02*
X10866610Y-16485174D01*
X10866610Y-16485174D02*
X10876134Y-16504222D01*
X10876134Y-16504222D02*
X10876134Y-16608984D01*
X10876134Y-16504222D02*
X10885658Y-16485174D01*
X10885658Y-16485174D02*
X10904705Y-16475650D01*
X10904705Y-16475650D02*
X10933277Y-16475650D01*
X10933277Y-16475650D02*
X10952325Y-16485174D01*
X10952325Y-16485174D02*
X10961848Y-16504222D01*
X10961848Y-16504222D02*
X10961848Y-16608984D01*
X11057086Y-16608984D02*
X11057086Y-16475650D01*
X11057086Y-16494698D02*
X11066610Y-16485174D01*
X11066610Y-16485174D02*
X11085658Y-16475650D01*
X11085658Y-16475650D02*
X11114229Y-16475650D01*
X11114229Y-16475650D02*
X11133277Y-16485174D01*
X11133277Y-16485174D02*
X11142801Y-16504222D01*
X11142801Y-16504222D02*
X11142801Y-16608984D01*
X11142801Y-16504222D02*
X11152325Y-16485174D01*
X11152325Y-16485174D02*
X11171372Y-16475650D01*
X11171372Y-16475650D02*
X11199943Y-16475650D01*
X11199943Y-16475650D02*
X11218991Y-16485174D01*
X11218991Y-16485174D02*
X11228515Y-16504222D01*
X11228515Y-16504222D02*
X11228515Y-16608984D01*
X11618991Y-16399460D02*
X11447563Y-16656603D01*
X11876134Y-16408984D02*
X11895182Y-16408984D01*
X11895182Y-16408984D02*
X11914229Y-16418508D01*
X11914229Y-16418508D02*
X11923753Y-16428031D01*
X11923753Y-16428031D02*
X11933277Y-16447079D01*
X11933277Y-16447079D02*
X11942801Y-16485174D01*
X11942801Y-16485174D02*
X11942801Y-16532793D01*
X11942801Y-16532793D02*
X11933277Y-16570888D01*
X11933277Y-16570888D02*
X11923753Y-16589936D01*
X11923753Y-16589936D02*
X11914229Y-16599460D01*
X11914229Y-16599460D02*
X11895182Y-16608984D01*
X11895182Y-16608984D02*
X11876134Y-16608984D01*
X11876134Y-16608984D02*
X11857086Y-16599460D01*
X11857086Y-16599460D02*
X11847563Y-16589936D01*
X11847563Y-16589936D02*
X11838039Y-16570888D01*
X11838039Y-16570888D02*
X11828515Y-16532793D01*
X11828515Y-16532793D02*
X11828515Y-16485174D01*
X11828515Y-16485174D02*
X11838039Y-16447079D01*
X11838039Y-16447079D02*
X11847563Y-16428031D01*
X11847563Y-16428031D02*
X11857086Y-16418508D01*
X11857086Y-16418508D02*
X11876134Y-16408984D01*
X12028515Y-16589936D02*
X12038039Y-16599460D01*
X12038039Y-16599460D02*
X12028515Y-16608984D01*
X12028515Y-16608984D02*
X12018991Y-16599460D01*
X12018991Y-16599460D02*
X12028515Y-16589936D01*
X12028515Y-16589936D02*
X12028515Y-16608984D01*
X12161848Y-16408984D02*
X12180896Y-16408984D01*
X12180896Y-16408984D02*
X12199944Y-16418508D01*
X12199944Y-16418508D02*
X12209467Y-16428031D01*
X12209467Y-16428031D02*
X12218991Y-16447079D01*
X12218991Y-16447079D02*
X12228515Y-16485174D01*
X12228515Y-16485174D02*
X12228515Y-16532793D01*
X12228515Y-16532793D02*
X12218991Y-16570888D01*
X12218991Y-16570888D02*
X12209467Y-16589936D01*
X12209467Y-16589936D02*
X12199944Y-16599460D01*
X12199944Y-16599460D02*
X12180896Y-16608984D01*
X12180896Y-16608984D02*
X12161848Y-16608984D01*
X12161848Y-16608984D02*
X12142801Y-16599460D01*
X12142801Y-16599460D02*
X12133277Y-16589936D01*
X12133277Y-16589936D02*
X12123753Y-16570888D01*
X12123753Y-16570888D02*
X12114229Y-16532793D01*
X12114229Y-16532793D02*
X12114229Y-16485174D01*
X12114229Y-16485174D02*
X12123753Y-16447079D01*
X12123753Y-16447079D02*
X12133277Y-16428031D01*
X12133277Y-16428031D02*
X12142801Y-16418508D01*
X12142801Y-16418508D02*
X12161848Y-16408984D01*
X12295182Y-16408984D02*
X12428515Y-16408984D01*
X12428515Y-16408984D02*
X12342801Y-16608984D01*
X12495182Y-16428031D02*
X12504706Y-16418508D01*
X12504706Y-16418508D02*
X12523753Y-16408984D01*
X12523753Y-16408984D02*
X12571372Y-16408984D01*
X12571372Y-16408984D02*
X12590420Y-16418508D01*
X12590420Y-16418508D02*
X12599944Y-16428031D01*
X12599944Y-16428031D02*
X12609467Y-16447079D01*
X12609467Y-16447079D02*
X12609467Y-16466127D01*
X12609467Y-16466127D02*
X12599944Y-16494698D01*
X12599944Y-16494698D02*
X12485658Y-16608984D01*
X12485658Y-16608984D02*
X12609467Y-16608984D01*
X12723753Y-16494698D02*
X12704706Y-16485174D01*
X12704706Y-16485174D02*
X12695182Y-16475650D01*
X12695182Y-16475650D02*
X12685658Y-16456603D01*
X12685658Y-16456603D02*
X12685658Y-16447079D01*
X12685658Y-16447079D02*
X12695182Y-16428031D01*
X12695182Y-16428031D02*
X12704706Y-16418508D01*
X12704706Y-16418508D02*
X12723753Y-16408984D01*
X12723753Y-16408984D02*
X12761848Y-16408984D01*
X12761848Y-16408984D02*
X12780896Y-16418508D01*
X12780896Y-16418508D02*
X12790420Y-16428031D01*
X12790420Y-16428031D02*
X12799944Y-16447079D01*
X12799944Y-16447079D02*
X12799944Y-16456603D01*
X12799944Y-16456603D02*
X12790420Y-16475650D01*
X12790420Y-16475650D02*
X12780896Y-16485174D01*
X12780896Y-16485174D02*
X12761848Y-16494698D01*
X12761848Y-16494698D02*
X12723753Y-16494698D01*
X12723753Y-16494698D02*
X12704706Y-16504222D01*
X12704706Y-16504222D02*
X12695182Y-16513746D01*
X12695182Y-16513746D02*
X12685658Y-16532793D01*
X12685658Y-16532793D02*
X12685658Y-16570888D01*
X12685658Y-16570888D02*
X12695182Y-16589936D01*
X12695182Y-16589936D02*
X12704706Y-16599460D01*
X12704706Y-16599460D02*
X12723753Y-16608984D01*
X12723753Y-16608984D02*
X12761848Y-16608984D01*
X12761848Y-16608984D02*
X12780896Y-16599460D01*
X12780896Y-16599460D02*
X12790420Y-16589936D01*
X12790420Y-16589936D02*
X12799944Y-16570888D01*
X12799944Y-16570888D02*
X12799944Y-16532793D01*
X12799944Y-16532793D02*
X12790420Y-16513746D01*
X12790420Y-16513746D02*
X12780896Y-16504222D01*
X12780896Y-16504222D02*
X12761848Y-16494698D01*
X12876134Y-16408984D02*
X12876134Y-16447079D01*
X12952325Y-16408984D02*
X12952325Y-16447079D01*
X13247563Y-16685174D02*
X13238039Y-16675650D01*
X13238039Y-16675650D02*
X13218991Y-16647079D01*
X13218991Y-16647079D02*
X13209468Y-16628031D01*
X13209468Y-16628031D02*
X13199944Y-16599460D01*
X13199944Y-16599460D02*
X13190420Y-16551841D01*
X13190420Y-16551841D02*
X13190420Y-16513746D01*
X13190420Y-16513746D02*
X13199944Y-16466127D01*
X13199944Y-16466127D02*
X13209468Y-16437555D01*
X13209468Y-16437555D02*
X13218991Y-16418508D01*
X13218991Y-16418508D02*
X13238039Y-16389936D01*
X13238039Y-16389936D02*
X13247563Y-16380412D01*
X13314229Y-16428031D02*
X13323753Y-16418508D01*
X13323753Y-16418508D02*
X13342801Y-16408984D01*
X13342801Y-16408984D02*
X13390420Y-16408984D01*
X13390420Y-16408984D02*
X13409468Y-16418508D01*
X13409468Y-16418508D02*
X13418991Y-16428031D01*
X13418991Y-16428031D02*
X13428515Y-16447079D01*
X13428515Y-16447079D02*
X13428515Y-16466127D01*
X13428515Y-16466127D02*
X13418991Y-16494698D01*
X13418991Y-16494698D02*
X13304706Y-16608984D01*
X13304706Y-16608984D02*
X13428515Y-16608984D01*
X13666610Y-16608984D02*
X13666610Y-16408984D01*
X13752325Y-16608984D02*
X13752325Y-16504222D01*
X13752325Y-16504222D02*
X13742801Y-16485174D01*
X13742801Y-16485174D02*
X13723753Y-16475650D01*
X13723753Y-16475650D02*
X13695182Y-16475650D01*
X13695182Y-16475650D02*
X13676134Y-16485174D01*
X13676134Y-16485174D02*
X13666610Y-16494698D01*
X13876134Y-16608984D02*
X13857087Y-16599460D01*
X13857087Y-16599460D02*
X13847563Y-16589936D01*
X13847563Y-16589936D02*
X13838039Y-16570888D01*
X13838039Y-16570888D02*
X13838039Y-16513746D01*
X13838039Y-16513746D02*
X13847563Y-16494698D01*
X13847563Y-16494698D02*
X13857087Y-16485174D01*
X13857087Y-16485174D02*
X13876134Y-16475650D01*
X13876134Y-16475650D02*
X13904706Y-16475650D01*
X13904706Y-16475650D02*
X13923753Y-16485174D01*
X13923753Y-16485174D02*
X13933277Y-16494698D01*
X13933277Y-16494698D02*
X13942801Y-16513746D01*
X13942801Y-16513746D02*
X13942801Y-16570888D01*
X13942801Y-16570888D02*
X13933277Y-16589936D01*
X13933277Y-16589936D02*
X13923753Y-16599460D01*
X13923753Y-16599460D02*
X13904706Y-16608984D01*
X13904706Y-16608984D02*
X13876134Y-16608984D01*
X14057087Y-16608984D02*
X14038039Y-16599460D01*
X14038039Y-16599460D02*
X14028515Y-16580412D01*
X14028515Y-16580412D02*
X14028515Y-16408984D01*
X14209468Y-16599460D02*
X14190420Y-16608984D01*
X14190420Y-16608984D02*
X14152325Y-16608984D01*
X14152325Y-16608984D02*
X14133277Y-16599460D01*
X14133277Y-16599460D02*
X14123753Y-16580412D01*
X14123753Y-16580412D02*
X14123753Y-16504222D01*
X14123753Y-16504222D02*
X14133277Y-16485174D01*
X14133277Y-16485174D02*
X14152325Y-16475650D01*
X14152325Y-16475650D02*
X14190420Y-16475650D01*
X14190420Y-16475650D02*
X14209468Y-16485174D01*
X14209468Y-16485174D02*
X14218991Y-16504222D01*
X14218991Y-16504222D02*
X14218991Y-16523269D01*
X14218991Y-16523269D02*
X14123753Y-16542317D01*
X14295182Y-16599460D02*
X14314230Y-16608984D01*
X14314230Y-16608984D02*
X14352325Y-16608984D01*
X14352325Y-16608984D02*
X14371372Y-16599460D01*
X14371372Y-16599460D02*
X14380896Y-16580412D01*
X14380896Y-16580412D02*
X14380896Y-16570888D01*
X14380896Y-16570888D02*
X14371372Y-16551841D01*
X14371372Y-16551841D02*
X14352325Y-16542317D01*
X14352325Y-16542317D02*
X14323753Y-16542317D01*
X14323753Y-16542317D02*
X14304706Y-16532793D01*
X14304706Y-16532793D02*
X14295182Y-16513746D01*
X14295182Y-16513746D02*
X14295182Y-16504222D01*
X14295182Y-16504222D02*
X14304706Y-16485174D01*
X14304706Y-16485174D02*
X14323753Y-16475650D01*
X14323753Y-16475650D02*
X14352325Y-16475650D01*
X14352325Y-16475650D02*
X14371372Y-16485174D01*
X14447563Y-16685174D02*
X14457087Y-16675650D01*
X14457087Y-16675650D02*
X14476134Y-16647079D01*
X14476134Y-16647079D02*
X14485658Y-16628031D01*
X14485658Y-16628031D02*
X14495182Y-16599460D01*
X14495182Y-16599460D02*
X14504706Y-16551841D01*
X14504706Y-16551841D02*
X14504706Y-16513746D01*
X14504706Y-16513746D02*
X14495182Y-16466127D01*
X14495182Y-16466127D02*
X14485658Y-16437555D01*
X14485658Y-16437555D02*
X14476134Y-16418508D01*
X14476134Y-16418508D02*
X14457087Y-16389936D01*
X14457087Y-16389936D02*
X14447563Y-16380412D01*
X14809468Y-16685174D02*
X14799944Y-16675650D01*
X14799944Y-16675650D02*
X14780896Y-16647079D01*
X14780896Y-16647079D02*
X14771372Y-16628031D01*
X14771372Y-16628031D02*
X14761849Y-16599460D01*
X14761849Y-16599460D02*
X14752325Y-16551841D01*
X14752325Y-16551841D02*
X14752325Y-16513746D01*
X14752325Y-16513746D02*
X14761849Y-16466127D01*
X14761849Y-16466127D02*
X14771372Y-16437555D01*
X14771372Y-16437555D02*
X14780896Y-16418508D01*
X14780896Y-16418508D02*
X14799944Y-16389936D01*
X14799944Y-16389936D02*
X14809468Y-16380412D01*
X14885658Y-16475650D02*
X14885658Y-16608984D01*
X14885658Y-16494698D02*
X14895182Y-16485174D01*
X14895182Y-16485174D02*
X14914230Y-16475650D01*
X14914230Y-16475650D02*
X14942801Y-16475650D01*
X14942801Y-16475650D02*
X14961849Y-16485174D01*
X14961849Y-16485174D02*
X14971372Y-16504222D01*
X14971372Y-16504222D02*
X14971372Y-16608984D01*
X15095182Y-16608984D02*
X15076134Y-16599460D01*
X15076134Y-16599460D02*
X15066611Y-16589936D01*
X15066611Y-16589936D02*
X15057087Y-16570888D01*
X15057087Y-16570888D02*
X15057087Y-16513746D01*
X15057087Y-16513746D02*
X15066611Y-16494698D01*
X15066611Y-16494698D02*
X15076134Y-16485174D01*
X15076134Y-16485174D02*
X15095182Y-16475650D01*
X15095182Y-16475650D02*
X15123753Y-16475650D01*
X15123753Y-16475650D02*
X15142801Y-16485174D01*
X15142801Y-16485174D02*
X15152325Y-16494698D01*
X15152325Y-16494698D02*
X15161849Y-16513746D01*
X15161849Y-16513746D02*
X15161849Y-16570888D01*
X15161849Y-16570888D02*
X15152325Y-16589936D01*
X15152325Y-16589936D02*
X15142801Y-16599460D01*
X15142801Y-16599460D02*
X15123753Y-16608984D01*
X15123753Y-16608984D02*
X15095182Y-16608984D01*
X15218992Y-16475650D02*
X15295182Y-16475650D01*
X15247563Y-16408984D02*
X15247563Y-16580412D01*
X15247563Y-16580412D02*
X15257087Y-16599460D01*
X15257087Y-16599460D02*
X15276134Y-16608984D01*
X15276134Y-16608984D02*
X15295182Y-16608984D01*
X15514230Y-16475650D02*
X15514230Y-16675650D01*
X15514230Y-16485174D02*
X15533277Y-16475650D01*
X15533277Y-16475650D02*
X15571373Y-16475650D01*
X15571373Y-16475650D02*
X15590420Y-16485174D01*
X15590420Y-16485174D02*
X15599944Y-16494698D01*
X15599944Y-16494698D02*
X15609468Y-16513746D01*
X15609468Y-16513746D02*
X15609468Y-16570888D01*
X15609468Y-16570888D02*
X15599944Y-16589936D01*
X15599944Y-16589936D02*
X15590420Y-16599460D01*
X15590420Y-16599460D02*
X15571373Y-16608984D01*
X15571373Y-16608984D02*
X15533277Y-16608984D01*
X15533277Y-16608984D02*
X15514230Y-16599460D01*
X15723753Y-16608984D02*
X15704706Y-16599460D01*
X15704706Y-16599460D02*
X15695182Y-16580412D01*
X15695182Y-16580412D02*
X15695182Y-16408984D01*
X15885658Y-16608984D02*
X15885658Y-16504222D01*
X15885658Y-16504222D02*
X15876134Y-16485174D01*
X15876134Y-16485174D02*
X15857087Y-16475650D01*
X15857087Y-16475650D02*
X15818992Y-16475650D01*
X15818992Y-16475650D02*
X15799944Y-16485174D01*
X15885658Y-16599460D02*
X15866611Y-16608984D01*
X15866611Y-16608984D02*
X15818992Y-16608984D01*
X15818992Y-16608984D02*
X15799944Y-16599460D01*
X15799944Y-16599460D02*
X15790420Y-16580412D01*
X15790420Y-16580412D02*
X15790420Y-16561365D01*
X15790420Y-16561365D02*
X15799944Y-16542317D01*
X15799944Y-16542317D02*
X15818992Y-16532793D01*
X15818992Y-16532793D02*
X15866611Y-16532793D01*
X15866611Y-16532793D02*
X15885658Y-16523269D01*
X15952325Y-16475650D02*
X16028515Y-16475650D01*
X15980896Y-16408984D02*
X15980896Y-16580412D01*
X15980896Y-16580412D02*
X15990420Y-16599460D01*
X15990420Y-16599460D02*
X16009468Y-16608984D01*
X16009468Y-16608984D02*
X16028515Y-16608984D01*
X16171373Y-16599460D02*
X16152325Y-16608984D01*
X16152325Y-16608984D02*
X16114230Y-16608984D01*
X16114230Y-16608984D02*
X16095182Y-16599460D01*
X16095182Y-16599460D02*
X16085658Y-16580412D01*
X16085658Y-16580412D02*
X16085658Y-16504222D01*
X16085658Y-16504222D02*
X16095182Y-16485174D01*
X16095182Y-16485174D02*
X16114230Y-16475650D01*
X16114230Y-16475650D02*
X16152325Y-16475650D01*
X16152325Y-16475650D02*
X16171373Y-16485174D01*
X16171373Y-16485174D02*
X16180896Y-16504222D01*
X16180896Y-16504222D02*
X16180896Y-16523269D01*
X16180896Y-16523269D02*
X16085658Y-16542317D01*
X16352325Y-16608984D02*
X16352325Y-16408984D01*
X16352325Y-16599460D02*
X16333277Y-16608984D01*
X16333277Y-16608984D02*
X16295182Y-16608984D01*
X16295182Y-16608984D02*
X16276134Y-16599460D01*
X16276134Y-16599460D02*
X16266611Y-16589936D01*
X16266611Y-16589936D02*
X16257087Y-16570888D01*
X16257087Y-16570888D02*
X16257087Y-16513746D01*
X16257087Y-16513746D02*
X16266611Y-16494698D01*
X16266611Y-16494698D02*
X16276134Y-16485174D01*
X16276134Y-16485174D02*
X16295182Y-16475650D01*
X16295182Y-16475650D02*
X16333277Y-16475650D01*
X16333277Y-16475650D02*
X16352325Y-16485174D01*
X16428515Y-16685174D02*
X16438039Y-16675650D01*
X16438039Y-16675650D02*
X16457087Y-16647079D01*
X16457087Y-16647079D02*
X16466611Y-16628031D01*
X16466611Y-16628031D02*
X16476134Y-16599460D01*
X16476134Y-16599460D02*
X16485658Y-16551841D01*
X16485658Y-16551841D02*
X16485658Y-16513746D01*
X16485658Y-16513746D02*
X16476134Y-16466127D01*
X16476134Y-16466127D02*
X16466611Y-16437555D01*
X16466611Y-16437555D02*
X16457087Y-16418508D01*
X16457087Y-16418508D02*
X16438039Y-16389936D01*
X16438039Y-16389936D02*
X16428515Y-16380412D01*
X9672500Y-16822500D02*
G75*
G02*
X9472500Y-16822500I-100000J0D01*
G01*
X9472500Y-16822500D02*
G75*
G02*
X9672500Y-16822500I100000J0D01*
G01*
X9923753Y-16733031D02*
X9933277Y-16723508D01*
X9933277Y-16723508D02*
X9952324Y-16713984D01*
X9952324Y-16713984D02*
X9999944Y-16713984D01*
X9999944Y-16713984D02*
X10018991Y-16723508D01*
X10018991Y-16723508D02*
X10028515Y-16733031D01*
X10028515Y-16733031D02*
X10038039Y-16752079D01*
X10038039Y-16752079D02*
X10038039Y-16771127D01*
X10038039Y-16771127D02*
X10028515Y-16799698D01*
X10028515Y-16799698D02*
X9914229Y-16913984D01*
X9914229Y-16913984D02*
X10038039Y-16913984D01*
X10123753Y-16894936D02*
X10133277Y-16904460D01*
X10133277Y-16904460D02*
X10123753Y-16913984D01*
X10123753Y-16913984D02*
X10114229Y-16904460D01*
X10114229Y-16904460D02*
X10123753Y-16894936D01*
X10123753Y-16894936D02*
X10123753Y-16913984D01*
X10209467Y-16733031D02*
X10218991Y-16723508D01*
X10218991Y-16723508D02*
X10238039Y-16713984D01*
X10238039Y-16713984D02*
X10285658Y-16713984D01*
X10285658Y-16713984D02*
X10304705Y-16723508D01*
X10304705Y-16723508D02*
X10314229Y-16733031D01*
X10314229Y-16733031D02*
X10323753Y-16752079D01*
X10323753Y-16752079D02*
X10323753Y-16771127D01*
X10323753Y-16771127D02*
X10314229Y-16799698D01*
X10314229Y-16799698D02*
X10199944Y-16913984D01*
X10199944Y-16913984D02*
X10323753Y-16913984D01*
X10447563Y-16713984D02*
X10466610Y-16713984D01*
X10466610Y-16713984D02*
X10485658Y-16723508D01*
X10485658Y-16723508D02*
X10495182Y-16733031D01*
X10495182Y-16733031D02*
X10504705Y-16752079D01*
X10504705Y-16752079D02*
X10514229Y-16790174D01*
X10514229Y-16790174D02*
X10514229Y-16837793D01*
X10514229Y-16837793D02*
X10504705Y-16875889D01*
X10504705Y-16875889D02*
X10495182Y-16894936D01*
X10495182Y-16894936D02*
X10485658Y-16904460D01*
X10485658Y-16904460D02*
X10466610Y-16913984D01*
X10466610Y-16913984D02*
X10447563Y-16913984D01*
X10447563Y-16913984D02*
X10428515Y-16904460D01*
X10428515Y-16904460D02*
X10418991Y-16894936D01*
X10418991Y-16894936D02*
X10409467Y-16875889D01*
X10409467Y-16875889D02*
X10399944Y-16837793D01*
X10399944Y-16837793D02*
X10399944Y-16790174D01*
X10399944Y-16790174D02*
X10409467Y-16752079D01*
X10409467Y-16752079D02*
X10418991Y-16733031D01*
X10418991Y-16733031D02*
X10428515Y-16723508D01*
X10428515Y-16723508D02*
X10447563Y-16713984D01*
X10638039Y-16713984D02*
X10657086Y-16713984D01*
X10657086Y-16713984D02*
X10676134Y-16723508D01*
X10676134Y-16723508D02*
X10685658Y-16733031D01*
X10685658Y-16733031D02*
X10695182Y-16752079D01*
X10695182Y-16752079D02*
X10704705Y-16790174D01*
X10704705Y-16790174D02*
X10704705Y-16837793D01*
X10704705Y-16837793D02*
X10695182Y-16875889D01*
X10695182Y-16875889D02*
X10685658Y-16894936D01*
X10685658Y-16894936D02*
X10676134Y-16904460D01*
X10676134Y-16904460D02*
X10657086Y-16913984D01*
X10657086Y-16913984D02*
X10638039Y-16913984D01*
X10638039Y-16913984D02*
X10618991Y-16904460D01*
X10618991Y-16904460D02*
X10609467Y-16894936D01*
X10609467Y-16894936D02*
X10599944Y-16875889D01*
X10599944Y-16875889D02*
X10590420Y-16837793D01*
X10590420Y-16837793D02*
X10590420Y-16790174D01*
X10590420Y-16790174D02*
X10599944Y-16752079D01*
X10599944Y-16752079D02*
X10609467Y-16733031D01*
X10609467Y-16733031D02*
X10618991Y-16723508D01*
X10618991Y-16723508D02*
X10638039Y-16713984D01*
X10790420Y-16913984D02*
X10790420Y-16780650D01*
X10790420Y-16799698D02*
X10799944Y-16790174D01*
X10799944Y-16790174D02*
X10818991Y-16780650D01*
X10818991Y-16780650D02*
X10847563Y-16780650D01*
X10847563Y-16780650D02*
X10866610Y-16790174D01*
X10866610Y-16790174D02*
X10876134Y-16809222D01*
X10876134Y-16809222D02*
X10876134Y-16913984D01*
X10876134Y-16809222D02*
X10885658Y-16790174D01*
X10885658Y-16790174D02*
X10904705Y-16780650D01*
X10904705Y-16780650D02*
X10933277Y-16780650D01*
X10933277Y-16780650D02*
X10952325Y-16790174D01*
X10952325Y-16790174D02*
X10961848Y-16809222D01*
X10961848Y-16809222D02*
X10961848Y-16913984D01*
X11057086Y-16913984D02*
X11057086Y-16780650D01*
X11057086Y-16799698D02*
X11066610Y-16790174D01*
X11066610Y-16790174D02*
X11085658Y-16780650D01*
X11085658Y-16780650D02*
X11114229Y-16780650D01*
X11114229Y-16780650D02*
X11133277Y-16790174D01*
X11133277Y-16790174D02*
X11142801Y-16809222D01*
X11142801Y-16809222D02*
X11142801Y-16913984D01*
X11142801Y-16809222D02*
X11152325Y-16790174D01*
X11152325Y-16790174D02*
X11171372Y-16780650D01*
X11171372Y-16780650D02*
X11199943Y-16780650D01*
X11199943Y-16780650D02*
X11218991Y-16790174D01*
X11218991Y-16790174D02*
X11228515Y-16809222D01*
X11228515Y-16809222D02*
X11228515Y-16913984D01*
X11618991Y-16704460D02*
X11447563Y-16961603D01*
X11876134Y-16713984D02*
X11895182Y-16713984D01*
X11895182Y-16713984D02*
X11914229Y-16723508D01*
X11914229Y-16723508D02*
X11923753Y-16733031D01*
X11923753Y-16733031D02*
X11933277Y-16752079D01*
X11933277Y-16752079D02*
X11942801Y-16790174D01*
X11942801Y-16790174D02*
X11942801Y-16837793D01*
X11942801Y-16837793D02*
X11933277Y-16875889D01*
X11933277Y-16875889D02*
X11923753Y-16894936D01*
X11923753Y-16894936D02*
X11914229Y-16904460D01*
X11914229Y-16904460D02*
X11895182Y-16913984D01*
X11895182Y-16913984D02*
X11876134Y-16913984D01*
X11876134Y-16913984D02*
X11857086Y-16904460D01*
X11857086Y-16904460D02*
X11847563Y-16894936D01*
X11847563Y-16894936D02*
X11838039Y-16875889D01*
X11838039Y-16875889D02*
X11828515Y-16837793D01*
X11828515Y-16837793D02*
X11828515Y-16790174D01*
X11828515Y-16790174D02*
X11838039Y-16752079D01*
X11838039Y-16752079D02*
X11847563Y-16733031D01*
X11847563Y-16733031D02*
X11857086Y-16723508D01*
X11857086Y-16723508D02*
X11876134Y-16713984D01*
X12028515Y-16894936D02*
X12038039Y-16904460D01*
X12038039Y-16904460D02*
X12028515Y-16913984D01*
X12028515Y-16913984D02*
X12018991Y-16904460D01*
X12018991Y-16904460D02*
X12028515Y-16894936D01*
X12028515Y-16894936D02*
X12028515Y-16913984D01*
X12161848Y-16713984D02*
X12180896Y-16713984D01*
X12180896Y-16713984D02*
X12199944Y-16723508D01*
X12199944Y-16723508D02*
X12209467Y-16733031D01*
X12209467Y-16733031D02*
X12218991Y-16752079D01*
X12218991Y-16752079D02*
X12228515Y-16790174D01*
X12228515Y-16790174D02*
X12228515Y-16837793D01*
X12228515Y-16837793D02*
X12218991Y-16875889D01*
X12218991Y-16875889D02*
X12209467Y-16894936D01*
X12209467Y-16894936D02*
X12199944Y-16904460D01*
X12199944Y-16904460D02*
X12180896Y-16913984D01*
X12180896Y-16913984D02*
X12161848Y-16913984D01*
X12161848Y-16913984D02*
X12142801Y-16904460D01*
X12142801Y-16904460D02*
X12133277Y-16894936D01*
X12133277Y-16894936D02*
X12123753Y-16875889D01*
X12123753Y-16875889D02*
X12114229Y-16837793D01*
X12114229Y-16837793D02*
X12114229Y-16790174D01*
X12114229Y-16790174D02*
X12123753Y-16752079D01*
X12123753Y-16752079D02*
X12133277Y-16733031D01*
X12133277Y-16733031D02*
X12142801Y-16723508D01*
X12142801Y-16723508D02*
X12161848Y-16713984D01*
X12342801Y-16799698D02*
X12323753Y-16790174D01*
X12323753Y-16790174D02*
X12314229Y-16780650D01*
X12314229Y-16780650D02*
X12304706Y-16761603D01*
X12304706Y-16761603D02*
X12304706Y-16752079D01*
X12304706Y-16752079D02*
X12314229Y-16733031D01*
X12314229Y-16733031D02*
X12323753Y-16723508D01*
X12323753Y-16723508D02*
X12342801Y-16713984D01*
X12342801Y-16713984D02*
X12380896Y-16713984D01*
X12380896Y-16713984D02*
X12399944Y-16723508D01*
X12399944Y-16723508D02*
X12409467Y-16733031D01*
X12409467Y-16733031D02*
X12418991Y-16752079D01*
X12418991Y-16752079D02*
X12418991Y-16761603D01*
X12418991Y-16761603D02*
X12409467Y-16780650D01*
X12409467Y-16780650D02*
X12399944Y-16790174D01*
X12399944Y-16790174D02*
X12380896Y-16799698D01*
X12380896Y-16799698D02*
X12342801Y-16799698D01*
X12342801Y-16799698D02*
X12323753Y-16809222D01*
X12323753Y-16809222D02*
X12314229Y-16818746D01*
X12314229Y-16818746D02*
X12304706Y-16837793D01*
X12304706Y-16837793D02*
X12304706Y-16875889D01*
X12304706Y-16875889D02*
X12314229Y-16894936D01*
X12314229Y-16894936D02*
X12323753Y-16904460D01*
X12323753Y-16904460D02*
X12342801Y-16913984D01*
X12342801Y-16913984D02*
X12380896Y-16913984D01*
X12380896Y-16913984D02*
X12399944Y-16904460D01*
X12399944Y-16904460D02*
X12409467Y-16894936D01*
X12409467Y-16894936D02*
X12418991Y-16875889D01*
X12418991Y-16875889D02*
X12418991Y-16837793D01*
X12418991Y-16837793D02*
X12409467Y-16818746D01*
X12409467Y-16818746D02*
X12399944Y-16809222D01*
X12399944Y-16809222D02*
X12380896Y-16799698D01*
X12590420Y-16713984D02*
X12552325Y-16713984D01*
X12552325Y-16713984D02*
X12533277Y-16723508D01*
X12533277Y-16723508D02*
X12523753Y-16733031D01*
X12523753Y-16733031D02*
X12504706Y-16761603D01*
X12504706Y-16761603D02*
X12495182Y-16799698D01*
X12495182Y-16799698D02*
X12495182Y-16875889D01*
X12495182Y-16875889D02*
X12504706Y-16894936D01*
X12504706Y-16894936D02*
X12514229Y-16904460D01*
X12514229Y-16904460D02*
X12533277Y-16913984D01*
X12533277Y-16913984D02*
X12571372Y-16913984D01*
X12571372Y-16913984D02*
X12590420Y-16904460D01*
X12590420Y-16904460D02*
X12599944Y-16894936D01*
X12599944Y-16894936D02*
X12609467Y-16875889D01*
X12609467Y-16875889D02*
X12609467Y-16828270D01*
X12609467Y-16828270D02*
X12599944Y-16809222D01*
X12599944Y-16809222D02*
X12590420Y-16799698D01*
X12590420Y-16799698D02*
X12571372Y-16790174D01*
X12571372Y-16790174D02*
X12533277Y-16790174D01*
X12533277Y-16790174D02*
X12514229Y-16799698D01*
X12514229Y-16799698D02*
X12504706Y-16809222D01*
X12504706Y-16809222D02*
X12495182Y-16828270D01*
X12780896Y-16713984D02*
X12742801Y-16713984D01*
X12742801Y-16713984D02*
X12723753Y-16723508D01*
X12723753Y-16723508D02*
X12714229Y-16733031D01*
X12714229Y-16733031D02*
X12695182Y-16761603D01*
X12695182Y-16761603D02*
X12685658Y-16799698D01*
X12685658Y-16799698D02*
X12685658Y-16875889D01*
X12685658Y-16875889D02*
X12695182Y-16894936D01*
X12695182Y-16894936D02*
X12704706Y-16904460D01*
X12704706Y-16904460D02*
X12723753Y-16913984D01*
X12723753Y-16913984D02*
X12761848Y-16913984D01*
X12761848Y-16913984D02*
X12780896Y-16904460D01*
X12780896Y-16904460D02*
X12790420Y-16894936D01*
X12790420Y-16894936D02*
X12799944Y-16875889D01*
X12799944Y-16875889D02*
X12799944Y-16828270D01*
X12799944Y-16828270D02*
X12790420Y-16809222D01*
X12790420Y-16809222D02*
X12780896Y-16799698D01*
X12780896Y-16799698D02*
X12761848Y-16790174D01*
X12761848Y-16790174D02*
X12723753Y-16790174D01*
X12723753Y-16790174D02*
X12704706Y-16799698D01*
X12704706Y-16799698D02*
X12695182Y-16809222D01*
X12695182Y-16809222D02*
X12685658Y-16828270D01*
X12876134Y-16713984D02*
X12876134Y-16752079D01*
X12952325Y-16713984D02*
X12952325Y-16752079D01*
X13247563Y-16990174D02*
X13238039Y-16980650D01*
X13238039Y-16980650D02*
X13218991Y-16952079D01*
X13218991Y-16952079D02*
X13209468Y-16933031D01*
X13209468Y-16933031D02*
X13199944Y-16904460D01*
X13199944Y-16904460D02*
X13190420Y-16856841D01*
X13190420Y-16856841D02*
X13190420Y-16818746D01*
X13190420Y-16818746D02*
X13199944Y-16771127D01*
X13199944Y-16771127D02*
X13209468Y-16742555D01*
X13209468Y-16742555D02*
X13218991Y-16723508D01*
X13218991Y-16723508D02*
X13238039Y-16694936D01*
X13238039Y-16694936D02*
X13247563Y-16685412D01*
X13409468Y-16780650D02*
X13409468Y-16913984D01*
X13361848Y-16704460D02*
X13314229Y-16847317D01*
X13314229Y-16847317D02*
X13438039Y-16847317D01*
X13666610Y-16913984D02*
X13666610Y-16713984D01*
X13752325Y-16913984D02*
X13752325Y-16809222D01*
X13752325Y-16809222D02*
X13742801Y-16790174D01*
X13742801Y-16790174D02*
X13723753Y-16780650D01*
X13723753Y-16780650D02*
X13695182Y-16780650D01*
X13695182Y-16780650D02*
X13676134Y-16790174D01*
X13676134Y-16790174D02*
X13666610Y-16799698D01*
X13876134Y-16913984D02*
X13857087Y-16904460D01*
X13857087Y-16904460D02*
X13847563Y-16894936D01*
X13847563Y-16894936D02*
X13838039Y-16875889D01*
X13838039Y-16875889D02*
X13838039Y-16818746D01*
X13838039Y-16818746D02*
X13847563Y-16799698D01*
X13847563Y-16799698D02*
X13857087Y-16790174D01*
X13857087Y-16790174D02*
X13876134Y-16780650D01*
X13876134Y-16780650D02*
X13904706Y-16780650D01*
X13904706Y-16780650D02*
X13923753Y-16790174D01*
X13923753Y-16790174D02*
X13933277Y-16799698D01*
X13933277Y-16799698D02*
X13942801Y-16818746D01*
X13942801Y-16818746D02*
X13942801Y-16875889D01*
X13942801Y-16875889D02*
X13933277Y-16894936D01*
X13933277Y-16894936D02*
X13923753Y-16904460D01*
X13923753Y-16904460D02*
X13904706Y-16913984D01*
X13904706Y-16913984D02*
X13876134Y-16913984D01*
X14057087Y-16913984D02*
X14038039Y-16904460D01*
X14038039Y-16904460D02*
X14028515Y-16885412D01*
X14028515Y-16885412D02*
X14028515Y-16713984D01*
X14209468Y-16904460D02*
X14190420Y-16913984D01*
X14190420Y-16913984D02*
X14152325Y-16913984D01*
X14152325Y-16913984D02*
X14133277Y-16904460D01*
X14133277Y-16904460D02*
X14123753Y-16885412D01*
X14123753Y-16885412D02*
X14123753Y-16809222D01*
X14123753Y-16809222D02*
X14133277Y-16790174D01*
X14133277Y-16790174D02*
X14152325Y-16780650D01*
X14152325Y-16780650D02*
X14190420Y-16780650D01*
X14190420Y-16780650D02*
X14209468Y-16790174D01*
X14209468Y-16790174D02*
X14218991Y-16809222D01*
X14218991Y-16809222D02*
X14218991Y-16828270D01*
X14218991Y-16828270D02*
X14123753Y-16847317D01*
X14295182Y-16904460D02*
X14314230Y-16913984D01*
X14314230Y-16913984D02*
X14352325Y-16913984D01*
X14352325Y-16913984D02*
X14371372Y-16904460D01*
X14371372Y-16904460D02*
X14380896Y-16885412D01*
X14380896Y-16885412D02*
X14380896Y-16875889D01*
X14380896Y-16875889D02*
X14371372Y-16856841D01*
X14371372Y-16856841D02*
X14352325Y-16847317D01*
X14352325Y-16847317D02*
X14323753Y-16847317D01*
X14323753Y-16847317D02*
X14304706Y-16837793D01*
X14304706Y-16837793D02*
X14295182Y-16818746D01*
X14295182Y-16818746D02*
X14295182Y-16809222D01*
X14295182Y-16809222D02*
X14304706Y-16790174D01*
X14304706Y-16790174D02*
X14323753Y-16780650D01*
X14323753Y-16780650D02*
X14352325Y-16780650D01*
X14352325Y-16780650D02*
X14371372Y-16790174D01*
X14447563Y-16990174D02*
X14457087Y-16980650D01*
X14457087Y-16980650D02*
X14476134Y-16952079D01*
X14476134Y-16952079D02*
X14485658Y-16933031D01*
X14485658Y-16933031D02*
X14495182Y-16904460D01*
X14495182Y-16904460D02*
X14504706Y-16856841D01*
X14504706Y-16856841D02*
X14504706Y-16818746D01*
X14504706Y-16818746D02*
X14495182Y-16771127D01*
X14495182Y-16771127D02*
X14485658Y-16742555D01*
X14485658Y-16742555D02*
X14476134Y-16723508D01*
X14476134Y-16723508D02*
X14457087Y-16694936D01*
X14457087Y-16694936D02*
X14447563Y-16685412D01*
X14809468Y-16990174D02*
X14799944Y-16980650D01*
X14799944Y-16980650D02*
X14780896Y-16952079D01*
X14780896Y-16952079D02*
X14771372Y-16933031D01*
X14771372Y-16933031D02*
X14761849Y-16904460D01*
X14761849Y-16904460D02*
X14752325Y-16856841D01*
X14752325Y-16856841D02*
X14752325Y-16818746D01*
X14752325Y-16818746D02*
X14761849Y-16771127D01*
X14761849Y-16771127D02*
X14771372Y-16742555D01*
X14771372Y-16742555D02*
X14780896Y-16723508D01*
X14780896Y-16723508D02*
X14799944Y-16694936D01*
X14799944Y-16694936D02*
X14809468Y-16685412D01*
X14885658Y-16780650D02*
X14885658Y-16913984D01*
X14885658Y-16799698D02*
X14895182Y-16790174D01*
X14895182Y-16790174D02*
X14914230Y-16780650D01*
X14914230Y-16780650D02*
X14942801Y-16780650D01*
X14942801Y-16780650D02*
X14961849Y-16790174D01*
X14961849Y-16790174D02*
X14971372Y-16809222D01*
X14971372Y-16809222D02*
X14971372Y-16913984D01*
X15095182Y-16913984D02*
X15076134Y-16904460D01*
X15076134Y-16904460D02*
X15066611Y-16894936D01*
X15066611Y-16894936D02*
X15057087Y-16875889D01*
X15057087Y-16875889D02*
X15057087Y-16818746D01*
X15057087Y-16818746D02*
X15066611Y-16799698D01*
X15066611Y-16799698D02*
X15076134Y-16790174D01*
X15076134Y-16790174D02*
X15095182Y-16780650D01*
X15095182Y-16780650D02*
X15123753Y-16780650D01*
X15123753Y-16780650D02*
X15142801Y-16790174D01*
X15142801Y-16790174D02*
X15152325Y-16799698D01*
X15152325Y-16799698D02*
X15161849Y-16818746D01*
X15161849Y-16818746D02*
X15161849Y-16875889D01*
X15161849Y-16875889D02*
X15152325Y-16894936D01*
X15152325Y-16894936D02*
X15142801Y-16904460D01*
X15142801Y-16904460D02*
X15123753Y-16913984D01*
X15123753Y-16913984D02*
X15095182Y-16913984D01*
X15218992Y-16780650D02*
X15295182Y-16780650D01*
X15247563Y-16713984D02*
X15247563Y-16885412D01*
X15247563Y-16885412D02*
X15257087Y-16904460D01*
X15257087Y-16904460D02*
X15276134Y-16913984D01*
X15276134Y-16913984D02*
X15295182Y-16913984D01*
X15514230Y-16780650D02*
X15514230Y-16980650D01*
X15514230Y-16790174D02*
X15533277Y-16780650D01*
X15533277Y-16780650D02*
X15571373Y-16780650D01*
X15571373Y-16780650D02*
X15590420Y-16790174D01*
X15590420Y-16790174D02*
X15599944Y-16799698D01*
X15599944Y-16799698D02*
X15609468Y-16818746D01*
X15609468Y-16818746D02*
X15609468Y-16875889D01*
X15609468Y-16875889D02*
X15599944Y-16894936D01*
X15599944Y-16894936D02*
X15590420Y-16904460D01*
X15590420Y-16904460D02*
X15571373Y-16913984D01*
X15571373Y-16913984D02*
X15533277Y-16913984D01*
X15533277Y-16913984D02*
X15514230Y-16904460D01*
X15723753Y-16913984D02*
X15704706Y-16904460D01*
X15704706Y-16904460D02*
X15695182Y-16885412D01*
X15695182Y-16885412D02*
X15695182Y-16713984D01*
X15885658Y-16913984D02*
X15885658Y-16809222D01*
X15885658Y-16809222D02*
X15876134Y-16790174D01*
X15876134Y-16790174D02*
X15857087Y-16780650D01*
X15857087Y-16780650D02*
X15818992Y-16780650D01*
X15818992Y-16780650D02*
X15799944Y-16790174D01*
X15885658Y-16904460D02*
X15866611Y-16913984D01*
X15866611Y-16913984D02*
X15818992Y-16913984D01*
X15818992Y-16913984D02*
X15799944Y-16904460D01*
X15799944Y-16904460D02*
X15790420Y-16885412D01*
X15790420Y-16885412D02*
X15790420Y-16866365D01*
X15790420Y-16866365D02*
X15799944Y-16847317D01*
X15799944Y-16847317D02*
X15818992Y-16837793D01*
X15818992Y-16837793D02*
X15866611Y-16837793D01*
X15866611Y-16837793D02*
X15885658Y-16828270D01*
X15952325Y-16780650D02*
X16028515Y-16780650D01*
X15980896Y-16713984D02*
X15980896Y-16885412D01*
X15980896Y-16885412D02*
X15990420Y-16904460D01*
X15990420Y-16904460D02*
X16009468Y-16913984D01*
X16009468Y-16913984D02*
X16028515Y-16913984D01*
X16171373Y-16904460D02*
X16152325Y-16913984D01*
X16152325Y-16913984D02*
X16114230Y-16913984D01*
X16114230Y-16913984D02*
X16095182Y-16904460D01*
X16095182Y-16904460D02*
X16085658Y-16885412D01*
X16085658Y-16885412D02*
X16085658Y-16809222D01*
X16085658Y-16809222D02*
X16095182Y-16790174D01*
X16095182Y-16790174D02*
X16114230Y-16780650D01*
X16114230Y-16780650D02*
X16152325Y-16780650D01*
X16152325Y-16780650D02*
X16171373Y-16790174D01*
X16171373Y-16790174D02*
X16180896Y-16809222D01*
X16180896Y-16809222D02*
X16180896Y-16828270D01*
X16180896Y-16828270D02*
X16085658Y-16847317D01*
X16352325Y-16913984D02*
X16352325Y-16713984D01*
X16352325Y-16904460D02*
X16333277Y-16913984D01*
X16333277Y-16913984D02*
X16295182Y-16913984D01*
X16295182Y-16913984D02*
X16276134Y-16904460D01*
X16276134Y-16904460D02*
X16266611Y-16894936D01*
X16266611Y-16894936D02*
X16257087Y-16875889D01*
X16257087Y-16875889D02*
X16257087Y-16818746D01*
X16257087Y-16818746D02*
X16266611Y-16799698D01*
X16266611Y-16799698D02*
X16276134Y-16790174D01*
X16276134Y-16790174D02*
X16295182Y-16780650D01*
X16295182Y-16780650D02*
X16333277Y-16780650D01*
X16333277Y-16780650D02*
X16352325Y-16790174D01*
X16428515Y-16990174D02*
X16438039Y-16980650D01*
X16438039Y-16980650D02*
X16457087Y-16952079D01*
X16457087Y-16952079D02*
X16466611Y-16933031D01*
X16466611Y-16933031D02*
X16476134Y-16904460D01*
X16476134Y-16904460D02*
X16485658Y-16856841D01*
X16485658Y-16856841D02*
X16485658Y-16818746D01*
X16485658Y-16818746D02*
X16476134Y-16771127D01*
X16476134Y-16771127D02*
X16466611Y-16742555D01*
X16466611Y-16742555D02*
X16457087Y-16723508D01*
X16457087Y-16723508D02*
X16438039Y-16694936D01*
X16438039Y-16694936D02*
X16428515Y-16685412D01*
M02*
