%TF.GenerationSoftware,KiCad,Pcbnew,8.0.6*%
%TF.CreationDate,2024-11-07T16:30:57+01:00*%
%TF.ProjectId,SQUIM_v02,53515549-4d5f-4763-9032-2e6b69636164,rev?*%
%TF.SameCoordinates,Original*%
%TF.FileFunction,Soldermask,Bot*%
%TF.FilePolarity,Negative*%
%FSLAX46Y46*%
G04 Gerber Fmt 4.6, Leading zero omitted, Abs format (unit mm)*
G04 Created by KiCad (PCBNEW 8.0.6) date 2024-11-07 16:30:57*
%MOMM*%
%LPD*%
G01*
G04 APERTURE LIST*
G04 Aperture macros list*
%AMRoundRect*
0 Rectangle with rounded corners*
0 $1 Rounding radius*
0 $2 $3 $4 $5 $6 $7 $8 $9 X,Y pos of 4 corners*
0 Add a 4 corners polygon primitive as box body*
4,1,4,$2,$3,$4,$5,$6,$7,$8,$9,$2,$3,0*
0 Add four circle primitives for the rounded corners*
1,1,$1+$1,$2,$3*
1,1,$1+$1,$4,$5*
1,1,$1+$1,$6,$7*
1,1,$1+$1,$8,$9*
0 Add four rect primitives between the rounded corners*
20,1,$1+$1,$2,$3,$4,$5,0*
20,1,$1+$1,$4,$5,$6,$7,0*
20,1,$1+$1,$6,$7,$8,$9,0*
20,1,$1+$1,$8,$9,$2,$3,0*%
%AMHorizOval*
0 Thick line with rounded ends*
0 $1 width*
0 $2 $3 position (X,Y) of the first rounded end (center of the circle)*
0 $4 $5 position (X,Y) of the second rounded end (center of the circle)*
0 Add line between two ends*
20,1,$1,$2,$3,$4,$5,0*
0 Add two circle primitives to create the rounded ends*
1,1,$1,$2,$3*
1,1,$1,$4,$5*%
%AMRotRect*
0 Rectangle, with rotation*
0 The origin of the aperture is its center*
0 $1 length*
0 $2 width*
0 $3 Rotation angle, in degrees counterclockwise*
0 Add horizontal line*
21,1,$1,$2,0,0,$3*%
%AMFreePoly0*
4,1,28,0.605014,0.794986,0.644504,0.794986,0.724698,0.756366,0.780194,0.686777,0.800000,0.600000,0.800000,-0.600000,0.780194,-0.686777,0.724698,-0.756366,0.644504,-0.794986,0.605014,-0.794986,0.600000,-0.800000,0.000000,-0.800000,-0.178017,-0.779942,-0.347107,-0.720775,-0.498792,-0.625465,-0.625465,-0.498792,-0.720775,-0.347107,-0.779942,-0.178017,-0.800000,0.000000,-0.779942,0.178017,
-0.720775,0.347107,-0.625465,0.498792,-0.498792,0.625465,-0.347107,0.720775,-0.178017,0.779942,0.000000,0.800000,0.600000,0.800000,0.605014,0.794986,0.605014,0.794986,$1*%
%AMFreePoly1*
4,1,28,0.178017,0.779942,0.347107,0.720775,0.498792,0.625465,0.625465,0.498792,0.720775,0.347107,0.779942,0.178017,0.800000,0.000000,0.779942,-0.178017,0.720775,-0.347107,0.625465,-0.498792,0.498792,-0.625465,0.347107,-0.720775,0.178017,-0.779942,0.000000,-0.800000,-0.600000,-0.800000,-0.605014,-0.794986,-0.644504,-0.794986,-0.724698,-0.756366,-0.780194,-0.686777,-0.800000,-0.600000,
-0.800000,0.600000,-0.780194,0.686777,-0.724698,0.756366,-0.644504,0.794986,-0.605014,0.794986,-0.600000,0.800000,0.000000,0.800000,0.178017,0.779942,0.178017,0.779942,$1*%
G04 Aperture macros list end*
%ADD10C,0.000000*%
%ADD11RoundRect,0.063500X1.206500X-0.571500X1.206500X0.571500X-1.206500X0.571500X-1.206500X-0.571500X0*%
%ADD12RoundRect,0.063500X-1.206500X0.571500X-1.206500X-0.571500X1.206500X-0.571500X1.206500X0.571500X0*%
%ADD13C,2.200000*%
%ADD14RoundRect,0.250000X-0.625000X0.350000X-0.625000X-0.350000X0.625000X-0.350000X0.625000X0.350000X0*%
%ADD15O,1.750000X1.200000*%
%ADD16RoundRect,0.325000X0.472005X-0.805271X0.168120X0.918142X-0.472005X0.805271X-0.168120X-0.918142X0*%
%ADD17RoundRect,0.550000X-1.332465X-0.793434X1.523478X-0.289854X1.332465X0.793434X-1.523478X0.289854X0*%
%ADD18RoundRect,0.550000X0.793434X-1.332465X0.289854X1.523478X-0.793434X1.332465X-0.289854X-1.523478X0*%
%ADD19RotRect,1.700000X1.700000X135.000000*%
%ADD20HorizOval,1.700000X0.000000X0.000000X0.000000X0.000000X0*%
%ADD21C,4.000000*%
%ADD22C,1.800000*%
%ADD23RoundRect,0.250001X1.099999X-1.099999X1.099999X1.099999X-1.099999X1.099999X-1.099999X-1.099999X0*%
%ADD24C,2.700000*%
%ADD25RoundRect,0.250001X-1.099999X1.099999X-1.099999X-1.099999X1.099999X-1.099999X1.099999X1.099999X0*%
%ADD26C,1.850000*%
%ADD27RoundRect,0.200000X0.600000X0.600000X-0.600000X0.600000X-0.600000X-0.600000X0.600000X-0.600000X0*%
%ADD28C,1.600000*%
%ADD29FreePoly0,180.000000*%
%ADD30FreePoly1,180.000000*%
%ADD31RotRect,1.700000X1.700000X303.000000*%
%ADD32C,1.700000*%
%ADD33R,1.700000X1.700000*%
%ADD34O,1.700000X1.700000*%
G04 APERTURE END LIST*
D10*
%TO.C,REF\u002A\u002A*%
G36*
X153572254Y-83431470D02*
G01*
X154626618Y-84485835D01*
X154279192Y-85528280D01*
X153931764Y-86570726D01*
X152529890Y-85168851D01*
X151128014Y-83766977D01*
X151822951Y-83072039D01*
X152517887Y-82377103D01*
X153572254Y-83431470D01*
G37*
G36*
X149315770Y-79174987D02*
G01*
X150361229Y-80220446D01*
X149318783Y-80567872D01*
X148276337Y-80915302D01*
X146883529Y-79522491D01*
X145490719Y-78129682D01*
X146880515Y-78129604D01*
X148270310Y-78129527D01*
X149315770Y-79174987D01*
G37*
G36*
X152055813Y-79326991D02*
G01*
X152059467Y-79330655D01*
X152122387Y-79399256D01*
X152159693Y-79454268D01*
X152173909Y-79500576D01*
X152167565Y-79543064D01*
X152138575Y-79582669D01*
X152090441Y-79602022D01*
X152034381Y-79594038D01*
X152010148Y-79580333D01*
X151962893Y-79533008D01*
X151923244Y-79467993D01*
X151898530Y-79395970D01*
X151891932Y-79349162D01*
X151899052Y-79312767D01*
X151924965Y-79279673D01*
X151966731Y-79237908D01*
X152055813Y-79326991D01*
G37*
G36*
X155917641Y-84075462D02*
G01*
X156753275Y-84911096D01*
X156753405Y-85719857D01*
X156753408Y-85722712D01*
X156753243Y-85884870D01*
X156752734Y-86036468D01*
X156751920Y-86174173D01*
X156750830Y-86294655D01*
X156749505Y-86394578D01*
X156747982Y-86470610D01*
X156746297Y-86519416D01*
X156744485Y-86537669D01*
X156736050Y-86531394D01*
X156705313Y-86503279D01*
X156653781Y-86454219D01*
X156583193Y-86385928D01*
X156495295Y-86300118D01*
X156391828Y-86198500D01*
X156274533Y-86082786D01*
X156145154Y-85954690D01*
X156005433Y-85815923D01*
X155857112Y-85668198D01*
X155701934Y-85513223D01*
X154668434Y-84479723D01*
X154875221Y-83859777D01*
X155082007Y-83239830D01*
X155917641Y-84075462D01*
G37*
G36*
X151569843Y-78478134D02*
G01*
X151625397Y-78501940D01*
X151687520Y-78553702D01*
X151736099Y-78621465D01*
X151762496Y-78695484D01*
X151773393Y-78760273D01*
X151661198Y-78872466D01*
X151653653Y-78880008D01*
X151603047Y-78929704D01*
X151568512Y-78959872D01*
X151543215Y-78974668D01*
X151520315Y-78978254D01*
X151492986Y-78974781D01*
X151492205Y-78974645D01*
X151445787Y-78964412D01*
X151412237Y-78953685D01*
X151379469Y-78932866D01*
X151331860Y-78887791D01*
X151290989Y-78835078D01*
X151267905Y-78787449D01*
X151267806Y-78787068D01*
X151262829Y-78710470D01*
X151289153Y-78636779D01*
X151347965Y-78562654D01*
X151381062Y-78531606D01*
X151443320Y-78488512D01*
X151503553Y-78471714D01*
X151569843Y-78478134D01*
G37*
G36*
X150713067Y-80468515D02*
G01*
X150734859Y-80481762D01*
X150821429Y-80533824D01*
X151055467Y-80648535D01*
X151298095Y-80730501D01*
X151549937Y-80779909D01*
X151811623Y-80796937D01*
X151916141Y-80795495D01*
X152077067Y-80783842D01*
X152227871Y-80758951D01*
X152382549Y-80718906D01*
X152519969Y-80677789D01*
X152932295Y-81090116D01*
X153344622Y-81502442D01*
X152939243Y-81907821D01*
X152866906Y-81979904D01*
X152775541Y-82070177D01*
X152693607Y-82150263D01*
X152623989Y-82217385D01*
X152569572Y-82268766D01*
X152533245Y-82301629D01*
X152517887Y-82313201D01*
X152505346Y-82304096D01*
X152470764Y-82272896D01*
X152416707Y-82221662D01*
X152345414Y-82152633D01*
X152259126Y-82068048D01*
X152160080Y-81970149D01*
X152050519Y-81861173D01*
X151932681Y-81743360D01*
X151808804Y-81618953D01*
X151681130Y-81490186D01*
X151551895Y-81359304D01*
X151423340Y-81228542D01*
X151297707Y-81100141D01*
X151177233Y-80976341D01*
X151064156Y-80859383D01*
X150993546Y-80786028D01*
X150898003Y-80686514D01*
X150823228Y-80608089D01*
X150767476Y-80548756D01*
X150729004Y-80506515D01*
X150706069Y-80479369D01*
X150696930Y-80465319D01*
X150699844Y-80462366D01*
X150713067Y-80468515D01*
G37*
G36*
X152027023Y-76810226D02*
G01*
X152277489Y-76852213D01*
X152520459Y-76924946D01*
X152751486Y-77027088D01*
X152966134Y-77157302D01*
X153045204Y-77217467D01*
X153163398Y-77321501D01*
X153280637Y-77439076D01*
X153387369Y-77560439D01*
X153474038Y-77675835D01*
X153595844Y-77880984D01*
X153699257Y-78115547D01*
X153770748Y-78357489D01*
X153810254Y-78604573D01*
X153817728Y-78854561D01*
X153793112Y-79105217D01*
X153736353Y-79354306D01*
X153647397Y-79599592D01*
X153526192Y-79838834D01*
X153437377Y-79970003D01*
X153320314Y-80108327D01*
X153220075Y-80207923D01*
X153184009Y-80243756D01*
X153035230Y-80370084D01*
X152880744Y-80481115D01*
X152727322Y-80570649D01*
X152646626Y-80609428D01*
X152411027Y-80698232D01*
X152168157Y-80755949D01*
X151921295Y-80782955D01*
X151673718Y-80779623D01*
X151428705Y-80746328D01*
X151189535Y-80683443D01*
X150959483Y-80591343D01*
X150741832Y-80470405D01*
X150539854Y-80320996D01*
X150432033Y-80222970D01*
X150260107Y-80032587D01*
X150199097Y-79944825D01*
X152230326Y-79944825D01*
X152258757Y-79980684D01*
X152284764Y-80003386D01*
X152323869Y-80005434D01*
X152328105Y-80003557D01*
X152358631Y-79981147D01*
X152410723Y-79935524D01*
X152483092Y-79867888D01*
X152574452Y-79779435D01*
X152683517Y-79671363D01*
X152696164Y-79658712D01*
X152790627Y-79563948D01*
X152863969Y-79489552D01*
X152918887Y-79432470D01*
X152958081Y-79389643D01*
X152984251Y-79358013D01*
X153000094Y-79334524D01*
X153008309Y-79316120D01*
X153011596Y-79299741D01*
X153012917Y-79279807D01*
X153005200Y-79253159D01*
X152976284Y-79238845D01*
X152970866Y-79237252D01*
X152959218Y-79235333D01*
X152946254Y-79237801D01*
X152929168Y-79247131D01*
X152905157Y-79265798D01*
X152871418Y-79296269D01*
X152825145Y-79341024D01*
X152763537Y-79402533D01*
X152683787Y-79483274D01*
X152583093Y-79585714D01*
X152357827Y-79815031D01*
X152230326Y-79944825D01*
X150199097Y-79944825D01*
X150116126Y-79825473D01*
X150000760Y-79604116D01*
X149914679Y-79371000D01*
X149913574Y-79366229D01*
X151677999Y-79366229D01*
X151679530Y-79392431D01*
X151700408Y-79424940D01*
X151734191Y-79440171D01*
X151769883Y-79430434D01*
X151800689Y-79407291D01*
X151821825Y-79488269D01*
X151845898Y-79556106D01*
X151896520Y-79636703D01*
X151961720Y-79694732D01*
X152036745Y-79727435D01*
X152116836Y-79732053D01*
X152197237Y-79705832D01*
X152229076Y-79686281D01*
X152257175Y-79655592D01*
X152277856Y-79606839D01*
X152281326Y-79595582D01*
X152292225Y-79537526D01*
X152292344Y-79487414D01*
X152273699Y-79433533D01*
X152234139Y-79364507D01*
X152179307Y-79289941D01*
X152114638Y-79218072D01*
X152078169Y-79180530D01*
X152063456Y-79158531D01*
X152068310Y-79143806D01*
X152090503Y-79128038D01*
X152091159Y-79127629D01*
X152137007Y-79110673D01*
X152190338Y-79105202D01*
X152196994Y-79105593D01*
X152223280Y-79110131D01*
X152248880Y-79122182D01*
X152278052Y-79145622D01*
X152315055Y-79184329D01*
X152364149Y-79242183D01*
X152429592Y-79323064D01*
X152449964Y-79340132D01*
X152490109Y-79346418D01*
X152500119Y-79343602D01*
X152519169Y-79327212D01*
X152520738Y-79290858D01*
X152513725Y-79260827D01*
X152485255Y-79199193D01*
X152441725Y-79131839D01*
X152389956Y-79068800D01*
X152336767Y-79020117D01*
X152292277Y-78994602D01*
X152206971Y-78972610D01*
X152116957Y-78976201D01*
X152033742Y-79005917D01*
X152028117Y-79009643D01*
X152006400Y-79024022D01*
X151955470Y-79064977D01*
X151896498Y-79118078D01*
X151835111Y-79177622D01*
X151776940Y-79237911D01*
X151727612Y-79293241D01*
X151692757Y-79337914D01*
X151677999Y-79366229D01*
X149913574Y-79366229D01*
X149858549Y-79128620D01*
X149833042Y-78879461D01*
X149836526Y-78726812D01*
X151135762Y-78726812D01*
X151144729Y-78819280D01*
X151173339Y-78898378D01*
X151177761Y-78906036D01*
X151206055Y-78949592D01*
X151230452Y-78979710D01*
X151263325Y-79003951D01*
X151317559Y-79032503D01*
X151374154Y-79054506D01*
X151418192Y-79063318D01*
X151433835Y-79063955D01*
X151447945Y-79073423D01*
X151441608Y-79102881D01*
X151437331Y-79140105D01*
X151455178Y-79178254D01*
X151494509Y-79196069D01*
X151500820Y-79195615D01*
X151516935Y-79188627D01*
X151540983Y-79171638D01*
X151575585Y-79142272D01*
X151623360Y-79098146D01*
X151686928Y-79036886D01*
X151768909Y-78956114D01*
X151871923Y-78853448D01*
X151958212Y-78767065D01*
X152039865Y-78684860D01*
X152102079Y-78621291D01*
X152147345Y-78573519D01*
X152178157Y-78538709D01*
X152197007Y-78514018D01*
X152206394Y-78496610D01*
X152208801Y-78483648D01*
X152206731Y-78472289D01*
X152195956Y-78441693D01*
X152179845Y-78427227D01*
X152146456Y-78424867D01*
X152145044Y-78424888D01*
X152121082Y-78431254D01*
X152089600Y-78451596D01*
X152045630Y-78489726D01*
X151984208Y-78549457D01*
X151859618Y-78674047D01*
X151846088Y-78603386D01*
X151840902Y-78580718D01*
X151800335Y-78489838D01*
X151734723Y-78417723D01*
X151648959Y-78368583D01*
X151547928Y-78346633D01*
X151442908Y-78354450D01*
X151378974Y-78380187D01*
X151345332Y-78393727D01*
X151254349Y-78465617D01*
X151247165Y-78472954D01*
X151192051Y-78541003D01*
X151156248Y-78607356D01*
X151147306Y-78635824D01*
X151135762Y-78726812D01*
X149836526Y-78726812D01*
X149838826Y-78626007D01*
X149876571Y-78370754D01*
X149903815Y-78272202D01*
X150599910Y-78272202D01*
X150631991Y-78356042D01*
X150654721Y-78393025D01*
X150692259Y-78439371D01*
X150740876Y-78479551D01*
X150810720Y-78523044D01*
X150864886Y-78552025D01*
X150914903Y-78570219D01*
X150949531Y-78568441D01*
X150974778Y-78547593D01*
X150980503Y-78539884D01*
X150985867Y-78528539D01*
X150982920Y-78515610D01*
X150968141Y-78497051D01*
X150938001Y-78468815D01*
X150888976Y-78426860D01*
X150817543Y-78367135D01*
X150784257Y-78338625D01*
X150749236Y-78303888D01*
X150731997Y-78276119D01*
X150726529Y-78247416D01*
X150726441Y-78245511D01*
X150730686Y-78202180D01*
X150750041Y-78179682D01*
X150787553Y-78177836D01*
X150846258Y-78196460D01*
X150929199Y-78235375D01*
X150973427Y-78256940D01*
X151070834Y-78294716D01*
X151149399Y-78308327D01*
X151212358Y-78298049D01*
X151262952Y-78264165D01*
X151267196Y-78259706D01*
X151303535Y-78199732D01*
X151323055Y-78125549D01*
X151321341Y-78053104D01*
X151314172Y-78030017D01*
X151282128Y-77973615D01*
X151233609Y-77915435D01*
X151175581Y-77861529D01*
X151115006Y-77817955D01*
X151058853Y-77790764D01*
X151014082Y-77786011D01*
X150986469Y-77799796D01*
X150975752Y-77829507D01*
X150991321Y-77867014D01*
X151032220Y-77906001D01*
X151080956Y-77943032D01*
X151147939Y-78008060D01*
X151185664Y-78068157D01*
X151193143Y-78121462D01*
X151169394Y-78166105D01*
X151157956Y-78173918D01*
X151113861Y-78176204D01*
X151049527Y-78153315D01*
X150966261Y-78105642D01*
X150900146Y-78069361D01*
X150813289Y-78043287D01*
X150735911Y-78045621D01*
X150671431Y-78076076D01*
X150623270Y-78134363D01*
X150601469Y-78191203D01*
X150599910Y-78272202D01*
X149903815Y-78272202D01*
X149946945Y-78116184D01*
X149958557Y-78083411D01*
X150056837Y-77862616D01*
X150184151Y-77654700D01*
X150337401Y-77462756D01*
X150513493Y-77289876D01*
X150709330Y-77139152D01*
X150921815Y-77013680D01*
X151147850Y-76916551D01*
X151230124Y-76888921D01*
X151409555Y-76840829D01*
X151587272Y-76812216D01*
X151779022Y-76800186D01*
X152027023Y-76810226D01*
G37*
%TD*%
D11*
%TO.C,J16*%
X127630228Y-150669994D03*
%TD*%
%TO.C,J15*%
X127630228Y-149419994D03*
%TD*%
%TO.C,J14*%
X127630228Y-148169994D03*
%TD*%
%TO.C,J13*%
X127630228Y-146919994D03*
%TD*%
D12*
%TO.C,J11*%
X123390228Y-150669994D03*
%TD*%
%TO.C,J10*%
X123390228Y-149419994D03*
%TD*%
%TO.C,J9*%
X123390228Y-148169994D03*
%TD*%
%TO.C,J8*%
X123390228Y-146919994D03*
%TD*%
D13*
%TO.C,*%
X115540228Y-100639994D03*
%TD*%
%TO.C,*%
X115540228Y-103179994D03*
%TD*%
%TO.C,*%
X115540228Y-108259994D03*
%TD*%
%TO.C,*%
X115540228Y-110799994D03*
%TD*%
%TO.C,*%
X115540228Y-105719994D03*
%TD*%
%TO.C,*%
X115540228Y-113339994D03*
%TD*%
%TO.C,*%
X115540228Y-118419994D03*
%TD*%
%TO.C,*%
X115540228Y-120959994D03*
%TD*%
%TO.C,*%
X115540228Y-115879994D03*
%TD*%
%TO.C,*%
X115540228Y-123499994D03*
%TD*%
%TO.C,*%
X115540228Y-128579994D03*
%TD*%
%TO.C,*%
X115540228Y-131119994D03*
%TD*%
%TO.C,*%
X115540228Y-126039994D03*
%TD*%
%TO.C,*%
X115540228Y-133659994D03*
%TD*%
%TO.C,*%
X115540228Y-136199994D03*
%TD*%
%TO.C,*%
X115540228Y-138739994D03*
%TD*%
%TO.C,*%
X115540228Y-141279994D03*
%TD*%
D14*
%TO.C,J7*%
X123210228Y-151719994D03*
D15*
X123210228Y-153719994D03*
%TD*%
D13*
%TO.C,*%
X113000228Y-100639994D03*
%TD*%
%TO.C,*%
X118080228Y-115879994D03*
%TD*%
%TO.C,*%
X123160228Y-138739994D03*
%TD*%
%TO.C,*%
X125700228Y-100639994D03*
%TD*%
%TO.C,*%
X120620228Y-131119994D03*
%TD*%
%TO.C,*%
X118080228Y-131119994D03*
%TD*%
%TO.C,*%
X128240228Y-133659994D03*
%TD*%
%TO.C,*%
X123160228Y-120959994D03*
%TD*%
%TO.C,*%
X113000228Y-95559994D03*
%TD*%
%TO.C,*%
X113000228Y-141279994D03*
%TD*%
D16*
%TO.C,J2*%
X127192625Y-91613369D03*
D17*
X126280972Y-86443128D03*
D18*
X120988336Y-92707352D03*
D17*
X128104278Y-96783610D03*
%TD*%
D13*
%TO.C,*%
X107920228Y-108259994D03*
%TD*%
%TO.C,*%
X105380228Y-118419994D03*
%TD*%
%TO.C,*%
X115540228Y-87939994D03*
%TD*%
%TO.C,*%
X125700228Y-115879994D03*
%TD*%
%TO.C,*%
X110460228Y-138739994D03*
%TD*%
%TO.C,*%
X120620228Y-136199994D03*
%TD*%
%TO.C,*%
X128240228Y-103179994D03*
%TD*%
%TO.C,*%
X118080228Y-100639994D03*
%TD*%
%TO.C,*%
X110460228Y-123499994D03*
%TD*%
D19*
%TO.C,J6*%
X166300000Y-102000000D03*
D20*
X168096051Y-100203949D03*
X169892102Y-98407898D03*
X171688154Y-96611846D03*
%TD*%
D13*
%TO.C,*%
X110460228Y-131119994D03*
%TD*%
%TO.C,*%
X125700228Y-123499994D03*
%TD*%
%TO.C,*%
X113000228Y-108259994D03*
%TD*%
%TO.C,*%
X110460228Y-93019994D03*
%TD*%
%TO.C,*%
X125700228Y-136199994D03*
%TD*%
%TO.C,*%
X113000228Y-133659994D03*
%TD*%
%TO.C,*%
X110460228Y-143819994D03*
%TD*%
%TO.C,*%
X107920228Y-136199994D03*
%TD*%
%TO.C,*%
X107920228Y-126039994D03*
%TD*%
%TO.C,*%
X123160228Y-131119994D03*
%TD*%
%TO.C,*%
X110460228Y-108259994D03*
%TD*%
%TO.C,*%
X102840228Y-128579994D03*
%TD*%
%TO.C,*%
X123160228Y-136199994D03*
%TD*%
%TO.C,*%
X113000228Y-143819994D03*
%TD*%
%TO.C,*%
X113000228Y-136199994D03*
%TD*%
%TO.C,*%
X125700228Y-118419994D03*
%TD*%
%TO.C,*%
X120620228Y-126039994D03*
%TD*%
%TO.C,*%
X100300228Y-131119994D03*
%TD*%
%TO.C,*%
X113000228Y-120959994D03*
%TD*%
%TO.C,*%
X107920228Y-113339994D03*
%TD*%
%TO.C,*%
X113000228Y-151439994D03*
%TD*%
%TO.C,*%
X110460228Y-120959994D03*
%TD*%
%TO.C,*%
X107920228Y-153979994D03*
%TD*%
%TO.C,*%
X110460228Y-148899994D03*
%TD*%
%TO.C,*%
X125700228Y-108259994D03*
%TD*%
%TO.C,*%
X128240228Y-115879994D03*
%TD*%
%TO.C,*%
X123160228Y-105719994D03*
%TD*%
%TO.C,*%
X120620228Y-123499994D03*
%TD*%
%TO.C,*%
X118080228Y-118419994D03*
%TD*%
%TO.C,*%
X113000228Y-118419994D03*
%TD*%
%TO.C,*%
X125700228Y-103179994D03*
%TD*%
D21*
%TO.C,RV1*%
X156371216Y-93729289D03*
X162593755Y-87506750D03*
D22*
X166200000Y-93800000D03*
X164432233Y-95567767D03*
X162664466Y-97335534D03*
%TD*%
D13*
%TO.C,*%
X125700228Y-128579994D03*
%TD*%
%TO.C,*%
X123160228Y-108259994D03*
%TD*%
%TO.C,*%
X107920228Y-138739994D03*
%TD*%
%TO.C,*%
X128240228Y-123499994D03*
%TD*%
%TO.C,*%
X105380228Y-115879994D03*
%TD*%
%TO.C,*%
X125700228Y-133659994D03*
%TD*%
%TO.C,*%
X128240228Y-113339994D03*
%TD*%
%TO.C,*%
X120620228Y-118419994D03*
%TD*%
%TO.C,*%
X120620228Y-143819994D03*
%TD*%
%TO.C,*%
X110460228Y-115879994D03*
%TD*%
%TO.C,*%
X120620228Y-138739994D03*
%TD*%
%TO.C,*%
X118080228Y-141279994D03*
%TD*%
%TO.C,*%
X105380228Y-128579994D03*
%TD*%
%TO.C,*%
X118080228Y-113339994D03*
%TD*%
%TO.C,*%
X118080228Y-108259994D03*
%TD*%
%TO.C,*%
X102840228Y-146359994D03*
%TD*%
%TO.C,*%
X113000228Y-113339994D03*
%TD*%
%TO.C,*%
X113000228Y-146359994D03*
%TD*%
%TO.C,*%
X107920228Y-115879994D03*
%TD*%
%TO.C,*%
X123160228Y-115879994D03*
%TD*%
%TO.C,*%
X123160228Y-103179994D03*
%TD*%
%TO.C,*%
X120620228Y-108259994D03*
%TD*%
%TO.C,*%
X125700228Y-110799994D03*
%TD*%
%TO.C,*%
X128240228Y-110799994D03*
%TD*%
D23*
%TO.C,J3*%
X134350000Y-102827500D03*
D24*
X134350000Y-97827500D03*
%TD*%
D13*
%TO.C,*%
X125700228Y-105719994D03*
%TD*%
%TO.C,*%
X110460228Y-128579994D03*
%TD*%
%TO.C,*%
X120620228Y-100639994D03*
%TD*%
%TO.C,*%
X123160228Y-100639994D03*
%TD*%
%TO.C,*%
X102840228Y-138739994D03*
%TD*%
%TO.C,*%
X118080228Y-103179994D03*
%TD*%
%TO.C,*%
X110460228Y-126039994D03*
%TD*%
%TO.C,*%
X120620228Y-133659994D03*
%TD*%
%TO.C,*%
X115540228Y-143819994D03*
%TD*%
%TO.C,*%
X118080228Y-136199994D03*
%TD*%
%TO.C,*%
X123160228Y-123499994D03*
%TD*%
%TO.C,*%
X128240228Y-105719994D03*
%TD*%
%TO.C,*%
X125700228Y-131119994D03*
%TD*%
%TO.C,*%
X125700228Y-141279994D03*
%TD*%
%TO.C,*%
X128240228Y-138739994D03*
%TD*%
%TO.C,*%
X110460228Y-136199994D03*
%TD*%
%TO.C,*%
X120620228Y-141279994D03*
%TD*%
%TO.C,*%
X128240228Y-118419994D03*
%TD*%
%TO.C,*%
X123160228Y-113339994D03*
%TD*%
%TO.C,*%
X128240228Y-108259994D03*
%TD*%
%TO.C,*%
X118080228Y-105719994D03*
%TD*%
%TO.C,*%
X110460228Y-95559994D03*
%TD*%
%TO.C,*%
X110460228Y-146359994D03*
%TD*%
%TO.C,*%
X110460228Y-110799994D03*
%TD*%
%TO.C,*%
X128240228Y-141279994D03*
%TD*%
%TO.C,*%
X113000228Y-138739994D03*
%TD*%
%TO.C,*%
X120620228Y-120959994D03*
%TD*%
%TO.C,*%
X107920228Y-151439994D03*
%TD*%
%TO.C,*%
X120620228Y-115879994D03*
%TD*%
%TO.C,*%
X120620228Y-113339994D03*
%TD*%
%TO.C,*%
X128240228Y-120959994D03*
%TD*%
%TO.C,*%
X118080228Y-120959994D03*
%TD*%
%TO.C,*%
X120620228Y-105719994D03*
%TD*%
%TO.C,*%
X125700228Y-138739994D03*
%TD*%
%TO.C,*%
X107920228Y-105719994D03*
%TD*%
D25*
%TO.C,J5*%
X119930228Y-149719994D03*
D24*
X119930228Y-154719994D03*
%TD*%
D13*
%TO.C,*%
X110460228Y-151439994D03*
%TD*%
%TO.C,*%
X123160228Y-141279994D03*
%TD*%
%TO.C,*%
X105380228Y-143819994D03*
%TD*%
%TO.C,*%
X110460228Y-103179994D03*
%TD*%
%TO.C,*%
X128240228Y-136199994D03*
%TD*%
%TO.C,*%
X110460228Y-141279994D03*
%TD*%
%TO.C,*%
X107920228Y-141279994D03*
%TD*%
%TO.C,*%
X113000228Y-123499994D03*
%TD*%
%TO.C,*%
X110460228Y-133659994D03*
%TD*%
%TO.C,U1*%
X144935228Y-156389994D03*
D26*
X144635228Y-153359994D03*
X139785228Y-153359994D03*
D13*
X139485228Y-156389994D03*
D27*
X151100228Y-156519994D03*
D28*
X151100228Y-153979994D03*
D29*
X151100228Y-151439994D03*
D28*
X151100228Y-148899994D03*
X151100228Y-146359994D03*
X151100228Y-143819994D03*
X151100228Y-141279994D03*
D29*
X151100228Y-138739994D03*
D28*
X151100228Y-136199994D03*
X151100228Y-133659994D03*
X151100228Y-131119994D03*
X151100228Y-128579994D03*
D29*
X151100228Y-126039994D03*
D28*
X151100228Y-123499994D03*
X151100228Y-120959994D03*
X151100228Y-118419994D03*
X151100228Y-115879994D03*
D29*
X151100228Y-113339994D03*
D28*
X151100228Y-110799994D03*
X151100228Y-108259994D03*
X133320228Y-108259994D03*
X133320228Y-110799994D03*
D30*
X133320228Y-113339994D03*
D28*
X133320228Y-115879994D03*
X133320228Y-118419994D03*
X133320228Y-120959994D03*
X133320228Y-123499994D03*
D30*
X133320228Y-126039994D03*
D28*
X133320228Y-128579994D03*
X133320228Y-131119994D03*
X133320228Y-133659994D03*
X133320228Y-136199994D03*
D30*
X133320228Y-138739994D03*
D28*
X133320228Y-141279994D03*
X133320228Y-143819994D03*
X133320228Y-146359994D03*
X133320228Y-148899994D03*
D30*
X133320228Y-151439994D03*
D28*
X133320228Y-153979994D03*
X133320228Y-156519994D03*
%TD*%
D13*
%TO.C,*%
X102840228Y-118419994D03*
%TD*%
D31*
%TO.C,J4*%
X117333483Y-64813512D03*
D32*
X119463706Y-63430129D03*
X121593930Y-62046746D03*
X123724153Y-60663363D03*
%TD*%
D13*
%TO.C,*%
X110460228Y-100639994D03*
%TD*%
%TO.C,*%
X110460228Y-118419994D03*
%TD*%
%TO.C,*%
X113000228Y-110799994D03*
%TD*%
%TO.C,*%
X107920228Y-133659994D03*
%TD*%
%TO.C,*%
X113000228Y-131119994D03*
%TD*%
%TO.C,*%
X113000228Y-126039994D03*
%TD*%
%TO.C,*%
X123160228Y-133659994D03*
%TD*%
%TO.C,*%
X113000228Y-98099994D03*
%TD*%
%TO.C,*%
X107920228Y-131119994D03*
%TD*%
D33*
%TO.C,J1*%
X156180228Y-151439994D03*
D34*
X156180228Y-153979994D03*
X156180228Y-156519994D03*
%TD*%
D13*
%TO.C,*%
X113000228Y-128579994D03*
%TD*%
%TO.C,*%
X125700228Y-120959994D03*
%TD*%
%TO.C,*%
X118080228Y-126039994D03*
%TD*%
%TO.C,*%
X105380228Y-108259994D03*
%TD*%
%TO.C,*%
X110460228Y-98099994D03*
%TD*%
%TO.C,*%
X110460228Y-113339994D03*
%TD*%
%TO.C,*%
X110460228Y-105719994D03*
%TD*%
%TO.C,*%
X107920228Y-103179994D03*
%TD*%
%TO.C,*%
X113000228Y-93019994D03*
%TD*%
%TO.C,*%
X113000228Y-115879994D03*
%TD*%
%TO.C,*%
X118080228Y-133659994D03*
%TD*%
%TO.C,*%
X123160228Y-110799994D03*
%TD*%
%TO.C,*%
X123160228Y-118419994D03*
%TD*%
%TO.C,*%
X107920228Y-143819994D03*
%TD*%
%TO.C,*%
X113000228Y-148899994D03*
%TD*%
%TO.C,*%
X113000228Y-105719994D03*
%TD*%
%TO.C,*%
X105380228Y-126039994D03*
%TD*%
%TO.C,*%
X107920228Y-123499994D03*
%TD*%
%TO.C,*%
X112748468Y-90067425D03*
%TD*%
%TO.C,*%
X125700228Y-113339994D03*
%TD*%
%TO.C,*%
X118080228Y-138739994D03*
%TD*%
%TO.C,*%
X118080228Y-128579994D03*
%TD*%
%TO.C,*%
X123160228Y-126039994D03*
%TD*%
%TO.C,*%
X105380228Y-136199994D03*
%TD*%
%TO.C,*%
X118080228Y-143819994D03*
%TD*%
%TO.C,*%
X113000228Y-103179994D03*
%TD*%
%TO.C,*%
X120620228Y-110799994D03*
%TD*%
%TO.C,*%
X118080228Y-110799994D03*
%TD*%
%TO.C,*%
X120620228Y-103179994D03*
%TD*%
%TO.C,*%
X128240228Y-100639994D03*
%TD*%
%TO.C,*%
X123160228Y-128579994D03*
%TD*%
%TO.C,*%
X107920228Y-128579994D03*
%TD*%
%TO.C,*%
X120620228Y-128579994D03*
%TD*%
%TO.C,*%
X125700228Y-126039994D03*
%TD*%
%TO.C,*%
X118080228Y-123499994D03*
%TD*%
M02*
