M48
; DRILL file {KiCad 8.0.6} date 2024-11-07T16:30:59+0100
; FORMAT={-:-/ absolute / inch / decimal}
; #@! TF.CreationDate,2024-11-07T16:30:59+01:00
; #@! TF.GenerationSoftware,Kicad,Pcbnew,8.0.6
; #@! TF.FileFunction,Plated,1,2,PTH
FMAT,2
INCH
; #@! TA.AperFunction,Plated,PTH,ViaDrill
T1C0.0118
; #@! TA.AperFunction,Plated,PTH,ComponentDrill
T2C0.0236
; #@! TA.AperFunction,Plated,PTH,ComponentDrill
T3C0.0295
; #@! TA.AperFunction,Plated,PTH,ComponentDrill
T4C0.0394
; #@! TA.AperFunction,Plated,PTH,ComponentDrill
T5C0.0433
; #@! TA.AperFunction,Plated,PTH,ComponentDrill
T6C0.0512
; #@! TA.AperFunction,Plated,PTH,ComponentDrill
T7C0.0591
%
G90
G05
T1
X4.7248Y-5.7646
X4.7815Y-2.5157
X4.8095Y-5.7232
X4.8488Y-5.7803
X4.8488Y-5.8197
X4.8488Y-5.8591
X4.8488Y-5.8984
X4.8524Y-2.4528
X4.8882Y-5.7803
X4.8882Y-5.8197
X4.8882Y-5.8591
X4.8882Y-5.8984
X4.9088Y-5.9821
X4.9088Y-6.0431
X4.9311Y-2.4213
X4.9688Y-5.9821
X4.9688Y-6.0431
X4.9748Y-5.7232
X5.0063Y-5.7803
X5.0063Y-5.8197
X5.0373Y-5.0278
X5.0373Y-5.0967
X5.0457Y-5.7803
X5.0457Y-5.8197
X5.1087Y-5.7783
X5.1201Y-2.9488
X5.1288Y-6.1622
X5.1654Y-3.2047
X5.3169Y-5.2264
X5.3169Y-5.2992
X5.3221Y-4.6091
X5.3744Y-3.2291
X5.3752Y-4.2882
X5.3772Y-4.5559
X5.3803Y-5.7744
X5.385Y-5.8492
X5.4362Y-5.8236
X5.4449Y-3.437
X5.4559Y-4.5559
X5.4744Y-3.6969
X5.4862Y-3.7874
X5.5276Y-3.8524
X5.5347Y-4.5559
X5.5531Y-3.6476
X5.5591Y-3.9114
X5.5709Y-3.748
X5.578Y-5.5933
X5.6016Y-5.6602
X5.6134Y-4.5559
X5.6181Y-3.7717
X5.6713Y-5.2264
X5.6713Y-5.2972
X5.6732Y-3.8071
X5.6831Y-3.8622
X5.6921Y-4.5559
X5.7205Y-5.2776
X5.7456Y-3.8657
X5.7709Y-4.5559
X5.7972Y-5.1004
X5.7984Y-3.7469
X5.8122Y-5.5854
X5.8122Y-5.6602
X5.8221Y-4.2882
X5.8496Y-4.5559
X5.8524Y-5.0768
X5.8524Y-5.1476
X5.8626Y-3.9614
X5.8673Y-5.6051
X5.8772Y-4.6091
X5.9488Y-3.6722
X5.9888Y-3.7222
X5.9888Y-3.9022
X6.0201Y-3.7921
X6.026Y-4.0185
X6.0358Y-3.9417
X6.0937Y-3.7882
X6.1146Y-5.737
X6.1185Y-5.1228
X6.1205Y-5.3
X6.1496Y-4.5394
X6.1496Y-5.0
X6.1516Y-4.2008
X6.1992Y-5.0421
X6.2032Y-3.8669
X6.2071Y-5.5244
X6.215Y-4.7528
X6.2169Y-5.0008
X6.2307Y-4.1406
X6.2327Y-5.5894
X6.2347Y-5.1996
X6.252Y-6.0913
X6.2839Y-4.1858
X6.2976Y-3.7724
X6.2976Y-4.0028
X6.3016Y-3.9063
X6.3134Y-5.1996
X6.3213Y-4.048
X6.337Y-4.802
X6.3862Y-3.6819
X6.4252Y-3.9213
X6.4276Y-4.0067
X6.4374Y-4.0894
X6.441Y-4.8456
X6.5083Y-4.9004
X6.5221Y-3.548
X6.7126Y-3.5374
X6.7303Y-3.5807
X6.9075Y-3.3445
X6.9567Y-3.3898
T3
X4.8508Y-5.9732
X4.8508Y-6.052
T4
X4.6194Y-2.5517
X4.7033Y-2.4972
X4.7872Y-2.4428
X4.871Y-2.3883
X5.2488Y-4.2622
X5.2488Y-4.3622
X5.2488Y-4.4622
X5.2488Y-4.5622
X5.2488Y-4.6622
X5.2488Y-4.7622
X5.2488Y-4.8622
X5.2488Y-4.9622
X5.2488Y-5.0622
X5.2488Y-5.1622
X5.2488Y-5.2622
X5.2488Y-5.3622
X5.2488Y-5.4622
X5.2488Y-5.5622
X5.2488Y-5.6622
X5.2488Y-5.7622
X5.2488Y-5.8622
X5.2488Y-5.9622
X5.2488Y-6.0622
X5.2488Y-6.1622
X5.9488Y-4.2622
X5.9488Y-4.3622
X5.9488Y-4.4622
X5.9488Y-4.5622
X5.9488Y-4.6622
X5.9488Y-4.7622
X5.9488Y-4.8622
X5.9488Y-4.9622
X5.9488Y-5.0622
X5.9488Y-5.1622
X5.9488Y-5.2622
X5.9488Y-5.3622
X5.9488Y-5.4622
X5.9488Y-5.5622
X5.9488Y-5.6622
X5.9488Y-5.7622
X5.9488Y-5.8622
X5.9488Y-5.9622
X5.9488Y-6.0622
X5.9488Y-6.1622
X6.1488Y-5.9622
X6.1488Y-6.0622
X6.1488Y-6.1622
X6.4041Y-3.8321
X6.4737Y-3.7625
X6.5433Y-3.6929
X6.5472Y-4.0157
X6.618Y-3.945
X6.6887Y-3.8743
X6.7594Y-3.8036
T5
X3.9488Y-5.1622
X4.0488Y-4.6622
X4.0488Y-5.0622
X4.0488Y-5.4622
X4.0488Y-5.7622
X4.1488Y-4.2622
X4.1488Y-4.5622
X4.1488Y-4.6622
X4.1488Y-4.9622
X4.1488Y-5.0622
X4.1488Y-5.3622
X4.1488Y-5.6622
X4.2488Y-4.0622
X4.2488Y-4.1622
X4.2488Y-4.2622
X4.2488Y-4.4622
X4.2488Y-4.5622
X4.2488Y-4.8622
X4.2488Y-4.9622
X4.2488Y-5.0622
X4.2488Y-5.1622
X4.2488Y-5.2622
X4.2488Y-5.3622
X4.2488Y-5.4622
X4.2488Y-5.5622
X4.2488Y-5.6622
X4.2488Y-5.9622
X4.2488Y-6.0622
X4.3488Y-3.6622
X4.3488Y-3.7622
X4.3488Y-3.8622
X4.3488Y-3.9622
X4.3488Y-4.0622
X4.3488Y-4.1622
X4.3488Y-4.2622
X4.3488Y-4.3622
X4.3488Y-4.4622
X4.3488Y-4.5622
X4.3488Y-4.6622
X4.3488Y-4.7622
X4.3488Y-4.8622
X4.3488Y-4.9622
X4.3488Y-5.0622
X4.3488Y-5.1622
X4.3488Y-5.2622
X4.3488Y-5.3622
X4.3488Y-5.4622
X4.3488Y-5.5622
X4.3488Y-5.6622
X4.3488Y-5.7622
X4.3488Y-5.8622
X4.3488Y-5.9622
X4.4389Y-3.546
X4.4488Y-3.6622
X4.4488Y-3.7622
X4.4488Y-3.8622
X4.4488Y-3.9622
X4.4488Y-4.0622
X4.4488Y-4.1622
X4.4488Y-4.2622
X4.4488Y-4.3622
X4.4488Y-4.4622
X4.4488Y-4.5622
X4.4488Y-4.6622
X4.4488Y-4.7622
X4.4488Y-4.8622
X4.4488Y-4.9622
X4.4488Y-5.0622
X4.4488Y-5.1622
X4.4488Y-5.2622
X4.4488Y-5.3622
X4.4488Y-5.4622
X4.4488Y-5.5622
X4.4488Y-5.6622
X4.4488Y-5.7622
X4.4488Y-5.8622
X4.4488Y-5.9622
X4.5488Y-3.4622
X4.5488Y-3.9622
X4.5488Y-4.0622
X4.5488Y-4.1622
X4.5488Y-4.2622
X4.5488Y-4.3622
X4.5488Y-4.4622
X4.5488Y-4.5622
X4.5488Y-4.6622
X4.5488Y-4.7622
X4.5488Y-4.8622
X4.5488Y-4.9622
X4.5488Y-5.0622
X4.5488Y-5.1622
X4.5488Y-5.2622
X4.5488Y-5.3622
X4.5488Y-5.4622
X4.5488Y-5.5622
X4.5488Y-5.6622
X4.6488Y-3.9622
X4.6488Y-4.0622
X4.6488Y-4.1622
X4.6488Y-4.2622
X4.6488Y-4.3622
X4.6488Y-4.4622
X4.6488Y-4.5622
X4.6488Y-4.6622
X4.6488Y-4.7622
X4.6488Y-4.8622
X4.6488Y-4.9622
X4.6488Y-5.0622
X4.6488Y-5.1622
X4.6488Y-5.2622
X4.6488Y-5.3622
X4.6488Y-5.4622
X4.6488Y-5.5622
X4.6488Y-5.6622
X4.7488Y-3.9622
X4.7488Y-4.0622
X4.7488Y-4.1622
X4.7488Y-4.2622
X4.7488Y-4.3622
X4.7488Y-4.4622
X4.7488Y-4.5622
X4.7488Y-4.6622
X4.7488Y-4.7622
X4.7488Y-4.8622
X4.7488Y-4.9622
X4.7488Y-5.0622
X4.7488Y-5.1622
X4.7488Y-5.2622
X4.7488Y-5.3622
X4.7488Y-5.4622
X4.7488Y-5.5622
X4.7488Y-5.6622
X4.8488Y-3.9622
X4.8488Y-4.0622
X4.8488Y-4.1622
X4.8488Y-4.2622
X4.8488Y-4.3622
X4.8488Y-4.4622
X4.8488Y-4.5622
X4.8488Y-4.6622
X4.8488Y-4.7622
X4.8488Y-4.8622
X4.8488Y-4.9622
X4.8488Y-5.0622
X4.8488Y-5.1622
X4.8488Y-5.2622
X4.8488Y-5.3622
X4.8488Y-5.4622
X4.8488Y-5.5622
X4.9488Y-3.9622
X4.9488Y-4.0622
X4.9488Y-4.1622
X4.9488Y-4.2622
X4.9488Y-4.3622
X4.9488Y-4.4622
X4.9488Y-4.5622
X4.9488Y-4.6622
X4.9488Y-4.7622
X4.9488Y-4.8622
X4.9488Y-4.9622
X4.9488Y-5.0622
X4.9488Y-5.1622
X4.9488Y-5.2622
X4.9488Y-5.3622
X4.9488Y-5.4622
X4.9488Y-5.5622
X5.0488Y-3.9622
X5.0488Y-4.0622
X5.0488Y-4.1622
X5.0488Y-4.2622
X5.0488Y-4.3622
X5.0488Y-4.4622
X5.0488Y-4.5622
X5.0488Y-4.6622
X5.0488Y-4.7622
X5.0488Y-4.8622
X5.0488Y-5.2622
X5.0488Y-5.3622
X5.0488Y-5.4622
X5.0488Y-5.5622
T6
X4.7217Y-5.8945
X4.7217Y-6.0913
X5.2894Y-3.8515
X5.2894Y-4.0483
T2
G00X5.011Y-3.6262
M15
G01X5.0042Y-3.5874
M16
G05
T7
G00X4.7695Y-3.6848
M15
G01X4.7572Y-3.615
M16
G05
G00X4.9368Y-3.4094
M15
G01X5.0066Y-3.3971
M16
G05
G00X5.0086Y-3.8165
M15
G01X5.0784Y-3.8042
M16
G05
M30
